<?xml version="1.0" standalone="no"?>
<!DOCTYPE svg PUBLIC "-//W3C//DTD SVG 1.1//EN" "http://www.w3.org/Graphics/SVG/1.1/DTD/svg11.dtd" >
<svg xmlns="http://www.w3.org/2000/svg" xmlns:xlink="http://www.w3.org/1999/xlink" version="1.1">
<metadata>
Created by FontForge 20170731 at Fri Aug  7 22:11:19 2020
 By Aleksey,,,
copyright missing
</metadata>
<defs>
<font id="Branding-ThinItalic" horiz-adv-x="0" >
  <font-face 
    font-family="Branding ThinItalic"
    font-weight="250"
    font-style="italic"
    font-stretch="normal"
    units-per-em="2048"
    panose-1="0 0 3 0 0 0 0 0 0 0"
    ascent="1577"
    descent="-471"
    x-height="950"
    cap-height="1319"
    bbox="-1051 -428 2742.45 1690"
    underline-thickness="102"
    underline-position="-307"
    slope="-10"
    unicode-range="U+0020-FB02"
  />
<missing-glyph horiz-adv-x="868" 
d="M428 184l-344 346l344 344l346 -344z" />
    <glyph glyph-name="fi" unicode="fi" horiz-adv-x="1026" 
d="M698 1348q166 0 260 -99q-6 -17 -32 -30q-46 45 -97 66.5t-137 21.5q-322 0 -379 -328l-4 -23h602l-168 -956q-8 -4 -20 -4q-13 0 -21 4l162 922h-561l-149 -922q-8 -4 -21 -4q-12 0 -20 4l151 922h-147v14q0 8 6 20h147l2 17q64 375 426 375z" />
    <glyph glyph-name="fl" unicode="fl" horiz-adv-x="1136" 
d="M1028 86q21 -14 21 -31q-1 -1 -13 -10t-20.5 -14.5t-26 -15t-34 -15t-40 -10t-47.5 -4.5q-90 0 -134 54t-27 153l180 1071q-91 43 -197 43q-64 0 -121 -18t-108.5 -56t-88.5 -106t-53 -160l-2 -11h316q2 -2 2 -10q0 -16 -8 -24h-316l-161 -922q-8 -4 -21 -4q-12 0 -20 4
l163 922h-147v14q0 8 6 20h148v5q18 105 60.5 182.5t100.5 121t121.5 63.5t134.5 20q150 0 234 -56l-185 -1104q-13 -78 20 -120.5t103 -42.5q49 0 83.5 14.5t76.5 46.5z" />
    <glyph glyph-name=".notdef" horiz-adv-x="868" 
d="M428 184l-344 346l344 344l346 -344z" />
    <glyph glyph-name=".null" 
 />
    <glyph glyph-name="nonmarkingreturn" horiz-adv-x="682" 
 />
    <glyph glyph-name="space" unicode=" " horiz-adv-x="532" 
 />
    <glyph glyph-name="exclam" unicode="!" horiz-adv-x="442" 
d="M174 305q-8 0 -12 2q66 416 172 1016q12 4 20 4q9 0 21 -4q-75 -437 -189 -1016q-4 -2 -12 -2zM131 -16q-22 0 -37.5 16t-15.5 39q0 21 16 37t37 16q23 0 38 -16t15 -37q0 -23 -15 -39t-38 -16z" />
    <glyph glyph-name="quotedbl" unicode="&#x22;" horiz-adv-x="575" 
d="M240 944q-3 0 -15 4l60 398q15 6 28 6q15 0 27 -6l-84 -398q-12 -4 -16 -4zM465 944q-10 0 -14 4l59 398q10 4 29 4q18 0 26 -4l-84 -400q-6 -2 -16 -2z" />
    <glyph glyph-name="numbersign" unicode="#" horiz-adv-x="1255" 
d="M1219 791h-250l-172 -431h211q0 -18 -15 -36h-211l-168 -420q-22 -6 -41 0l168 420h-426l-168 -420q-22 -6 -41 0l168 420h-247q0 18 14 36h248l172 431h-209q3 23 16 36h209l172 433q21 6 39 0l-172 -433h428l172 433q21 6 39 0l-172 -433h252q0 -17 -16 -36zM756 360
l172 431h-426l-172 -431h426z" />
    <glyph glyph-name="dollar" unicode="$" horiz-adv-x="933" 
d="M621 1237q157 -6 272 -92q-13 -26 -29 -35q-112 79 -252 86l-88 -500q36 -8 60.5 -15t56.5 -19.5t53.5 -26t44 -35t36 -47t22 -61t8.5 -78.5q0 -149 -98 -237.5t-289 -92.5l-33 -180q-8 -4 -20 -4q-13 0 -21 4l33 180q-115 3 -199.5 37.5t-132.5 85.5q7 25 33 35
q103 -112 305 -119l96 541q-34 8 -49 11.5t-46 12t-46 15.5t-40 19t-38 24.5t-29.5 31t-24.5 39.5t-14 49t-6 60q0 141 112.5 224.5t281.5 86.5l30 174q8 4 21 4q12 0 20 -4zM231 926q0 -46 15 -81t35.5 -56t59 -38.5t66.5 -25.5t78 -20l86 491q-153 -3 -246.5 -73
t-93.5 -197zM762 410q0 50 -14 88.5t-34.5 63t-55.5 43.5t-65 29t-75 21l-94 -532q172 4 255 83t83 204z" />
    <glyph glyph-name="percent" unicode="%" horiz-adv-x="1454" 
d="M143 -96l1117 1411q28 9 49 0l-1119 -1411q-30 -7 -47 0zM387 721q-113 0 -174 67.5t-61 172.5q0 154 84 243.5t213 89.5q112 0 173.5 -67t61.5 -170q0 -156 -82 -246t-215 -90zM395 760q112 0 180 79.5t68 215.5q0 88 -50 144t-153 56q-105 0 -176 -79.5t-71 -212.5
q0 -88 54 -145.5t148 -57.5zM1032 -8q-114 0 -174.5 66.5t-60.5 170.5q0 155 84 245.5t211 90.5q114 0 175.5 -67t61.5 -170q0 -157 -82 -246.5t-215 -89.5zM1038 31q114 0 182 78.5t68 216.5q0 88 -50 144t-153 56q-105 0 -176 -80.5t-71 -214.5q0 -86 54 -143t146 -57z
" />
    <glyph glyph-name="ampersand" unicode="&#x26;" horiz-adv-x="1181" 
d="M596 723h549v-12q0 -19 -8 -27h-228l-112 -631q-165 -71 -338 -71q-178 0 -277.5 81.5t-99.5 221.5q0 91 33.5 167t89.5 125.5t121 80.5t137 44q-100 19 -158.5 84.5t-58.5 169.5q0 167 119 270t292 103q185 0 275 -104q-11 -18 -33 -29q-83 94 -248 94q-154 0 -258 -93
t-104 -232q0 -113 75.5 -177.5t231.5 -64.5zM760 78l108 606h-280q-109 -1 -198.5 -33.5t-147 -87t-88.5 -124.5t-31 -148q0 -126 90.5 -198.5t251.5 -72.5q87 0 154 13t141 45z" />
    <glyph glyph-name="quotesingle" unicode="'" horiz-adv-x="350" 
d="M240 944q-3 0 -15 4l60 398q15 6 28 6q15 0 27 -6l-84 -398q-12 -4 -16 -4z" />
    <glyph glyph-name="parenleft" unicode="(" horiz-adv-x="475" 
d="M188 -356q-98 259 -98 542q0 655 408 1217q21 -3 26 -21q-181 -257 -286 -568.5t-105 -606.5q0 -298 90 -551q-12 -15 -35 -12z" />
    <glyph glyph-name="parenright" unicode=")" horiz-adv-x="473" 
d="M-35 -358q-21 3 -28 20q182 255 287.5 567.5t105.5 608.5q0 298 -90 551q12 15 34 12q97 -260 97 -543q0 -653 -406 -1216z" />
    <glyph glyph-name="asterisk" unicode="*" horiz-adv-x="677" 
d="M463 1090l143 -78q-9 -31 -35 -47l-120 112q-13 -10 -27 -10h-4l-31 -164q-33 -3 -55 19l69 149q-21 11 -24 31l-164 -23q-13 32 0 60l162 -21q3 23 24 33l-71 147q25 22 55 19l33 -160h6q16 0 29 -10l116 115q29 -20 35 -48l-139 -81q4 -12 4 -21q0 -13 -6 -22z" />
    <glyph glyph-name="plus" unicode="+" horiz-adv-x="935" 
d="M821 512q3 -1 2.5 -9.5t-3 -18t-5.5 -9.5h-342l-63 -360q-2 -5 -19.5 -3.5t-17.5 5.5l63 358h-342q-4 8 -2 19.5t8 17.5h342l64 360q0 6 26 4q11 -1 11 -4l-64 -360h342z" />
    <glyph glyph-name="comma" unicode="," horiz-adv-x="370" 
d="M-20 -248q-6 0 -10.5 5.5t-4.5 11.5q60 65 95.5 170.5t35.5 189.5q0 49 -6 64q30 10 57 -5q3 -6 3 -34q0 -120 -55 -234t-115 -168z" />
    <glyph glyph-name="hyphen" unicode="-" horiz-adv-x="743" 
d="M150 498q-3 6 -3 14q0 14 9 23h424q2 -2 2 -11q0 -17 -9 -26h-423z" />
    <glyph glyph-name="period" unicode="." horiz-adv-x="395" 
d="M127 -16q-22 0 -37.5 16t-15.5 39q0 21 16 37t37 16q23 0 38 -16t15 -37q0 -23 -15 -39t-38 -16z" />
    <glyph glyph-name="slash" unicode="/" horiz-adv-x="944" 
d="M-82 -367q-14 0 -20 2l1083 1733q8 2 23 2q14 0 20 -2l-1083 -1733q-6 -2 -23 -2z" />
    <glyph glyph-name="zero" unicode="0" horiz-adv-x="1165" 
d="M520 -18q-195 0 -288 128.5t-93 358.5q0 183 36.5 343t104.5 281t172.5 191t233.5 70q188 0 280.5 -126.5t92.5 -355.5q0 -148 -18.5 -278t-60 -243.5t-103 -194.5t-153 -127.5t-204.5 -46.5zM526 23q79 0 146.5 25t117 69t89 107t65.5 135.5t43 158.5t24 172t7 180
q0 443 -340 443q-84 0 -156 -33t-126 -92t-96 -138t-68 -174t-39 -197t-13 -210q0 -446 346 -446z" />
    <glyph glyph-name="one" unicode="1" horiz-adv-x="641" 
d="M547 1329q10 0 18 -4l-233 -1325q-8 -4 -21 -4q-12 0 -20 4l227 1282l-362 -186q-16 16 -13 37q114 58 250 127q99 50 119.5 59.5t34.5 9.5z" />
    <glyph glyph-name="two" unicode="2" horiz-adv-x="1032" 
d="M111 41h778q5 -18 -6 -41h-836q-4 12 -4 23q0 35 41 65q161 128 266.5 214.5t202.5 174.5t152.5 150.5t98 128t59 123t16.5 120.5q0 150 -86 227t-230 77q-121 0 -203 -46.5t-151 -126.5q-21 6 -25 25q35 40 67.5 69t79 58t107 44t131.5 15q74 0 136 -19t111.5 -58
t77.5 -105t28 -153q0 -43 -5 -81.5t-20 -78.5t-32 -74.5t-50 -78t-64.5 -80t-86 -88.5t-103.5 -95.5t-128 -109.5t-148.5 -122t-175.5 -141l-23 -18z" />
    <glyph glyph-name="three" unicode="3" horiz-adv-x="1011" 
d="M215 1315h741q0 -40 -41 -78l-462 -434q123 0 218 -39.5t152.5 -124t57.5 -203.5q0 -145 -65 -250t-169 -154.5t-233 -49.5q-253 0 -377 133q8 19 31 32q65 -63 143 -93.5t211 -30.5q119 0 212 45t149.5 139.5t56.5 226.5q0 162 -112 247t-308 85h-31q0 2 1 5t1 5
q3 19 21 37l485 461h-688q-4 22 6 41z" />
    <glyph glyph-name="four" unicode="4" horiz-adv-x="995" 
d="M748 444h172v-12q0 -8 -7 -26h-172l-69 -406q-12 -4 -19 -4q-4 0 -20 4l69 406h-653q-19 48 23 106l606 846q20 0 33 -21l-602 -837q-25 -31 -19 -56h619l55 320q16 4 20 4q7 0 19 -4z" />
    <glyph glyph-name="five" unicode="5" horiz-adv-x="999" 
d="M379 -29q-224 0 -336 107q10 24 31 33q92 -101 311 -101q120 0 218 49t159 149.5t61 237.5q0 170 -85.5 249t-262.5 79q-66 0 -122 -14t-90.5 -28.5t-47.5 -14.5q-19 0 -25 4l105 594h655q0 -29 -6 -41h-614l-92 -516q128 57 243 57q191 0 287 -88.5t96 -275.5
q0 -113 -39.5 -205.5t-107 -151.5t-154.5 -91t-184 -32z" />
    <glyph glyph-name="six" unicode="6" horiz-adv-x="1046" 
d="M983 1284q-97 -12 -197.5 -47t-199.5 -96.5t-181.5 -141.5t-145 -190t-89.5 -234q164 189 389 189q71 0 133 -20.5t112.5 -61t79.5 -109t29 -157.5q0 -208 -122 -327.5t-308 -119.5q-181 0 -279 111.5t-98 306.5q0 160 52.5 304t139.5 250.5t201 189t236.5 130.5
t245.5 64q6 -11 2 -41zM551 725q-112 0 -212.5 -57.5t-180.5 -151.5q-8 -82 -8 -129q0 -176 87.5 -277.5t254.5 -101.5q166 0 272 110.5t106 289.5q0 81 -26 143.5t-71.5 99.5t-101.5 55.5t-120 18.5z" />
    <glyph glyph-name="seven" unicode="7" horiz-adv-x="937" 
d="M1018 1313q1 -7 -0.5 -14.5t-5.5 -16.5t-7 -15.5t-9 -15.5t-7 -12l-817 -1262q-28 4 -37 21l826 1274h-797q-3 26 8 41h846z" />
    <glyph glyph-name="eight" unicode="8" horiz-adv-x="1052" 
d="M678 676q96 -45 150.5 -114.5t54.5 -180.5q0 -103 -38 -182.5t-102.5 -125.5t-142 -69.5t-164.5 -23.5q-358 0 -358 292q0 81 33.5 157t89 132t120 97t132.5 63q-104 46 -153.5 106.5t-49.5 155.5q0 154 112 258.5t295 104.5q155 0 242.5 -77t87.5 -202q0 -71 -28.5 -135
t-77 -112.5t-98 -83t-105.5 -60.5zM293 989q0 -56 18 -98.5t58 -74t87.5 -54t121.5 -47.5q10 -3 29.5 -10.5t29.5 -10.5q307 145 307 365q0 111 -78 177.5t-215 66.5q-160 0 -259 -89.5t-99 -224.5zM442 20q79 0 148.5 20t127.5 61.5t92 113.5t34 166q0 115 -73.5 183.5
t-205.5 113.5l-69 24q-64 -17 -128.5 -56t-121 -93t-92 -128.5t-35.5 -152.5q0 -131 87.5 -191.5t235.5 -60.5z" />
    <glyph glyph-name="nine" unicode="9" horiz-adv-x="1054" 
d="M575 1343q184 0 286 -127.5t102 -345.5q0 -184 -41 -333.5t-114.5 -253.5t-177 -175t-226.5 -104t-265 -33q0 1 -1 6t-1 7q0 18 10 28q147 0 272 38.5t225.5 115.5t168.5 202.5t94 290.5q-182 -137 -368 -137q-80 0 -147 20.5t-120.5 63.5t-83.5 115t-30 168
q0 107 33.5 194t91 143.5t132.5 86.5t160 30zM549 561q181 0 364 150q9 70 9 153q0 204 -92.5 322.5t-258.5 118.5q-72 0 -137.5 -26t-118.5 -75.5t-84.5 -130t-31.5 -180.5q0 -171 96.5 -251.5t253.5 -80.5z" />
    <glyph glyph-name="colon" unicode=":" horiz-adv-x="419" 
d="M254 764q-21 0 -37 15t-16 38q0 21 16 37t37 16q23 0 39 -15.5t16 -37.5q0 -23 -16 -38t-39 -15zM129 43q-21 0 -37 15t-16 38q0 22 16 38t37 16q23 0 39 -16t16 -38q0 -23 -16 -38t-39 -15z" />
    <glyph glyph-name="semicolon" unicode=";" horiz-adv-x="487" 
d="M264 678q-22 0 -38.5 16t-16.5 39q0 20 16.5 36.5t38.5 16.5q21 0 37 -16t16 -37q0 -23 -15.5 -39t-37.5 -16zM74 -248q-6 0 -10.5 5.5t-4.5 11.5q60 65 95.5 170.5t35.5 189.5q0 49 -6 64q31 10 58 -5q2 -4 2 -34q0 -120 -55 -234t-115 -168z" />
    <glyph glyph-name="less" unicode="&#x3c;" horiz-adv-x="1071" 
d="M999 854l-858 -367l-39 -10l35 -12l715 -361q-6 -25 -25 -36l-757 378q-1 6 0.5 16t1.5 13q0 16 6 31l911 385q14 -8 10 -37z" />
    <glyph glyph-name="equal" unicode="=" horiz-adv-x="964" 
d="M172 612v11q0 17 8 28h639v-8q0 -15 -8 -31h-639zM117 301v10q0 16 8 29h639v-10q0 -17 -6 -29h-641z" />
    <glyph glyph-name="greater" unicode="&#x3e;" horiz-adv-x="1069" 
d="M199 891l774 -385v-12q0 -27 -12 -48l-891 -378q-16 12 -13 36l844 361l39 12l-35 10l-731 367q7 29 25 37z" />
    <glyph glyph-name="question" unicode="?" horiz-adv-x="786" 
d="M287 330q-9 0 -13 2q9 83 38 149t69 108t86 77.5t90.5 68t80.5 68.5t58.5 90t22.5 123q0 113 -72.5 179.5t-200.5 66.5q-134 0 -239 -78q-21 10 -21 26q120 93 260 93q147 0 231.5 -75.5t84.5 -211.5q0 -71 -22.5 -128.5t-59 -97.5t-81.5 -75.5t-92 -71.5t-87.5 -76.5
t-71 -100.5t-39.5 -134q-8 -2 -22 -2zM258 -16q-21 0 -37 16t-16 37q0 22 16.5 38.5t36.5 16.5q23 0 39 -16.5t16 -38.5t-16 -37.5t-39 -15.5z" />
    <glyph glyph-name="at" unicode="@" horiz-adv-x="1591" 
d="M936 1286q278 0 427.5 -157.5t149.5 -440.5q0 -128 -42.5 -246.5t-123 -197t-178.5 -78.5q-88 0 -129 53t-30 148q-111 -166 -303 -166q-99 0 -164.5 68.5t-65.5 193.5q0 104 36 192t95.5 145.5t137 89.5t161.5 32q112 0 226 -84l-78 -447q-16 -86 14.5 -137t106.5 -51
q83 0 151.5 71t105.5 181t37 231q0 270 -139 414.5t-403 144.5q-170 0 -317.5 -69t-247.5 -184.5t-156.5 -265.5t-56.5 -312q0 -248 138 -399.5t390 -151.5q171 0 319 63q14 -14 11 -37q-156 -67 -336 -67q-178 0 -307.5 77t-194 209t-64.5 304q0 114 28 224t79 206.5
t126 178.5t165.5 140.5t201.5 91.5t230 33zM717 242q85 0 166 47t139 157l65 367q-85 70 -190 70q-153 0 -265 -115t-112 -295q0 -105 54.5 -168t142.5 -63z" />
    <glyph glyph-name="A" unicode="A" horiz-adv-x="1126" 
d="M709 1315l282 -1313q-15 -6 -35 -6h-8l-94 442h-618l-242 -440h-10q-23 0 -33 4l721 1313q6 2 18 2q13 0 19 -2zM256 477h590l-152 723l-10 64l-33 -66z" />
    <glyph glyph-name="B" unicode="B" horiz-adv-x="1122" 
d="M688 680q148 -20 216.5 -94t68.5 -201q0 -188 -140.5 -299t-388.5 -111q-197 0 -333 25l229 1303q129 24 303 24q184 0 278.5 -72t94.5 -206q0 -137 -83 -235t-245 -134zM971 1040q0 117 -82 182.5t-254 65.5q-156 0 -260 -16l-101 -580h246q209 0 330 98t121 250z
M451 14q227 0 353 102.5t126 258.5q0 137 -86 207.5t-269 70.5h-309l-108 -620q149 -19 293 -19z" />
    <glyph glyph-name="C" unicode="C" horiz-adv-x="1185" 
d="M623 -20q-235 0 -362.5 146t-127.5 398q0 229 84 414t243 294t365 109q237 0 379 -145q-12 -18 -30 -27q-131 131 -355 131q-147 0 -269.5 -61t-203.5 -166.5t-125.5 -246t-44.5 -300.5q0 -237 117 -371.5t338 -134.5q247 0 391 134q19 -5 22 -29q-167 -145 -421 -145z
" />
    <glyph glyph-name="D" unicode="D" horiz-adv-x="1331" 
d="M635 1333q289 0 444.5 -147.5t155.5 -415.5q0 -119 -31 -232t-97 -214t-159 -177t-226 -120.5t-290 -44.5q-177 0 -321 18l8 47l221 1260q156 26 295 26zM440 23q142 0 264.5 40t211 110.5t151.5 164.5t94 202t31 224q0 255 -145.5 391.5t-417.5 136.5q-149 0 -254 -18
l-215 -1233q135 -18 280 -18z" />
    <glyph glyph-name="E" unicode="E" horiz-adv-x="1042" 
d="M1049 1276h-674l-101 -569h615q5 -23 -6 -39h-615l-110 -629h702q4 -20 -8 -39h-741l231 1315h713q7 -20 -6 -39z" />
    <glyph glyph-name="F" unicode="F" horiz-adv-x="987" 
d="M1055 1276h-680l-107 -612h609q3 -21 -9 -39h-606l-110 -625q-16 -4 -23 -4q-6 0 -18 4l231 1315h721q4 -22 -8 -39z" />
    <glyph glyph-name="G" unicode="G" horiz-adv-x="1265" 
d="M838 1341q127 0 215 -41.5t155 -121.5q-8 -16 -30 -27q-66 76 -146.5 112.5t-200.5 36.5q-151 0 -275 -59.5t-206.5 -164.5t-127 -248t-44.5 -310q0 -112 26.5 -201.5t80.5 -157t144 -103.5t210 -36q218 0 373 84l80 463h-357q-6 25 8 39h398l-94 -524q-93 -50 -187 -76
t-229 -26q-127 0 -223.5 39.5t-155.5 112t-88 169t-29 215.5q0 177 49.5 328.5t139.5 261.5t222.5 172.5t291.5 62.5z" />
    <glyph glyph-name="H" unicode="H" horiz-adv-x="1341" 
d="M1245 1319q13 0 21 -4l-234 -1315q-8 -4 -20 -4q-13 0 -21 4l117 662h-840l-116 -662q-12 -4 -23 -4q-10 0 -18 4l231 1315q8 4 20 4q13 0 21 -4l-109 -617h842l109 617q8 4 20 4z" />
    <glyph glyph-name="I" unicode="I" horiz-adv-x="458" 
d="M131 -4q-12 0 -20 4l231 1315q12 4 23 4q10 0 18 -4l-231 -1315q-8 -4 -21 -4z" />
    <glyph glyph-name="J" unicode="J" horiz-adv-x="706" 
d="M133 -33q-60 0 -109.5 22.5t-78.5 53.5q6 22 28 33q39 -35 74 -51.5t92 -16.5q45 0 87.5 15t82 46t70 87t43.5 131l182 1028q8 4 21 4q10 0 18 -4l-180 -1022q-57 -326 -330 -326z" />
    <glyph glyph-name="K" unicode="K" horiz-adv-x="1085" 
d="M1157 1315q-305 -399 -672 -629q188 -331 467 -686q-24 -4 -41 -4h-8q-153 204 -255.5 354t-192.5 318q-113 -67 -205 -109l-98 -559q-8 -4 -21 -4q-12 0 -20 4l231 1315q8 4 23 4q10 0 18 -4l-125 -713q256 125 451.5 288.5t404.5 424.5q8 2 23 2q14 0 20 -2z" />
    <glyph glyph-name="L" unicode="L" horiz-adv-x="921" 
d="M809 35q4 -10 -6 -39h-692l231 1319q16 4 20 4q9 0 21 -4l-225 -1280h651z" />
    <glyph glyph-name="M" unicode="M" horiz-adv-x="1536" 
d="M1427 1317q23 0 33 -4l-231 -1313q-8 -4 -21 -4q-12 0 -20 4l209 1178l8 36l-21 -34l-661 -1053q-6 -2 -18 -2q-13 0 -17 2l-313 1067l-8 33l-5 -35l-210 -1192q-12 -4 -23 -4q-10 0 -18 4l231 1313q12 6 35 6h4l319 -1083l13 -50l32 50l678 1081h4z" />
    <glyph glyph-name="N" unicode="N" horiz-adv-x="1331" 
d="M1235 1323q12 0 20 -4l-231 -1315q-12 -6 -41 -6l-596 1214l-16 35l-6 -41l-213 -1206q-8 -4 -21 -4q-12 0 -20 4l231 1313q24 9 41 6l602 -1233l8 -20l4 26l217 1227q8 4 21 4z" />
    <glyph glyph-name="O" unicode="O" horiz-adv-x="1382" 
d="M635 -20q-242 0 -371 147t-129 395q0 178 48.5 330.5t133 259.5t203.5 168t256 61q240 0 372 -150.5t132 -393.5q0 -375 -176 -596t-469 -221zM643 20q274 0 434 212.5t160 564.5q0 229 -121.5 366t-347.5 137q-172 0 -307 -101t-209 -277.5t-74 -395.5
q0 -235 119 -370.5t346 -135.5z" />
    <glyph glyph-name="P" unicode="P" horiz-adv-x="1079" 
d="M651 1337q198 0 303 -92.5t105 -263.5q0 -104 -31.5 -189.5t-96.5 -152t-174.5 -103t-254.5 -36.5q-170 0 -258 22l-92 -522q-8 -4 -21 -4q-12 0 -20 4l227 1290q134 47 313 47zM508 541q135 0 235.5 34t158.5 95t86 136t28 165q0 153 -93.5 239t-279.5 86
q-153 0 -268 -32l-123 -699q75 -24 256 -24z" />
    <glyph glyph-name="Q" unicode="Q" horiz-adv-x="1382" 
d="M778 -4q256 -60 361 -324q-17 -10 -35 -10q-131 318 -494 318q-229 7 -352 154t-123 388q0 178 48.5 330.5t133 259.5t203.5 168t256 61q240 0 372 -150.5t132 -393.5q0 -324 -135 -537t-367 -264zM178 526q0 -235 119 -370.5t346 -135.5q274 0 434 212.5t160 564.5
q0 229 -121.5 366t-347.5 137q-172 0 -307 -101t-209 -277.5t-74 -395.5z" />
    <glyph glyph-name="R" unicode="R" horiz-adv-x="1093" 
d="M1024 1016q0 -195 -113.5 -312t-310.5 -141q84 -168 164.5 -301t187.5 -260q-16 -4 -32 -4h-13q-105 126 -184.5 258.5t-165.5 302.5q-16 -2 -53 -2q-168 0 -252 12l-100 -569q-12 -4 -23 -4q-10 0 -18 4l227 1294q148 43 307 43q194 0 286.5 -88.5t92.5 -232.5zM260 612
q85 -16 250 -16q228 0 350.5 117.5t122.5 302.5q0 56 -20 104.5t-60 88.5t-108.5 63.5t-157.5 23.5q-137 0 -262 -32z" />
    <glyph glyph-name="S" unicode="S" horiz-adv-x="1019" 
d="M420 -27q-269 0 -397 156q6 23 30 31q116 -146 375 -146q185 0 294 93t109 239q0 63 -21 112.5t-56.5 81t-82 56t-97.5 44t-102 38.5t-97.5 44.5t-82 58.5t-56.5 84t-21 116q0 166 118 261t312 95q241 0 348 -133q-12 -22 -32 -30q-115 122 -324 122q-173 0 -276 -85
t-103 -230q0 -59 21 -104t56.5 -74t81.5 -52t97 -42t102 -38.5t97 -46.5t81.5 -62t56.5 -89t21 -123q0 -162 -123.5 -269.5t-328.5 -107.5z" />
    <glyph glyph-name="T" unicode="T" horiz-adv-x="1034" 
d="M1135 1315q4 -18 -9 -37h-464l-226 -1278q-16 -4 -20 -4q-9 0 -21 4l226 1278h-463q-7 18 6 37h971z" />
    <glyph glyph-name="U" unicode="U" horiz-adv-x="1310" 
d="M569 -20q-196 0 -296.5 103.5t-100.5 285.5q0 72 14 141l142 805q8 4 20 4q13 0 21 -4l-142 -805q-14 -82 -14 -135q0 -167 89 -261t273 -94q116 0 203 35.5t144 103.5t92 153t55 198l141 805q8 4 21 4q12 0 20 -4l-141 -805q-95 -530 -541 -530z" />
    <glyph glyph-name="V" unicode="V" horiz-adv-x="1144" 
d="M1153 1319q10 2 21 -4q-46 -186 -100.5 -344.5t-136 -328t-197.5 -332.5t-265 -314q-8 -4 -22 -4q-19 0 -27 4q-112 307 -165.5 621.5t-80.5 697.5q8 4 23 4q12 0 20 -4q25 -367 78 -679.5t158 -606.5q265 275 423 592t251 694q3 1 5.5 1.5t6.5 1t8 1.5z" />
    <glyph glyph-name="W" unicode="W" horiz-adv-x="1798" 
d="M1829 1319q6 0 12 -1l6 -1q-187 -724 -678 -1321q-8 -4 -28 -4q-13 0 -21 4q-113 508 -116 1040q-1 17 -1 37t0.5 45t0.5 39q-1 -5 -15 -50.5t-20 -68.5q-95 -306 -227.5 -552.5t-327.5 -489.5q-8 -4 -29 -4t-25 4q-132 504 -151 1321q1 0 4.5 0.5t10 1t12.5 0.5l16 -2
q11 -757 141 -1299q222 288 370 596t238 666q4 2 21 2l16 -2q-16 -575 109 -1255q476 579 659 1292q1 0 9 1t14 1z" />
    <glyph glyph-name="X" unicode="X" horiz-adv-x="1077" 
d="M1149 1317l-561 -655l338 -660q-24 -4 -39 -4h-8l-324 637l-559 -637h-23q-8 0 -28 4l587 670l-319 645q24 4 39 4h8l305 -623l535 623h6q23 0 43 -4z" />
    <glyph glyph-name="Y" unicode="Y" horiz-adv-x="1071" 
d="M1159 1317l-600 -756l-98 -561q-8 -4 -21 -4q-12 0 -20 4l100 569l-352 748q20 4 35 4h6l330 -705l8 -16l8 16l557 705h14q13 0 33 -4z" />
    <glyph glyph-name="Z" unicode="Z" horiz-adv-x="1060" 
d="M1090 1255l-1031 -1183l-30 -33h880q2 -16 -6 -39h-919q-4 4 -4 23q0 18 12 30l1022 1174l41 49h-852q-6 21 6 39h893q2 -4 2 -19q0 -24 -14 -41z" />
    <glyph glyph-name="bracketleft" unicode="[" horiz-adv-x="505" 
d="M578 1366h-189l-299 -1696h189q3 -20 -9 -39h-229l313 1774h230q7 -20 -6 -39z" />
    <glyph glyph-name="backslash" unicode="\" horiz-adv-x="899" 
d="M672 -367q-17 0 -23 2l-473 1647q8 2 23 2q14 0 20 -2l473 -1647q-6 -2 -20 -2z" />
    <glyph glyph-name="bracketright" unicode="]" horiz-adv-x="501" 
d="M219 1405h230l-314 -1774h-229q-3 20 6 39h190l299 1696h-188q-7 20 6 39z" />
    <glyph glyph-name="asciicircum" unicode="^" horiz-adv-x="980" 
d="M186 733q-20 3 -26 19l471 630q23 3 47 0l256 -637q-12 -9 -31 -12l-252 617z" />
    <glyph glyph-name="underscore" unicode="_" horiz-adv-x="823" 
d="M-113 -102l-2 14q0 11 9 20h817v-10q0 -15 -6 -24h-818z" />
    <glyph glyph-name="grave" unicode="`" horiz-adv-x="411" 
d="M541 1098l-252 250q11 22 33 32l239 -260q-5 -12 -20 -22z" />
    <glyph glyph-name="a" unicode="a" horiz-adv-x="1062" 
d="M948 903h2l-159 -903q-20 -7 -43 0l34 190l4 21q-82 -118 -183.5 -173.5t-207.5 -55.5q-61 0 -114.5 21t-98 63t-70.5 113.5t-26 164.5q0 121 33.5 226.5t89.5 180t130 127.5t155.5 79t164.5 26q182 0 289 -80zM406 23q99 0 203.5 65.5t189.5 196.5l104 596
q-85 61 -250 61q-96 0 -188 -39.5t-167 -112t-121 -188t-46 -254.5q0 -156 75.5 -240.5t199.5 -84.5z" />
    <glyph glyph-name="b" unicode="b" horiz-adv-x="1071" 
d="M553 983q184 0 291.5 -104t107.5 -289q0 -135 -43 -250t-117 -193t-174.5 -121.5t-214.5 -43.5q-112 0 -185.5 18t-131.5 55l227 1291q12 4 23 4q14 0 18 -4l-73 -420q117 57 272 57zM410 23q213 0 356 156.5t143 404.5q0 167 -97 262.5t-267 95.5q-159 0 -273 -57
l-141 -807q98 -55 279 -55z" />
    <glyph glyph-name="c" unicode="c" horiz-adv-x="944" 
d="M473 -18q-175 0 -276 107t-101 298q0 140 40.5 254t110.5 188t161 114t194 40q179 0 283 -100q-7 -23 -27 -33q-61 50 -118.5 72t-145.5 22q-207 0 -331 -156.5t-124 -400.5q0 -165 89 -264.5t251 -99.5q164 0 291 106q20 -13 23 -33q-140 -114 -320 -114z" />
    <glyph glyph-name="d" unicode="d" horiz-adv-x="1071" 
d="M1016 1354q12 0 20 -4l-229 -1295q-134 -73 -315 -73q-185 0 -293.5 104.5t-108.5 288.5q0 136 43.5 250.5t120 192.5t182.5 121.5t228 43.5q155 0 258 -53l73 420q8 4 21 4zM770 74l143 813q-98 55 -258 55q-226 0 -373 -155.5t-147 -405.5q0 -167 96.5 -262.5
t266.5 -95.5q158 0 272 51z" />
    <glyph glyph-name="e" unicode="e" horiz-adv-x="970" 
d="M403 424q-148 0 -262 41q-4 -54 -4 -82q0 -168 89.5 -265.5t246.5 -97.5q103 0 172.5 32.5t128.5 86.5q18 -8 21 -28q-143 -129 -330 -129q-168 0 -270.5 103t-102.5 290q0 141 43 257.5t115 192t165 117t195 41.5q128 0 203.5 -66t75.5 -165q0 -145 -120 -236.5
t-366 -91.5zM604 944q-164 0 -293.5 -118.5t-163.5 -319.5q119 -41 254 -41q116 0 204 22.5t138 62t74.5 87.5t24.5 104q0 84 -61.5 143.5t-176.5 59.5z" />
    <glyph glyph-name="f" unicode="f" horiz-adv-x="585" 
d="M614 1348q111 0 174 -45q-6 -23 -22 -35q-38 21 -70.5 30t-89.5 9q-105 0 -183 -67.5t-101 -211.5l-13 -72h309q7 -17 -6 -34h-307l-149 -922q-12 -4 -23 -4q-10 0 -18 4l149 922h-153q-3 20 6 34h153l11 66q14 90 47.5 155.5t80 101.5t97 52.5t108.5 16.5z" />
    <glyph glyph-name="g" unicode="g" horiz-adv-x="1067" 
d="M649 983q203 0 303 -80l-157 -899q-33 -183 -146.5 -287t-286.5 -104q-96 0 -170.5 23t-113.5 51.5t-78 72.5q11 25 33 31q112 -139 336 -139q141 0 248.5 95.5t136.5 256.5l18 100q-159 -100 -301 -100q-175 0 -277 99t-102 274q0 147 48 265t127.5 191t177.5 111.5
t204 38.5zM477 45q146 0 303 105l129 729q-91 63 -266 63q-100 0 -190.5 -37.5t-161 -106.5t-112.5 -176.5t-42 -236.5q0 -159 90.5 -249.5t249.5 -90.5z" />
    <glyph glyph-name="h" unicode="h" horiz-adv-x="1089" 
d="M618 983q194 0 268 -102.5t42 -278.5l-107 -602q-12 -4 -22 -4q-15 0 -19 4l107 602q8 55 8.5 104.5t-17.5 92.5t-50.5 75t-90 50t-135.5 18q-92 0 -180 -18.5t-141 -40.5h-2l-154 -883q-12 -4 -23 -4q-10 0 -18 4l158 903l77 443q12 4 23 4q14 0 18 -4l-73 -422
q148 59 331 59z" />
    <glyph glyph-name="i" unicode="i" horiz-adv-x="411" 
d="M324 1198q-21 0 -36.5 15t-15.5 36q0 20 16 35.5t36 15.5q21 0 36 -15t15 -36q0 -22 -14.5 -36.5t-36.5 -14.5zM106 -4q-12 0 -20 4l170 958q10 5 20 5q11 0 21 -5l-170 -958q-8 -4 -21 -4z" />
    <glyph glyph-name="j" unicode="j" horiz-adv-x="440" 
d="M348 1192q-21 0 -36 15t-15 36q0 20 15.5 35.5t35.5 15.5q21 0 36 -15t15 -36q0 -22 -14.5 -36.5t-36.5 -14.5zM-150 -397q-18 0 -35 2t-31.5 5.5t-27 7t-24.5 9.5t-20.5 10t-18 11t-13.5 9.5t-11 8.5l-7 6q9 25 29 35q76 -63 162 -63q41 0 79.5 14.5t74 45.5t62.5 87
t40 131l174 1030q4 4 20 4q11 0 19 -4l-175 -1030q-15 -88 -46.5 -152.5t-73.5 -99.5t-85.5 -51t-91.5 -16z" />
    <glyph glyph-name="k" unicode="k" horiz-adv-x="983" 
d="M905 739q0 -260 -360 -346l252 -393q-12 -4 -31 -4q-15 0 -23 2l-239 373q-12 17 -12 49q180 47 275 118.5t95 192.5q0 98 -73 154.5t-209 56.5q-99 0 -164.5 -14t-134.5 -45l-156 -883q-12 -4 -23 -4q-10 0 -18 4l238 1346q8 4 20 4t20 -4l-73 -422q118 59 297 59
q148 0 233.5 -67t85.5 -177z" />
    <glyph glyph-name="l" unicode="l" horiz-adv-x="544" 
d="M276 -14q-77 0 -121 40t-44 115q0 34 4 52l202 1157q4 4 19 4q12 0 20 -4l-202 -1162q-4 -28 -4 -43q0 -59 32.5 -89.5t93.5 -30.5q83 0 160 61q21 -14 21 -31q-1 -1 -13 -10t-20.5 -14.5t-26 -15t-34 -15t-40 -10t-47.5 -4.5z" />
    <glyph glyph-name="m" unicode="m" horiz-adv-x="1642" 
d="M1192 983q153 0 227 -71.5t74 -196.5q0 -64 -8 -113l-115 -602q-12 -4 -22 -4q-15 0 -19 4l111 588q10 44 10 114q0 108 -62.5 174t-199.5 66q-87 0 -174 -31t-156 -86q21 -53 21 -120q0 -47 -9 -103l-106 -602q-12 -4 -23 -4q-14 0 -18 4l102 588q11 64 11 104
q0 250 -277 250q-85 0 -163 -18t-124 -41l-155 -883q-12 -4 -23 -4q-10 0 -18 4l157 903q147 80 334 80q204 0 275 -123q163 123 350 123z" />
    <glyph glyph-name="n" unicode="n" horiz-adv-x="1081" 
d="M610 983q163 0 241.5 -73t78.5 -203q0 -43 -10 -105l-107 -602q-12 -4 -22 -4q-15 0 -19 4l107 602q8 44 8 96q0 244 -293 244q-93 0 -182 -19t-140 -42l-155 -881q-12 -4 -23 -4q-10 0 -18 4l157 903q164 80 377 80z" />
    <glyph glyph-name="o" unicode="o" horiz-adv-x="1081" 
d="M471 -18q-177 0 -277 109t-100 298q0 159 59.5 293t175 217.5t265.5 83.5q176 0 270 -111t94 -299q0 -158 -57 -291t-170 -216.5t-260 -83.5zM477 23q103 0 187.5 46.5t138 123.5t82 173t28.5 199q0 170 -80.5 273.5t-244.5 103.5q-108 0 -196 -48t-142 -127t-82.5 -174
t-28.5 -196q0 -171 87 -272.5t251 -101.5z" />
    <glyph glyph-name="p" unicode="p" horiz-adv-x="1071" 
d="M549 983q194 0 298.5 -100t104.5 -277q0 -151 -43 -271.5t-117 -196.5t-170 -116t-206 -40q-177 0 -291 57l-74 -424q-12 -4 -22 -4q-11 0 -19 4l226 1288q153 80 313 80zM422 23q100 0 187 37.5t154.5 107.5t106.5 181.5t39 250.5q0 161 -94 251.5t-280 90.5
q-139 0 -261 -61l-139 -795q103 -63 287 -63z" />
    <glyph glyph-name="q" unicode="q" horiz-adv-x="1071" 
d="M643 983q113 0 186 -19.5t129 -60.5l-227 -1288q-8 -4 -20 -4q-13 0 -21 4l84 467q-127 -100 -307 -100q-171 0 -273 104.5t-102 288.5q0 135 43.5 250t117.5 193t175 121.5t215 43.5zM473 23q190 0 309 110l133 750q-100 59 -280 59q-138 0 -251 -69.5t-180 -198.5
t-67 -293q0 -167 89.5 -262.5t246.5 -95.5z" />
    <glyph glyph-name="r" unicode="r" horiz-adv-x="702" 
d="M582 983q105 0 163 -20q-3 -23 -16 -39q-53 18 -164 18q-82 0 -165 -18t-128 -43l-155 -881q-8 -4 -21 -4q-12 0 -20 4l157 903q156 80 349 80z" />
    <glyph glyph-name="s" unicode="s" horiz-adv-x="858" 
d="M352 -14q-207 0 -327 112q9 22 28 31q113 -104 305 -104q135 0 217 65.5t82 175.5q0 62 -28 104t-72.5 64t-98 38.5t-107.5 33.5t-98.5 41.5t-72.5 70.5t-28 113q0 109 93 180.5t244 71.5q105 0 182.5 -29.5t114.5 -66.5q-8 -21 -26 -33q-110 88 -279 88q-124 0 -206 -60
t-82 -151q0 -52 22 -89t57.5 -56.5t81 -36.5t93 -28t93 -31t81 -45t57.5 -71t22 -108q0 -129 -97 -204.5t-251 -75.5z" />
    <glyph glyph-name="t" unicode="t" horiz-adv-x="724" 
d="M365 922l-111 -627q-12 -55 -12 -119q0 -79 47 -116t123 -37q65 0 106 14.5t96 48.5q19 -13 19 -33q-1 0 -17 -9.5t-26.5 -15.5t-33 -15.5t-43 -15.5t-49.5 -10.5t-58 -4.5q-91 0 -148 46t-57 138q0 62 8 106l115 650h-234v10q0 12 6 24h234l47 265q8 4 20 4q13 0 21 -4
l-47 -265h370l2 -10q0 -12 -8 -24h-370z" />
    <glyph glyph-name="u" unicode="u" horiz-adv-x="1069" 
d="M944 952q13 0 21 -4l-158 -891q-168 -80 -371 -80q-159 0 -236 72t-77 203q0 40 10 98l105 598q12 4 22 4q13 0 21 -4l-105 -594q-10 -55 -10 -94q0 -242 278 -242q170 0 326 66l154 864q8 4 20 4z" />
    <glyph glyph-name="v" unicode="v" horiz-adv-x="956" 
d="M852 958q31 -79 31 -184q0 -111 -82.5 -264.5t-209.5 -293t-257 -220.5q-12 -4 -25 -4q-16 0 -24 4q-50 147 -96.5 443t-47.5 509q11 2 25 2q6 0 10 -0.5t5.5 -1t2.5 -0.5q0 -204 42.5 -493t78.5 -402q2 -4 5 -14t5 -14q12 9 23 20q127 87 244 221.5t188.5 273
t71.5 236.5q0 64 -8.5 101.5t-28.5 80.5l21 3h1q10 0 25 -3z" />
    <glyph glyph-name="w" unicode="w" horiz-adv-x="1484" 
d="M1376 963q31 -70 31 -185q0 -90 -45.5 -207t-115 -225t-150 -202t-152.5 -148q-12 -4 -24 -4q-17 0 -25 4q-37 102 -76.5 292.5t-62.5 381.5q-39 -188 -160 -381.5t-244 -292.5q-12 -4 -24 -4q-17 0 -25 4q-56 146 -109.5 442.5t-56.5 509.5q11 2 25 2q6 0 10 -0.5
t5.5 -1t2.5 -0.5q1 -206 51.5 -495t92.5 -400q2 -4 5 -14t5 -14q8 6 22 20q148 140 266.5 368.5t118.5 401.5q-6 70 -6 133q11 2 25 2q6 0 10 -0.5t5.5 -1t2.5 -0.5q-1 -217 45.5 -497t91.5 -398q2 -4 3.5 -8.5t4 -10t3.5 -9.5q8 6 22 20q161 143 289.5 360t128.5 375
q0 64 -8.5 102t-28.5 81l24 2h1q12 0 22 -2z" />
    <glyph glyph-name="x" unicode="x" horiz-adv-x="892" 
d="M881 956l-418 -471l285 -481q-5 -2 -19 -6q-8 -2 -24 -2l-275 461l-430 -463q-28 0 -43 6l453 494l-260 456q6 3 18 6q8 2 25 2l247 -438l396 445q22 0 45 -9z" />
    <glyph glyph-name="y" unicode="y" horiz-adv-x="1073" 
d="M942 952q15 0 19 -4l-166 -944q-34 -190 -144 -290.5t-291 -100.5q-227 0 -325 127q11 26 33 29q94 -117 299 -117q161 0 259 91.5t128 260.5l22 125q-152 -94 -342 -94q-183 0 -253.5 99t-39.5 274l97 540q8 4 20 4q13 0 21 -4l-97 -540q-60 -332 271 -332q166 0 329 96
l138 776q12 4 22 4z" />
    <glyph glyph-name="z" unicode="z" horiz-adv-x="944" 
d="M862 940q0 -17 -20 -37l-709 -778q137 -107 338 -107q176 0 332 72q14 -11 14 -33q-151 -75 -348 -75q-216 0 -367 112l-96 -106q-22 0 -22 16q0 17 32 49l764 840l23 20h-664q-4 17 6 37h715q2 -2 2 -10z" />
    <glyph glyph-name="braceleft" unicode="{" horiz-adv-x="550" 
d="M631 1405q3 -20 -6 -39h-68q-67 0 -105 -49.5t-57 -155.5l-71 -409q-36 -204 -154 -226q110 -18 74 -225l-76 -426q-17 -97 4.5 -142.5t87.5 -45.5h68q6 -19 -6 -39h-68q-57 0 -90.5 31t-39 81.5t4.5 114.5l74 426q19 106 -0.5 155.5t-83.5 49.5h-49q-2 4 -2 14
q0 11 8 27h49q64 0 101.5 49.5t56.5 155.5l71 409q19 108 72 176t137 68h68z" />
    <glyph glyph-name="bar" unicode="|" horiz-adv-x="448" 
d="M45 -348l303 1728q9 4 22 4t19 -4l-303 -1728q-9 -4 -22 -4t-19 4z" />
    <glyph glyph-name="braceright" unicode="}" horiz-adv-x="550" 
d="M471 547q2 -4 2 -15q0 -9 -10 -26h-47q-64 0 -101.5 -49.5t-56.5 -155.5l-76 -426q-19 -102 -70 -164.5t-135 -62.5h-67q-8 19 6 39h68q65 0 102.5 45t54.5 143l76 426q36 207 152 225q-108 18 -72 226l72 409q19 105 -2 155t-86 50h-68q-7 20 6 39h68q84 0 113 -68
t10 -176l-72 -409q-19 -106 0.5 -155.5t83.5 -49.5h49z" />
    <glyph glyph-name="asciitilde" unicode="~" horiz-adv-x="1028" 
d="M166 371q-23 0 -35 12q70 119 215 119q53 0 109.5 -23t107.5 -46t90 -23q119 0 172 92q22 0 35 -13q-70 -118 -215 -118q-58 0 -155 46t-152 46q-117 0 -172 -92z" />
    <glyph glyph-name="uni00A0" unicode="&#xa0;" horiz-adv-x="532" 
 />
    <glyph glyph-name="exclamdown" unicode="&#xa1;" horiz-adv-x="413" 
d="M266 879q-22 0 -38.5 15.5t-16.5 37.5t16.5 38.5t38.5 16.5t37.5 -16.5t15.5 -38.5t-15.5 -37.5t-37.5 -15.5zM47 -358q-8 0 -20 4q108 609 188 1016q4 2 12 2q9 0 13 -2q-84 -527 -170 -1016q-16 -4 -23 -4z" />
    <glyph glyph-name="cent" unicode="&#xa2;" horiz-adv-x="970" 
d="M664 1108q176 0 280 -104q-9 -18 -31 -29q-45 45 -104.5 69.5t-153.5 24.5h-4l-149 -876h18q89 0 156 25.5t135 76.5q20 -11 20 -33q-80 -55 -151 -81.5t-166 -26.5h-18l-37 -209q-6 -2 -21 -2q-12 0 -18 2l37 211q-147 16 -236.5 113t-89.5 270q0 133 41.5 240.5
t111.5 175.5t156 106t181 45l38 223q6 2 19 2q12 0 18 -2l-39 -221h7zM463 197l151 870q-190 -15 -314 -157.5t-124 -364.5q0 -153 77.5 -243t209.5 -105z" />
    <glyph glyph-name="sterling" unicode="&#xa3;" horiz-adv-x="1052" 
d="M692 1343q201 0 299 -114q-11 -26 -30 -33q-46 51 -110 79t-167 28q-167 0 -267 -115.5t-100 -292.5q0 -137 -6 -242h389q3 -22 -6 -39h-387q-7 -85 -20.5 -158.5t-24 -117.5t-35 -103t-34 -78t-41.5 -81q-11 -33 -11 -35h756l2 -14q0 -10 -10 -27h-801q0 51 35 109
q64 105 97 213t46 292h-151q-2 14 6 39h147q6 102 6 230q0 111 33 200t90.5 145t132.5 85.5t162 29.5z" />
    <glyph glyph-name="currency" unicode="&#xa4;" horiz-adv-x="1214" 
d="M582 166q-201 0 -314 125l-133 -117q-15 6 -22 27l133 116q-74 99 -74 248q0 116 41 217.5t115 175.5l-84 101q10 19 30 26l84 -98q133 107 312 107q191 0 303 -127l135 116q15 -9 22 -26l-135 -117q72 -106 72 -246q0 -123 -41.5 -228.5t-120.5 -178.5l82 -97
q-13 -19 -31 -28l-82 98q-124 -94 -292 -94zM588 207q106 0 191 38t138.5 104.5t82 153.5t28.5 187q0 167 -102 265t-264 98q-134 0 -237.5 -66t-157.5 -175t-54 -241q0 -171 103.5 -267.5t271.5 -96.5z" />
    <glyph glyph-name="yen" unicode="&#xa5;" horiz-adv-x="1067" 
d="M590 618h268q0 -2 1 -6t1 -6q0 -10 -8 -26h-293l-33 -195h291q2 -2 2 -10q0 -9 -8 -29h-293l-61 -346q-8 -4 -21 -4q-12 0 -20 4l61 346h-295q-2 4 -2 10q0 13 8 29h295l33 195h-293q-2 2 -2 10t8 28h271l-312 687q20 4 39 4h9l303 -674l6 -17l10 17l528 674h15
q16 0 32 -4z" />
    <glyph glyph-name="brokenbar" unicode="&#xa6;" horiz-adv-x="448" 
d="M225 676l123 704q9 4 22 4t19 -4l-123 -704q-22 -11 -41 0zM45 -348l123 704q22 11 41 0l-123 -704q-9 -4 -22 -4t-19 4z" />
    <glyph glyph-name="section" unicode="&#xa7;" horiz-adv-x="1028" 
d="M500 289l-236 282q-94 108 -94 260q0 141 68.5 259t185 185.5t252.5 67.5q64 0 116 -11t91 -32t63 -39t55 -45l3.5 -3.5t3.5 -3t4 -3.5q-10 -20 -31 -32q-29 28 -40.5 37.5t-44 32.5t-59.5 33t-71.5 19t-95.5 9q-125 0 -231 -62t-168 -171.5t-62 -240.5
q0 -63 21.5 -115.5t68.5 -111.5l233 -287q-10 -20 -32 -28zM356 -213q-54 0 -102.5 10t-77.5 20t-65 34.5t-48 34.5t-43 38q7 20 29 33q34 -32 52.5 -47t58.5 -39t89.5 -34.5t112.5 -10.5q125 0 230.5 62t167 170.5t61.5 240.5q0 64 -21 116.5t-67 110.5l-233 287
q7 21 32 29l236 -283q94 -113 94 -260q0 -141 -68.5 -259t-185 -185.5t-252.5 -67.5z" />
    <glyph glyph-name="dieresis" unicode="&#xa8;" horiz-adv-x="634" 
d="M338 1186q-21 0 -36 15t-15 36q0 19 15.5 34t35.5 15t34.5 -15t14.5 -34q0 -22 -14.5 -36.5t-34.5 -14.5zM737 1186q-19 0 -34 15t-15 36q0 19 15 34t34 15q21 0 36 -15t15 -34q0 -22 -14.5 -36.5t-36.5 -14.5z" />
    <glyph glyph-name="copyright" unicode="&#xa9;" horiz-adv-x="1495" 
d="M684 -37q-128 0 -233 43.5t-174.5 119t-107.5 178t-38 220.5q0 226 91 403t254.5 275t373.5 98q164 0 287 -75t186 -201.5t63 -284.5q0 -175 -52 -321t-144.5 -245.5t-222.5 -154.5t-283 -55zM690 2q143 0 264.5 52t208.5 146t136 231t49 302q0 228 -138 378.5
t-366 150.5q-198 0 -351 -92.5t-237 -259t-84 -380.5q0 -228 139.5 -378t378.5 -150zM717 242q-138 0 -219.5 86t-81.5 239q0 101 33.5 186t89.5 141.5t129.5 88t154.5 31.5q148 0 234 -82q-9 -24 -31 -35q-72 76 -209 76q-107 0 -190 -56t-125.5 -146.5t-42.5 -197.5
q0 -134 68.5 -212t195.5 -78q145 0 250 102q20 -13 20 -35q-66 -56 -126 -82t-150 -26z" />
    <glyph glyph-name="ordfeminine" unicode="&#xaa;" horiz-adv-x="741" 
d="M496 1362q106 0 161.5 -55.5t34.5 -169.5l-67 -385q-103 -54 -242 -54q-100 0 -154.5 46t-54.5 122q0 112 79.5 174t199.5 62q106 0 186 -53l14 77q19 102 -28 150.5t-138 48.5q-107 0 -194 -68q-19 9 -19 27q15 13 38 28t75.5 32.5t108.5 17.5zM590 772l43 238
q-79 55 -187 55q-109 0 -170 -53.5t-61 -134.5q0 -65 44 -104.5t130 -39.5q112 0 201 39z" />
    <glyph glyph-name="guillemotleft" unicode="&#xab;" horiz-adv-x="755" 
d="M281 246l-185 278l285 287q14 -5 16 -20l-241 -265l151 -258q-7 -14 -26 -22zM526 246l-184 278l285 287q14 -5 16 -20l-242 -265l152 -258q-7 -13 -27 -22z" />
    <glyph glyph-name="registered" unicode="&#xae;" horiz-adv-x="1492" 
d="M887 1507q164 0 287 -75t186 -201.5t63 -284.5q0 -175 -52 -321t-144.5 -245.5t-222.5 -154.5t-283 -55q-128 0 -233 43.5t-174.5 119t-107.5 178t-38 220.5q0 226 90.5 403t254.5 275t374 98zM727 209q142 0 263 52t207.5 146t135.5 231t49 302q0 149 -59.5 268
t-175 189.5t-268.5 70.5q-197 0 -349.5 -92t-236.5 -258.5t-84 -380.5q0 -228 139.5 -378t378.5 -150zM842 1249q123 0 187.5 -55t64.5 -150q0 -94 -54 -160t-151 -91l121 -334q-24 -4 -33 -4h-12l-123 327q-40 -4 -66 -4q-89 0 -170 19l-59 -334q-12 -4 -21 -4q-8 0 -20 4
l131 737l4 19q103 30 201 30zM784 819q138 3 202.5 61.5t64.5 155.5q0 77 -54 124.5t-163 47.5q-90 0 -158 -18l-62 -350q62 -24 170 -21z" />
    <glyph glyph-name="macron" unicode="&#xaf;" horiz-adv-x="606" 
d="M272 1184q-4 0 -4 6q0 12 11 29h483q2 -4 2 -11q0 -16 -8 -24h-484z" />
    <glyph glyph-name="degree" unicode="&#xb0;" horiz-adv-x="679" 
d="M440 932q-94 0 -159.5 65.5t-65.5 159.5t65.5 159.5t159.5 65.5t160 -65.5t66 -159.5t-66 -159.5t-160 -65.5zM440 971q77 0 132 55t55 131t-55 131t-132 55q-76 0 -131 -54.5t-55 -131.5t55 -131.5t131 -54.5z" />
    <glyph glyph-name="plusminus" unicode="&#xb1;" horiz-adv-x="1019" 
d="M881 616q3 -1 2.5 -9t-3.5 -17.5t-6 -9.5h-339l-64 -359q-21 -10 -37 -2l64 361h-344q-4 8 -2 19t8 17h344l63 361q0 5 18.5 5t18.5 -5l-63 -361h340zM784 66q3 -1 2.5 -9.5t-3 -18t-5.5 -9.5h-723q-3 7 -1.5 19t7.5 18h723z" />
    <glyph glyph-name="acute" unicode="&#xb4;" horiz-adv-x="409" 
d="M260 1096q-13 8 -16 24l334 260q19 -11 22 -34z" />
    <glyph glyph-name="paragraph" unicode="&#xb6;" horiz-adv-x="1054" 
d="M971 1280l-2 -18l-285 -1610q-12 -4 -20 -4q-9 0 -21 4l154 866q-108 -29 -256 -29q-204 0 -311 93.5t-107 259.5q0 219 145.5 352t405.5 133q164 0 297 -47zM549 530q156 0 256 31l121 690q-120 35 -258 35q-243 0 -372.5 -124t-129.5 -318q0 -148 95.5 -231t287.5 -83z
M483 295q12 4 21 4q12 0 20 -4l-112 -643q-12 -4 -23 -4q-10 0 -18 4z" />
    <glyph glyph-name="periodcentered" unicode="&#xb7;" horiz-adv-x="421" 
d="M227 621q-21 0 -37 15t-16 38q0 21 16 37t37 16q23 0 39.5 -15.5t16.5 -37.5q0 -23 -16 -38t-40 -15z" />
    <glyph glyph-name="cedilla" unicode="&#xb8;" horiz-adv-x="399" 
d="M147 0h41l-36 -98q79 -15 116 -42.5t37 -86.5q0 -79 -69.5 -119.5t-157.5 -40.5q-79 0 -103 12q3 23 17 37q27 -10 92 -10q74 0 126 29.5t52 87.5q0 49 -32.5 67t-131.5 37z" />
    <glyph glyph-name="ordmasculine" unicode="&#xba;" horiz-adv-x="829" 
d="M461 700q-124 0 -194 78t-70 209q0 168 93.5 271.5t241.5 103.5q122 0 192.5 -78t70.5 -209q0 -167 -93 -271t-241 -104zM467 737q134 0 211.5 94t77.5 238q0 118 -59 186t-173 68q-134 0 -211 -93.5t-77 -236.5q0 -117 59 -186.5t172 -69.5z" />
    <glyph glyph-name="guillemotright" unicode="&#xbb;" horiz-adv-x="753" 
d="M117 246q-17 10 -19 22l242 254l-147 269q10 15 24 20l182 -287zM362 246q-16 10 -18 22l242 254l-148 269q9 14 25 20l182 -287z" />
    <glyph glyph-name="onequarter" unicode="&#xbc;" horiz-adv-x="1409" 
d="M1251 1352q25 6 49 0l-1189 -1450q-31 -6 -50 0zM389 1268l-199 -103q-16 16 -16 35q202 104 223 111q13 4 29 4q10 0 12 -2l-135 -774q-4 -2 -20 -2q-17 0 -21 2zM1223 473l-41 -237h102v-5q0 -17 -8 -36h-102l-33 -195q-8 -2 -21 -2q-14 0 -20 2l35 195h-369
q-12 50 16 88l353 503q28 0 41 -16l-342 -481q-25 -32 -23 -53h330l43 237q6 2 20 2q11 0 19 -2z" />
    <glyph glyph-name="onehalf" unicode="&#xbd;" horiz-adv-x="1439" 
d="M1251 1352q28 6 49 0l-1189 -1450q-22 -6 -50 0zM389 1268l-199 -103q-16 16 -16 35q202 104 223 111q13 4 29 4q10 0 12 -2l-135 -774q-4 -2 -20 -2q-17 0 -21 2zM834 37l28 4h420q0 -23 -6 -41h-498q0 1 -1 5.5t-1 6.5q0 18 25 39q317 281 390 363.5t73 173.5
q0 65 -48 107t-118 42q-123 0 -197 -82q-22 3 -22 23q38 43 96.5 71.5t130.5 28.5q83 0 142 -50.5t59 -139.5q0 -101 -79.5 -192.5t-306.5 -285.5q-46 -40 -71 -61z" />
    <glyph glyph-name="threequarters" unicode="&#xbe;" horiz-adv-x="1466" 
d="M1380 1352q25 6 50 0l-1190 -1450q-28 -6 -50 0zM635 831q0 -71 -26.5 -126.5t-70.5 -88t-94.5 -49t-103.5 -16.5q-153 0 -225 86q8 17 30 29q29 -28 45.5 -40t57 -23t100.5 -11q96 0 170 62.5t74 166.5q0 92 -55 136t-168 44h-37q0 1 -1 5t-1 6q0 15 20 35l246 227h-395
q-3 23 6 41h463q4 -23 -21 -45l-256 -230q116 0 179 -51.5t63 -157.5zM1276 473l-43 -237h104v-7q0 -10 -8 -34h-102l-35 -195q-8 -2 -21 -2q-12 0 -18 2l33 195h-367q-12 49 17 88l354 503q23 0 39 -16l-342 -481q-25 -36 -23 -53h330l41 237q8 2 20 2q13 0 21 -2z" />
    <glyph glyph-name="questiondown" unicode="&#xbf;" horiz-adv-x="776" 
d="M465 864q-22 0 -38.5 15.5t-16.5 38.5q0 22 16.5 37.5t38.5 15.5t37.5 -15.5t15.5 -37.5q0 -23 -15.5 -38.5t-37.5 -15.5zM307 -346q-149 0 -233.5 75t-83.5 212q1 70 23.5 126.5t59.5 95.5t81.5 74t91 71.5t87 77.5t71 103t40.5 138q4 0 11.5 1t11.5 1q2 0 6 -1t6 -1
q-9 -83 -38 -149.5t-69 -110t-86 -80t-90 -69.5t-80.5 -69.5t-58.5 -89.5t-22 -120q0 -112 71.5 -178t198.5 -66q140 0 240 78q20 -9 20 -27q-123 -92 -258 -92z" />
    <glyph glyph-name="Agrave" unicode="&#xc0;" horiz-adv-x="1126" 
d="M874 1442q-3 -16 -16 -29l-299 193q6 23 25 34zM709 1315l282 -1313q-15 -6 -35 -6h-8l-94 442h-618l-242 -440h-10q-23 0 -33 4l721 1313q6 2 18 2q13 0 19 -2zM256 477h590l-152 723l-10 64l-33 -66z" />
    <glyph glyph-name="Aacute" unicode="&#xc1;" horiz-adv-x="1126" 
d="M901 1602l-366 -193q-10 10 -13 29l361 198q15 -6 18 -34zM709 1315l282 -1313q-15 -6 -35 -6h-8l-94 442h-618l-242 -440h-10q-23 0 -33 4l721 1313q6 2 18 2q13 0 19 -2zM256 477h590l-152 723l-10 64l-33 -66z" />
    <glyph glyph-name="Acircumflex" unicode="&#xc2;" horiz-adv-x="1126" 
d="M467 1382q-15 8 -18 23l268 233q21 6 41 0l184 -233q-8 -13 -24 -21l-187 215zM709 1315l282 -1313q-15 -6 -35 -6h-8l-94 442h-618l-242 -440h-10q-23 0 -33 4l721 1313q6 2 18 2q13 0 19 -2zM256 477h590l-152 723l-10 64l-33 -66z" />
    <glyph glyph-name="Atilde" unicode="&#xc3;" horiz-adv-x="1126" 
d="M430 1454q-20 4 -29 19q50 66 89 93t106 27q47 0 95 -24t93.5 -48t85.5 -24q76 0 117 96q21 0 33 -12q-26 -59 -67 -91t-89 -32t-96 24t-93 48t-85 24q-49 0 -85 -24.5t-75 -75.5zM690 1317q13 0 19 -2l282 -1313q-15 -6 -35 -6h-8l-94 442h-618l-242 -440h-10
q-23 0 -33 4l721 1313q6 2 18 2zM256 477h590l-152 723l-10 64l-33 -66z" />
    <glyph glyph-name="Adieresis" unicode="&#xc4;" horiz-adv-x="1126" 
d="M516 1491q-20 0 -34.5 14.5t-14.5 36.5q0 19 14.5 34t34.5 15q21 0 36 -15t15 -34q0 -22 -14.5 -36.5t-36.5 -14.5zM918 1491q-21 0 -36.5 15t-15.5 36q0 19 16 34t36 15q21 0 35 -15t14 -34q0 -22 -13.5 -36.5t-35.5 -14.5zM709 1315l282 -1313q-15 -6 -35 -6h-8
l-94 442h-618l-242 -440h-10q-23 0 -33 4l721 1313q6 2 18 2q13 0 19 -2zM256 477h590l-152 723l-10 64l-33 -66z" />
    <glyph glyph-name="Aring" unicode="&#xc5;" horiz-adv-x="1126" 
d="M696 1337q-71 0 -110 42t-39 108q0 86 57.5 144.5t130.5 58.5q71 0 110.5 -42t39.5 -108q0 -93 -55 -148t-134 -55zM729 1651q-57 0 -100 -45.5t-43 -112.5q0 -51 29.5 -84t86.5 -33q64 0 103 42.5t39 117.5q0 51 -28.5 83t-86.5 32zM709 1315l282 -1313q-15 -6 -35 -6
h-8l-94 442h-618l-242 -440h-10q-23 0 -33 4l721 1313q6 2 18 2q13 0 19 -2zM256 477h590l-152 723l-10 64l-33 -66z" />
    <glyph glyph-name="AE" unicode="&#xc6;" horiz-adv-x="1521" 
d="M1528 1276h-576l-114 -660h516q2 -22 -8 -38h-517l-94 -539h604q4 -22 -8 -39h-645l102 578h-397l-436 -582h-8q-23 0 -33 4l987 1315h633q5 -23 -6 -39zM795 616l112 633l2 21l-14 -21l-475 -633h375z" />
    <glyph glyph-name="Ccedilla" unicode="&#xc7;" horiz-adv-x="1185" 
d="M825 1341q237 0 379 -145q-12 -18 -30 -27q-131 131 -355 131q-147 0 -269.5 -61t-203.5 -166.5t-125.5 -246t-44.5 -300.5q0 -237 117 -371.5t338 -134.5q247 0 391 134q19 -5 22 -29q-164 -142 -413 -145l-29 -78q79 -15 116.5 -42.5t37.5 -86.5q0 -54 -37 -92
t-86.5 -53t-104.5 -15q-78 0 -102 12q4 25 16 37q27 -10 93 -10q74 0 126 29.5t52 87.5q0 49 -32.5 67t-131.5 37l41 107q-221 10 -339 155t-118 389q0 229 84 414t243 294t365 109z" />
    <glyph glyph-name="Egrave" unicode="&#xc8;" horiz-adv-x="1042" 
d="M895 1442q-3 -16 -16 -29l-299 193q6 24 24 34zM1049 1276h-674l-101 -569h615q5 -23 -6 -39h-615l-110 -629h702q4 -20 -8 -39h-741l231 1315h713q7 -20 -6 -39z" />
    <glyph glyph-name="Eacute" unicode="&#xc9;" horiz-adv-x="1042" 
d="M922 1602l-367 -193q-9 9 -12 29l360 198q16 -7 19 -34zM1049 1276h-674l-101 -569h615q5 -23 -6 -39h-615l-110 -629h702q4 -20 -8 -39h-741l231 1315h713q7 -20 -6 -39z" />
    <glyph glyph-name="Ecircumflex" unicode="&#xca;" horiz-adv-x="1042" 
d="M487 1382q-15 8 -18 23l268 233q20 6 41 0l185 -233q-7 -12 -25 -21l-186 215zM1049 1276h-674l-101 -569h615q5 -23 -6 -39h-615l-110 -629h702q4 -20 -8 -39h-741l231 1315h713q7 -20 -6 -39z" />
    <glyph glyph-name="Edieresis" unicode="&#xcb;" horiz-adv-x="1042" 
d="M537 1491q-21 0 -35.5 14.5t-14.5 36.5q0 19 15 34t35 15q21 0 36 -15t15 -34q0 -22 -14.5 -36.5t-36.5 -14.5zM938 1491q-21 0 -36 15t-15 36q0 19 15.5 34t35.5 15q21 0 35 -15t14 -34q0 -22 -13.5 -36.5t-35.5 -14.5zM1049 1276h-674l-101 -569h615q5 -23 -6 -39h-615
l-110 -629h702q4 -20 -8 -39h-741l231 1315h713q7 -20 -6 -39z" />
    <glyph glyph-name="Igrave" unicode="&#xcc;" horiz-adv-x="458" 
d="M545 1413l-299 193q6 24 24 34l291 -198q-3 -16 -16 -29zM131 -4q-12 0 -20 4l231 1315q12 4 23 4q10 0 18 -4l-231 -1315q-8 -4 -21 -4z" />
    <glyph glyph-name="Iacute" unicode="&#xcd;" horiz-adv-x="458" 
d="M221 1409q-9 9 -12 29l360 198q16 -7 19 -34zM131 -4q-12 0 -20 4l231 1315q12 4 23 4q10 0 18 -4l-231 -1315q-8 -4 -21 -4z" />
    <glyph glyph-name="Icircumflex" unicode="&#xce;" horiz-adv-x="458" 
d="M442 1640l148 -235q-7 -12 -25 -21l-145 215l-223 -217q-17 6 -23 21l236 237q16 3 32 0zM131 -4q-12 0 -20 4l231 1315q12 4 23 4q10 0 18 -4l-231 -1315q-8 -4 -21 -4z" />
    <glyph glyph-name="Idieresis" unicode="&#xcf;" horiz-adv-x="458" 
d="M244 1491q-19 0 -34 15t-15 36q0 19 15 34t34 15q21 0 36 -15t15 -34q0 -22 -14.5 -36.5t-36.5 -14.5zM563 1491q-20 0 -34.5 14.5t-14.5 36.5q0 19 14.5 34t34.5 15q21 0 36 -15t15 -34q0 -22 -14.5 -36.5t-36.5 -14.5zM131 -4q-12 0 -20 4l231 1315q12 4 23 4
q10 0 18 -4l-231 -1315q-8 -4 -21 -4z" />
    <glyph glyph-name="Eth" unicode="&#xd0;" horiz-adv-x="1331" 
d="M635 1333q289 0 444.5 -147.5t155.5 -415.5q0 -119 -31 -232t-97 -214t-159 -177t-226 -120.5t-290 -44.5q-177 0 -321 18l8 47l104 596h-182q-4 19 6 31h182l111 633q156 26 295 26zM440 23q142 0 264.5 40t211 110.5t151.5 164.5t94 202t31 224q0 255 -145.5 391.5
t-417.5 136.5q-149 0 -254 -18l-105 -600h203q6 -19 -6 -31h-203l-104 -602q135 -18 280 -18z" />
    <glyph glyph-name="Ntilde" unicode="&#xd1;" horiz-adv-x="1331" 
d="M555 1454q-20 4 -29 19q50 66 89 93t106 27q47 0 95 -24t93.5 -48t85.5 -24q76 0 117 96q21 0 33 -12q-26 -59 -67 -91t-89 -32t-96 24t-93 48t-85 24q-49 0 -85 -24.5t-75 -75.5zM1235 1323q12 0 20 -4l-231 -1315q-12 -6 -41 -6l-596 1214l-16 35l-6 -41l-213 -1206
q-8 -4 -21 -4q-12 0 -20 4l231 1313q24 9 41 6l602 -1233l8 -20l4 26l217 1227q8 4 21 4z" />
    <glyph glyph-name="Ograve" unicode="&#xd2;" horiz-adv-x="1382" 
d="M952 1413l-299 193q6 23 25 34l291 -198q-2 -14 -17 -29zM635 -20q-242 0 -371 147t-129 395q0 178 48.5 330.5t133 259.5t203.5 168t256 61q240 0 372 -150.5t132 -393.5q0 -375 -176 -596t-469 -221zM643 20q274 0 434 212.5t160 564.5q0 229 -121.5 366t-347.5 137
q-172 0 -307 -101t-209 -277.5t-74 -395.5q0 -235 119 -370.5t346 -135.5z" />
    <glyph glyph-name="Oacute" unicode="&#xd3;" horiz-adv-x="1382" 
d="M629 1409q-10 10 -13 29l361 198q15 -6 18 -34zM635 -20q-242 0 -371 147t-129 395q0 178 48.5 330.5t133 259.5t203.5 168t256 61q240 0 372 -150.5t132 -393.5q0 -375 -176 -596t-469 -221zM643 20q274 0 434 212.5t160 564.5q0 229 -121.5 366t-347.5 137
q-172 0 -307 -101t-209 -277.5t-74 -395.5q0 -235 119 -370.5t346 -135.5z" />
    <glyph glyph-name="Ocircumflex" unicode="&#xd4;" horiz-adv-x="1382" 
d="M852 1638l184 -233q-8 -13 -24 -21l-187 215l-264 -217q-15 8 -18 23l268 233q21 6 41 0zM635 -20q-242 0 -371 147t-129 395q0 178 48.5 330.5t133 259.5t203.5 168t256 61q240 0 372 -150.5t132 -393.5q0 -375 -176 -596t-469 -221zM643 20q274 0 434 212.5t160 564.5
q0 229 -121.5 366t-347.5 137q-172 0 -307 -101t-209 -277.5t-74 -395.5q0 -235 119 -370.5t346 -135.5z" />
    <glyph glyph-name="Otilde" unicode="&#xd5;" horiz-adv-x="1382" 
d="M524 1454q-19 4 -28 19q50 66 88.5 93t105.5 27q48 0 96 -24t93.5 -48t85.5 -24q75 0 116 96q21 0 33 -12q-26 -59 -67 -91t-89 -32t-96 24t-93 48t-85 24q-49 0 -85 -24.5t-75 -75.5zM635 -20q-242 0 -371 147t-129 395q0 178 48.5 330.5t133 259.5t203.5 168t256 61
q240 0 372 -150.5t132 -393.5q0 -375 -176 -596t-469 -221zM643 20q274 0 434 212.5t160 564.5q0 229 -121.5 366t-347.5 137q-172 0 -307 -101t-209 -277.5t-74 -395.5q0 -235 119 -370.5t346 -135.5z" />
    <glyph glyph-name="Odieresis" unicode="&#xd6;" horiz-adv-x="1382" 
d="M610 1491q-20 0 -34.5 14.5t-14.5 36.5q0 19 14.5 34t34.5 15q21 0 36.5 -15t15.5 -34q0 -22 -15 -36.5t-37 -14.5zM1012 1491q-21 0 -36 15t-15 36q0 19 15.5 34t35.5 15q21 0 35 -15t14 -34q0 -22 -13.5 -36.5t-35.5 -14.5zM635 -20q-242 0 -371 147t-129 395
q0 178 48.5 330.5t133 259.5t203.5 168t256 61q240 0 372 -150.5t132 -393.5q0 -375 -176 -596t-469 -221zM643 20q274 0 434 212.5t160 564.5q0 229 -121.5 366t-347.5 137q-172 0 -307 -101t-209 -277.5t-74 -395.5q0 -235 119 -370.5t346 -135.5z" />
    <glyph glyph-name="multiply" unicode="&#xd7;" horiz-adv-x="851" 
d="M727 737l-289 -256l199 -254q-11 -19 -31 -26l-198 254l-287 -254q-21 8 -21 26l287 254l-199 256q12 17 31 27l199 -254l287 254q16 -8 22 -27z" />
    <glyph glyph-name="Oslash" unicode="&#xd8;" horiz-adv-x="1382" 
d="M1124 1217q156 -150 156 -420q0 -375 -176 -596t-469 -221q-174 0 -295 79l-94 -139q-19 3 -29 23l94 139q-87 70 -131.5 183t-44.5 257q0 178 48.5 330.5t133 259.5t203.5 168t256 61q195 0 322 -102l104 156q23 -3 29 -21zM178 526q0 -273 158 -407l737 1085
q-120 96 -305 96q-172 0 -307 -101t-209 -277.5t-74 -395.5zM643 20q274 0 434 212.5t160 564.5q0 249 -137 383l-735 -1084q112 -76 278 -76z" />
    <glyph glyph-name="Ugrave" unicode="&#xd9;" horiz-adv-x="1310" 
d="M965 1413l-299 193q6 24 24 34l291 -198q-3 -16 -16 -29zM569 -20q-196 0 -296.5 103.5t-100.5 285.5q0 72 14 141l142 805q8 4 20 4q13 0 21 -4l-142 -805q-14 -82 -14 -135q0 -167 89 -261t273 -94q116 0 203 35.5t144 103.5t92 153t55 198l141 805q8 4 21 4
q12 0 20 -4l-141 -805q-95 -530 -541 -530z" />
    <glyph glyph-name="Uacute" unicode="&#xda;" horiz-adv-x="1310" 
d="M641 1409q-9 9 -12 29l360 198q16 -7 19 -34zM569 -20q-196 0 -296.5 103.5t-100.5 285.5q0 72 14 141l142 805q8 4 20 4q13 0 21 -4l-142 -805q-14 -82 -14 -135q0 -167 89 -261t273 -94q116 0 203 35.5t144 103.5t92 153t55 198l141 805q8 4 21 4q12 0 20 -4l-141 -805
q-95 -530 -541 -530z" />
    <glyph glyph-name="Ucircumflex" unicode="&#xdb;" horiz-adv-x="1310" 
d="M864 1638l185 -233q-7 -12 -25 -21l-186 215l-265 -217q-15 8 -18 23l268 233q21 6 41 0zM569 -20q-196 0 -296.5 103.5t-100.5 285.5q0 72 14 141l142 805q8 4 20 4q13 0 21 -4l-142 -805q-14 -82 -14 -135q0 -167 89 -261t273 -94q116 0 203 35.5t144 103.5t92 153
t55 198l141 805q8 4 21 4q12 0 20 -4l-141 -805q-95 -530 -541 -530z" />
    <glyph glyph-name="Udieresis" unicode="&#xdc;" horiz-adv-x="1310" 
d="M623 1491q-21 0 -35.5 14.5t-14.5 36.5q0 19 15 34t35 15q21 0 36 -15t15 -34q0 -22 -14.5 -36.5t-36.5 -14.5zM1024 1491q-21 0 -36 15t-15 36q0 19 15.5 34t35.5 15q21 0 35 -15t14 -34q0 -22 -13.5 -36.5t-35.5 -14.5zM569 -20q-196 0 -296.5 103.5t-100.5 285.5
q0 72 14 141l142 805q8 4 20 4q13 0 21 -4l-142 -805q-14 -82 -14 -135q0 -167 89 -261t273 -94q116 0 203 35.5t144 103.5t92 153t55 198l141 805q8 4 21 4q12 0 20 -4l-141 -805q-95 -530 -541 -530z" />
    <glyph glyph-name="Yacute" unicode="&#xdd;" horiz-adv-x="1071" 
d="M877 1602l-367 -193q-9 9 -12 29l360 198q16 -7 19 -34zM1159 1317l-600 -756l-98 -561q-8 -4 -21 -4q-12 0 -20 4l100 569l-352 748q20 4 35 4h6l330 -705l8 -16l8 16l557 705h14q13 0 33 -4z" />
    <glyph glyph-name="Thorn" unicode="&#xde;" horiz-adv-x="1046" 
d="M588 1079q194 0 294.5 -90.5t100.5 -249.5q0 -204 -136.5 -330t-377.5 -126q-176 0 -262 24l-55 -307q-8 -4 -21 -4q-12 0 -20 4l233 1319q8 4 21 4q12 0 20 -4l-49 -275q122 35 252 35zM477 324q227 0 345 111.5t118 293.5q0 143 -89.5 226t-270.5 83q-136 0 -250 -34
l-117 -654q77 -26 264 -26z" />
    <glyph glyph-name="germandbls" unicode="&#xdf;" horiz-adv-x="1075" 
d="M631 -14q-166 0 -258 104q7 24 30 33q25 -28 48 -46t72.5 -35t113.5 -17q122 0 192 57.5t70 142.5q0 49 -21 89.5t-54.5 69t-73.5 53.5t-80.5 49t-74 50t-54.5 62.5t-21 79.5q0 55 24.5 96.5t63.5 67t86.5 47t94.5 44t86 50.5t63.5 74.5t24.5 107.5q0 88 -67 143.5
t-196 55.5q-165 0 -267.5 -96t-129.5 -254l-178 -1014q-12 -4 -23 -4q-10 0 -18 4l178 1014q31 180 150.5 285.5t296.5 105.5q134 0 215.5 -67t81.5 -169q0 -69 -24.5 -120.5t-63.5 -82t-86.5 -54t-94.5 -43.5t-86 -43t-63.5 -60.5t-24.5 -87.5q0 -39 21 -71t54.5 -55.5
t73.5 -46t80.5 -48.5t74 -56t54.5 -75t21 -101q0 -102 -84.5 -170.5t-226.5 -68.5z" />
    <glyph glyph-name="agrave" unicode="&#xe0;" horiz-adv-x="1062" 
d="M813 1120q-5 -12 -20 -22l-252 250q11 23 32 32zM948 903h2l-159 -903q-20 -7 -43 0l34 190l4 21q-82 -118 -183.5 -173.5t-207.5 -55.5q-61 0 -114.5 21t-98 63t-70.5 113.5t-26 164.5q0 121 33.5 226.5t89.5 180t130 127.5t155.5 79t164.5 26q182 0 289 -80zM406 23
q99 0 203.5 65.5t189.5 196.5l104 596q-85 61 -250 61q-96 0 -188 -39.5t-167 -112t-121 -188t-46 -254.5q0 -156 75.5 -240.5t199.5 -84.5z" />
    <glyph glyph-name="aacute" unicode="&#xe1;" horiz-adv-x="1062" 
d="M512 1096q-13 8 -16 24l333 260q20 -12 23 -34zM948 903h2l-159 -903q-20 -7 -43 0l34 190l4 21q-82 -118 -183.5 -173.5t-207.5 -55.5q-61 0 -114.5 21t-98 63t-70.5 113.5t-26 164.5q0 121 33.5 226.5t89.5 180t130 127.5t155.5 79t164.5 26q182 0 289 -80zM406 23
q99 0 203.5 65.5t189.5 196.5l104 596q-85 61 -250 61q-96 0 -188 -39.5t-167 -112t-121 -188t-46 -254.5q0 -156 75.5 -240.5t199.5 -84.5z" />
    <glyph glyph-name="acircumflex" unicode="&#xe2;" horiz-adv-x="1062" 
d="M426 1096q-15 8 -18 24l276 266q18 6 37 0l184 -266q-7 -11 -24 -20l-181 248zM948 903h2l-159 -903q-20 -7 -43 0l34 190l4 21q-82 -118 -183.5 -173.5t-207.5 -55.5q-61 0 -114.5 21t-98 63t-70.5 113.5t-26 164.5q0 121 33.5 226.5t89.5 180t130 127.5t155.5 79
t164.5 26q182 0 289 -80zM406 23q99 0 203.5 65.5t189.5 196.5l104 596q-85 61 -250 61q-96 0 -188 -39.5t-167 -112t-121 -188t-46 -254.5q0 -156 75.5 -240.5t199.5 -84.5z" />
    <glyph glyph-name="atilde" unicode="&#xe3;" horiz-adv-x="1062" 
d="M408 1169q-21 4 -29 19q48 64 86.5 90.5t105.5 26.5q44 0 88.5 -23.5t86.5 -46.5t79 -23q75 0 117 93q23 0 33 -13q-54 -118 -156 -118q-45 0 -89.5 23t-86 46t-78.5 23q-49 0 -84 -24t-73 -73zM659 983q182 0 289 -80h2l-159 -903q-20 -7 -43 0l34 190l4 21
q-82 -118 -183.5 -173.5t-207.5 -55.5q-61 0 -114.5 21t-98 63t-70.5 113.5t-26 164.5q0 121 33.5 226.5t89.5 180t130 127.5t155.5 79t164.5 26zM406 23q99 0 203.5 65.5t189.5 196.5l104 596q-85 61 -250 61q-96 0 -188 -39.5t-167 -112t-121 -188t-46 -254.5
q0 -156 75.5 -240.5t199.5 -84.5z" />
    <glyph glyph-name="adieresis" unicode="&#xe4;" horiz-adv-x="1062" 
d="M475 1186q-21 0 -36 15t-15 36q0 19 15.5 34t35.5 15t34.5 -15t14.5 -34q0 -22 -14.5 -36.5t-34.5 -14.5zM874 1186q-19 0 -34 15t-15 36q0 19 15 34t34 15q21 0 36.5 -15t15.5 -34q0 -22 -15 -36.5t-37 -14.5zM948 903h2l-159 -903q-20 -7 -43 0l34 190l4 21
q-82 -118 -183.5 -173.5t-207.5 -55.5q-61 0 -114.5 21t-98 63t-70.5 113.5t-26 164.5q0 121 33.5 226.5t89.5 180t130 127.5t155.5 79t164.5 26q182 0 289 -80zM406 23q99 0 203.5 65.5t189.5 196.5l104 596q-85 61 -250 61q-96 0 -188 -39.5t-167 -112t-121 -188
t-46 -254.5q0 -156 75.5 -240.5t199.5 -84.5z" />
    <glyph glyph-name="aring" unicode="&#xe5;" horiz-adv-x="1062" 
d="M653 1055q-71 0 -110 41.5t-39 107.5q0 88 57.5 145.5t132.5 57.5q71 0 110.5 -42t39.5 -108q0 -92 -55.5 -147t-135.5 -55zM686 1368q-57 0 -99 -44.5t-42 -113.5q0 -51 29.5 -83.5t87.5 -32.5q64 0 102.5 42.5t38.5 116.5q0 51 -28.5 83t-88.5 32zM948 903h2l-159 -903
q-20 -7 -43 0l34 190l4 21q-82 -118 -183.5 -173.5t-207.5 -55.5q-61 0 -114.5 21t-98 63t-70.5 113.5t-26 164.5q0 121 33.5 226.5t89.5 180t130 127.5t155.5 79t164.5 26q182 0 289 -80zM406 23q99 0 203.5 65.5t189.5 196.5l104 596q-85 61 -250 61q-96 0 -188 -39.5
t-167 -112t-121 -188t-46 -254.5q0 -156 75.5 -240.5t199.5 -84.5z" />
    <glyph glyph-name="ae" unicode="&#xe6;" horiz-adv-x="1611" 
d="M334 -18q-48 0 -91 17.5t-80 53.5t-59 100.5t-22 149.5q0 180 68 335.5t190.5 250t271.5 94.5q200 0 318 -168q149 168 336 168q121 0 192.5 -62t71.5 -178q0 -159 -125.5 -239t-339.5 -80q-112 0 -250 22l-1 -6l-2.5 -15t-3 -19.5t-2.5 -23t-1 -22.5q0 -172 80.5 -256
t220.5 -84q71 0 135 20.5t94.5 39.5t77.5 55q18 -9 21 -33q-55 -38 -93 -59.5t-104 -41t-139 -19.5q-157 0 -243 90t-87 266q-67 -161 -184.5 -258.5t-249.5 -97.5zM1053 465q201 0 317.5 71.5t116.5 206.5q0 90 -61 145.5t-166 55.5q-40 0 -82.5 -10t-96.5 -41
t-100.5 -79.5t-90 -133.5t-69.5 -195q117 -20 232 -20zM344 23q135 0 266.5 136t167.5 308q40 186 125 311q-102 164 -295 164q-138 0 -249.5 -90t-171.5 -235t-60 -310q0 -139 60 -211.5t157 -72.5z" />
    <glyph glyph-name="ccedilla" unicode="&#xe7;" horiz-adv-x="944" 
d="M602 983q179 0 283 -100q-7 -23 -27 -33q-61 50 -118.5 72t-145.5 22q-207 0 -331 -156.5t-124 -400.5q0 -165 89 -264.5t251 -99.5q164 0 291 106q20 -13 23 -33q-137 -111 -312 -114l-30 -80q79 -15 116 -42.5t37 -86.5q0 -79 -69.5 -119.5t-157.5 -40.5q-79 0 -103 12
q3 23 17 37q27 -10 92 -10q74 0 126 29.5t52 87.5q0 49 -32.5 67t-131.5 37l43 111q-161 9 -252.5 115t-91.5 288q0 140 40.5 254t110.5 188t161 114t194 40z" />
    <glyph glyph-name="egrave" unicode="&#xe8;" horiz-adv-x="970" 
d="M752 1120q-4 -11 -21 -22l-252 250q11 22 33 32zM403 424q-148 0 -262 41q-4 -54 -4 -82q0 -168 89.5 -265.5t246.5 -97.5q103 0 172.5 32.5t128.5 86.5q18 -8 21 -28q-143 -129 -330 -129q-168 0 -270.5 103t-102.5 290q0 141 43 257.5t115 192t165 117t195 41.5
q128 0 203.5 -66t75.5 -165q0 -145 -120 -236.5t-366 -91.5zM604 944q-164 0 -293.5 -118.5t-163.5 -319.5q119 -41 254 -41q116 0 204 22.5t138 62t74.5 87.5t24.5 104q0 84 -61.5 143.5t-176.5 59.5z" />
    <glyph glyph-name="eacute" unicode="&#xe9;" horiz-adv-x="970" 
d="M451 1096q-14 9 -17 24l334 260q20 -12 23 -34zM403 424q-148 0 -262 41q-4 -54 -4 -82q0 -168 89.5 -265.5t246.5 -97.5q103 0 172.5 32.5t128.5 86.5q18 -8 21 -28q-143 -129 -330 -129q-168 0 -270.5 103t-102.5 290q0 141 43 257.5t115 192t165 117t195 41.5
q128 0 203.5 -66t75.5 -165q0 -145 -120 -236.5t-366 -91.5zM604 944q-164 0 -293.5 -118.5t-163.5 -319.5q119 -41 254 -41q116 0 204 22.5t138 62t74.5 87.5t24.5 104q0 84 -61.5 143.5t-176.5 59.5z" />
    <glyph glyph-name="ecircumflex" unicode="&#xea;" horiz-adv-x="970" 
d="M365 1096q-16 8 -19 24l277 266q18 6 36 0l185 -266q-6 -11 -25 -20l-180 248zM403 424q-148 0 -262 41q-4 -54 -4 -82q0 -168 89.5 -265.5t246.5 -97.5q103 0 172.5 32.5t128.5 86.5q18 -8 21 -28q-143 -129 -330 -129q-168 0 -270.5 103t-102.5 290q0 141 43 257.5
t115 192t165 117t195 41.5q128 0 203.5 -66t75.5 -165q0 -145 -120 -236.5t-366 -91.5zM604 944q-164 0 -293.5 -118.5t-163.5 -319.5q119 -41 254 -41q116 0 204 22.5t138 62t74.5 87.5t24.5 104q0 84 -61.5 143.5t-176.5 59.5z" />
    <glyph glyph-name="edieresis" unicode="&#xeb;" horiz-adv-x="970" 
d="M414 1186q-21 0 -36.5 15t-15.5 36q0 19 16 34t36 15t34.5 -15t14.5 -34q0 -22 -14.5 -36.5t-34.5 -14.5zM813 1186q-19 0 -34 15t-15 36q0 19 15 34t34 15q21 0 36 -15t15 -34q0 -22 -14.5 -36.5t-36.5 -14.5zM403 424q-148 0 -262 41q-4 -54 -4 -82q0 -168 89.5 -265.5
t246.5 -97.5q103 0 172.5 32.5t128.5 86.5q18 -8 21 -28q-143 -129 -330 -129q-168 0 -270.5 103t-102.5 290q0 141 43 257.5t115 192t165 117t195 41.5q128 0 203.5 -66t75.5 -165q0 -145 -120 -236.5t-366 -91.5zM604 944q-164 0 -293.5 -118.5t-163.5 -319.5
q119 -41 254 -41q116 0 204 22.5t138 62t74.5 87.5t24.5 104q0 84 -61.5 143.5t-176.5 59.5z" />
    <glyph glyph-name="igrave" unicode="&#xec;" horiz-adv-x="411" 
d="M440 1098l-252 250q11 22 33 32l240 -260q-4 -11 -21 -22zM106 -4q-12 0 -20 4l170 958q10 5 20 5q11 0 21 -5l-170 -958q-8 -4 -21 -4z" />
    <glyph glyph-name="iacute" unicode="&#xed;" horiz-adv-x="411" 
d="M160 1096q-14 9 -17 24l334 260q20 -12 23 -34zM106 -4q-12 0 -20 4l170 958q10 5 20 5q11 0 21 -5l-170 -958q-8 -4 -21 -4z" />
    <glyph glyph-name="icircumflex" unicode="&#xee;" horiz-adv-x="411" 
d="M346 1386l166 -270q-10 -13 -27 -18l-161 250l-248 -252q-12 5 -21 20l256 270q16 3 35 0zM106 -4q-12 0 -20 4l170 958q10 5 20 5q11 0 21 -5l-170 -958q-8 -4 -21 -4z" />
    <glyph glyph-name="idieresis" unicode="&#xef;" horiz-adv-x="411" 
d="M152 1186q-19 0 -34.5 15t-15.5 36q0 19 15.5 34t34.5 15q21 0 36 -15t15 -34q0 -22 -14.5 -36.5t-36.5 -14.5zM471 1186q-20 0 -34.5 14.5t-14.5 36.5q0 19 14.5 34t34.5 15q21 0 36 -15t15 -34q0 -22 -14.5 -36.5t-36.5 -14.5zM106 -4q-12 0 -20 4l170 958q10 5 20 5
q11 0 21 -5l-170 -958q-8 -4 -21 -4z" />
    <glyph glyph-name="eth" unicode="&#xf0;" horiz-adv-x="1054" 
d="M694 1188q124 -111 175 -280t51 -419q0 -220 -129.5 -363.5t-337.5 -143.5q-170 0 -267.5 98.5t-97.5 265.5q0 122 38.5 224t103 169.5t149.5 104.5t178 37q106 0 188.5 -47.5t128.5 -135.5q-41 313 -217 465l-208 -137q-15 8 -15 29l197 129q-83 62 -205 102q3 27 20 41
q136 -51 224 -119l182 119q14 -11 14 -27zM459 23q191 0 306.5 136.5t115.5 346.5q0 145 -89 239.5t-241 94.5q-182 0 -300 -134.5t-118 -343.5q0 -153 84 -246t242 -93z" />
    <glyph glyph-name="ntilde" unicode="&#xf1;" horiz-adv-x="1081" 
d="M373 1169q-21 4 -29 19q48 64 87 90.5t106 26.5q44 0 88.5 -23.5t86.5 -46.5t79 -23q74 0 116 93q23 0 33 -13q-54 -118 -156 -118q-45 0 -89.5 23t-86 46t-78.5 23q-49 0 -84 -24t-73 -73zM610 983q163 0 241.5 -73t78.5 -203q0 -43 -10 -105l-107 -602q-12 -4 -22 -4
q-15 0 -19 4l107 602q8 44 8 96q0 244 -293 244q-93 0 -182 -19t-140 -42l-155 -881q-12 -4 -23 -4q-10 0 -18 4l157 903q164 80 377 80z" />
    <glyph glyph-name="ograve" unicode="&#xf2;" horiz-adv-x="1081" 
d="M735 1098l-252 250q11 22 33 32l240 -260q-4 -11 -21 -22zM471 -18q-177 0 -277 109t-100 298q0 159 59.5 293t175 217.5t265.5 83.5q176 0 270 -111t94 -299q0 -158 -57 -291t-170 -216.5t-260 -83.5zM477 23q103 0 187.5 46.5t138 123.5t82 173t28.5 199
q0 170 -80.5 273.5t-244.5 103.5q-108 0 -196 -48t-142 -127t-82.5 -174t-28.5 -196q0 -171 87 -272.5t251 -101.5z" />
    <glyph glyph-name="oacute" unicode="&#xf3;" horiz-adv-x="1081" 
d="M455 1096q-14 9 -17 24l334 260q20 -12 23 -34zM471 -18q-177 0 -277 109t-100 298q0 159 59.5 293t175 217.5t265.5 83.5q176 0 270 -111t94 -299q0 -158 -57 -291t-170 -216.5t-260 -83.5zM477 23q103 0 187.5 46.5t138 123.5t82 173t28.5 199q0 170 -80.5 273.5
t-244.5 103.5q-108 0 -196 -48t-142 -127t-82.5 -174t-28.5 -196q0 -171 87 -272.5t251 -101.5z" />
    <glyph glyph-name="ocircumflex" unicode="&#xf4;" horiz-adv-x="1081" 
d="M664 1386l184 -266q-6 -11 -25 -20l-180 248l-274 -252q-16 8 -19 24l277 266q19 6 37 0zM471 -18q-177 0 -277 109t-100 298q0 159 59.5 293t175 217.5t265.5 83.5q176 0 270 -111t94 -299q0 -158 -57 -291t-170 -216.5t-260 -83.5zM477 23q103 0 187.5 46.5t138 123.5
t82 173t28.5 199q0 170 -80.5 273.5t-244.5 103.5q-108 0 -196 -48t-142 -127t-82.5 -174t-28.5 -196q0 -171 87 -272.5t251 -101.5z" />
    <glyph glyph-name="otilde" unicode="&#xf5;" horiz-adv-x="1081" 
d="M350 1169q-20 3 -28 19q48 64 86.5 90.5t105.5 26.5q44 0 88.5 -23.5t86.5 -46.5t79 -23q75 0 117 93q23 0 33 -13q-54 -118 -156 -118q-45 0 -89.5 23t-86 46t-78.5 23q-49 0 -85 -24t-73 -73zM471 -18q-177 0 -277 109t-100 298q0 159 59.5 293t175 217.5t265.5 83.5
q176 0 270 -111t94 -299q0 -158 -57 -291t-170 -216.5t-260 -83.5zM477 23q103 0 187.5 46.5t138 123.5t82 173t28.5 199q0 170 -80.5 273.5t-244.5 103.5q-108 0 -196 -48t-142 -127t-82.5 -174t-28.5 -196q0 -171 87 -272.5t251 -101.5z" />
    <glyph glyph-name="odieresis" unicode="&#xf6;" horiz-adv-x="1081" 
d="M418 1186q-21 0 -36 15t-15 36q0 19 15.5 34t35.5 15t34.5 -15t14.5 -34q0 -22 -14.5 -36.5t-34.5 -14.5zM817 1186q-19 0 -34 15t-15 36q0 19 15 34t34 15q21 0 36 -15t15 -34q0 -22 -14.5 -36.5t-36.5 -14.5zM471 -18q-177 0 -277 109t-100 298q0 159 59.5 293
t175 217.5t265.5 83.5q176 0 270 -111t94 -299q0 -158 -57 -291t-170 -216.5t-260 -83.5zM477 23q103 0 187.5 46.5t138 123.5t82 173t28.5 199q0 170 -80.5 273.5t-244.5 103.5q-108 0 -196 -48t-142 -127t-82.5 -174t-28.5 -196q0 -171 87 -272.5t251 -101.5z" />
    <glyph glyph-name="divide" unicode="&#xf7;" horiz-adv-x="1044" 
d="M563 733q-22 0 -37.5 15t-15.5 38q0 22 15.5 38t37.5 16q23 0 38 -16t15 -38q0 -23 -15 -38t-38 -15zM145 463q-2 0 -2 18q6 19 9 19h720q2 0 2 -19q-4 -18 -8 -18h-721zM455 125q-21 0 -37.5 15.5t-16.5 37.5q0 21 16.5 37t37.5 16q23 0 39 -15.5t16 -37.5
q0 -23 -16 -38t-39 -15z" />
    <glyph glyph-name="oslash" unicode="&#xf8;" horiz-adv-x="1081" 
d="M823 911q135 -108 135 -338q0 -158 -57 -291t-170 -216.5t-260 -83.5q-123 0 -209 53l-117 -180q-28 5 -32 18l118 184q-137 109 -137 332q0 159 59.5 293t175 217.5t265.5 83.5q116 0 201 -51l110 172q8 0 19 -5.5t14 -11.5zM139 397q0 -201 117 -303l514 801
q-71 47 -182 47q-108 0 -196 -48t-142 -127t-82.5 -174t-28.5 -196zM477 23q103 0 187.5 46.5t138 123.5t82 173t28.5 199q0 210 -114 307l-512 -798q76 -51 190 -51z" />
    <glyph glyph-name="ugrave" unicode="&#xf9;" horiz-adv-x="1069" 
d="M780 1120q-5 -12 -20 -22l-252 250q11 22 33 32zM944 952q13 0 21 -4l-158 -891q-168 -80 -371 -80q-159 0 -236 72t-77 203q0 40 10 98l105 598q12 4 22 4q13 0 21 -4l-105 -594q-10 -55 -10 -94q0 -242 278 -242q170 0 326 66l154 864q8 4 20 4z" />
    <glyph glyph-name="uacute" unicode="&#xfa;" horiz-adv-x="1069" 
d="M479 1096q-13 8 -16 24l334 260q19 -11 22 -34zM944 952q13 0 21 -4l-158 -891q-168 -80 -371 -80q-159 0 -236 72t-77 203q0 40 10 98l105 598q12 4 22 4q13 0 21 -4l-105 -594q-10 -55 -10 -94q0 -242 278 -242q170 0 326 66l154 864q8 4 20 4z" />
    <glyph glyph-name="ucircumflex" unicode="&#xfb;" horiz-adv-x="1069" 
d="M393 1096q-15 8 -18 24l276 266q19 6 37 0l184 -266q-7 -11 -24 -20l-180 248zM944 952q13 0 21 -4l-158 -891q-168 -80 -371 -80q-159 0 -236 72t-77 203q0 40 10 98l105 598q12 4 22 4q13 0 21 -4l-105 -594q-10 -55 -10 -94q0 -242 278 -242q170 0 326 66l154 864
q8 4 20 4z" />
    <glyph glyph-name="udieresis" unicode="&#xfc;" horiz-adv-x="1069" 
d="M442 1186q-21 0 -36 15t-15 36q0 19 15.5 34t35.5 15t35 -15t15 -34q0 -21 -15 -36t-35 -15zM842 1186q-19 0 -34 15t-15 36q0 19 15 34t34 15q21 0 36 -15t15 -34q0 -22 -14.5 -36.5t-36.5 -14.5zM944 952q13 0 21 -4l-158 -891q-168 -80 -371 -80q-159 0 -236 72
t-77 203q0 40 10 98l105 598q12 4 22 4q13 0 21 -4l-105 -594q-10 -55 -10 -94q0 -242 278 -242q170 0 326 66l154 864q8 4 20 4z" />
    <glyph glyph-name="yacute" unicode="&#xfd;" horiz-adv-x="1073" 
d="M483 1096q-13 8 -16 24l334 260q19 -11 22 -34zM942 952q15 0 19 -4l-166 -944q-34 -190 -144 -290.5t-291 -100.5q-227 0 -325 127q11 26 33 29q94 -117 299 -117q161 0 259 91.5t128 260.5l22 125q-152 -94 -342 -94q-183 0 -253.5 99t-39.5 274l97 540q8 4 20 4
q13 0 21 -4l-97 -540q-60 -332 271 -332q166 0 329 96l138 776q12 4 22 4z" />
    <glyph glyph-name="thorn" unicode="&#xfe;" horiz-adv-x="1077" 
d="M555 983q195 0 299 -98t104 -275q0 -152 -43 -273.5t-117 -198t-170 -116.5t-206 -40q-177 0 -291 57l-74 -424q-12 -4 -22 -4q-11 0 -19 4l226 1286v2h2l78 447q8 4 20 4t20 -4l-73 -424q131 57 266 57zM428 23q100 0 187 37.5t154.5 108t106.5 183t39 252.5
q0 161 -94 249.5t-280 88.5q-144 0 -260 -63l-142 -793q108 -63 289 -63z" />
    <glyph glyph-name="ydieresis" unicode="&#xff;" horiz-adv-x="1073" 
d="M446 1186q-21 0 -36 15t-15 36q0 19 15.5 34t35.5 15t35 -15t15 -34q0 -21 -15 -36t-35 -15zM846 1186q-19 0 -34 15t-15 36q0 19 15 34t34 15q21 0 36 -15t15 -34q0 -22 -14.5 -36.5t-36.5 -14.5zM942 952q15 0 19 -4l-166 -944q-34 -190 -144 -290.5t-291 -100.5
q-227 0 -325 127q11 26 33 29q94 -117 299 -117q161 0 259 91.5t128 260.5l22 125q-152 -94 -342 -94q-183 0 -253.5 99t-39.5 274l97 540q8 4 20 4q13 0 21 -4l-97 -540q-60 -332 271 -332q166 0 329 96l138 776q12 4 22 4z" />
    <glyph glyph-name="Amacron" unicode="&#x100;" horiz-adv-x="1126" 
d="M465 1495q-5 1 -2 13.5t8 21.5h485q3 -6 1.5 -17.5t-7.5 -17.5h-485zM709 1315l282 -1313q-15 -6 -35 -6h-8l-94 442h-618l-242 -440h-10q-23 0 -33 4l721 1313q6 2 18 2q13 0 19 -2zM256 477h590l-152 723l-10 64l-33 -66z" />
    <glyph glyph-name="amacron" unicode="&#x101;" horiz-adv-x="1062" 
d="M424 1184q-4 0 -4 6q0 14 10 29h483q2 -4 2 -11q0 -16 -8 -24h-483zM948 903h2l-159 -903q-20 -7 -43 0l34 190l4 21q-82 -118 -183.5 -173.5t-207.5 -55.5q-61 0 -114.5 21t-98 63t-70.5 113.5t-26 164.5q0 121 33.5 226.5t89.5 180t130 127.5t155.5 79t164.5 26
q182 0 289 -80zM406 23q99 0 203.5 65.5t189.5 196.5l104 596q-85 61 -250 61q-96 0 -188 -39.5t-167 -112t-121 -188t-46 -254.5q0 -156 75.5 -240.5t199.5 -84.5z" />
    <glyph glyph-name="Abreve" unicode="&#x102;" horiz-adv-x="1126" 
d="M705 1430q-90 0 -151.5 55.5t-61.5 156.5q17 7 32 7q4 -87 57 -134t128 -47q80 0 143.5 46t93.5 133q17 0 31 -7q-30 -102 -101.5 -156t-170.5 -54zM709 1315l282 -1313q-15 -6 -35 -6h-8l-94 442h-618l-242 -440h-10q-23 0 -33 4l721 1313q6 2 18 2q13 0 19 -2zM256 477
h590l-152 723l-10 64l-33 -66z" />
    <glyph glyph-name="abreve" unicode="&#x103;" horiz-adv-x="1062" 
d="M633 1112q-40 0 -76 14t-65.5 42t-46 74.5t-13.5 105.5q18 4 35 2q-1 -99 50 -149t126 -50q78 0 147 51.5t97 147.5q11 0 28 -7q-28 -115 -103.5 -173t-178.5 -58zM948 903h2l-159 -903q-20 -7 -43 0l34 190l4 21q-82 -118 -183.5 -173.5t-207.5 -55.5q-61 0 -114.5 21
t-98 63t-70.5 113.5t-26 164.5q0 121 33.5 226.5t89.5 180t130 127.5t155.5 79t164.5 26q182 0 289 -80zM406 23q99 0 203.5 65.5t189.5 196.5l104 596q-85 61 -250 61q-96 0 -188 -39.5t-167 -112t-121 -188t-46 -254.5q0 -156 75.5 -240.5t199.5 -84.5z" />
    <glyph glyph-name="Aogonek" unicode="&#x104;" horiz-adv-x="1126" 
d="M1034 -281q16 -11 13 -28q-71 -47 -134 -47q-57 0 -88.5 28t-31.5 82q0 114 153 242h2l-94 442h-618l-242 -440h-10q-23 0 -33 4l721 1313q6 2 18 2q13 0 19 -2l282 -1313q-72 -57 -113.5 -120t-41.5 -120q0 -40 25 -60.5t59 -20.5q59 0 114 38zM256 477h590l-152 723
l-10 64l-33 -66z" />
    <glyph glyph-name="aogonek" unicode="&#x105;" horiz-adv-x="1062" 
d="M827 -281q16 -11 13 -28q-71 -47 -133 -47q-57 0 -89 28t-32 82q0 120 162 246l34 190l4 21q-82 -118 -183.5 -173.5t-207.5 -55.5q-61 0 -114.5 21t-98 63t-70.5 113.5t-26 164.5q0 121 33.5 226.5t89.5 180t130 127.5t155.5 79t164.5 26q182 0 289 -80h2l-159 -903
q-162 -125 -162 -238q0 -40 25 -60.5t59 -20.5q59 0 114 38zM406 23q99 0 203.5 65.5t189.5 196.5l104 596q-85 61 -250 61q-96 0 -188 -39.5t-167 -112t-121 -188t-46 -254.5q0 -156 75.5 -240.5t199.5 -84.5z" />
    <glyph glyph-name="Cacute" unicode="&#x106;" horiz-adv-x="1185" 
d="M664 1409q-10 10 -13 29l361 198q15 -6 18 -34zM623 -20q-235 0 -362.5 146t-127.5 398q0 229 84 414t243 294t365 109q237 0 379 -145q-12 -18 -30 -27q-131 131 -355 131q-147 0 -269.5 -61t-203.5 -166.5t-125.5 -246t-44.5 -300.5q0 -237 117 -371.5t338 -134.5
q247 0 391 134q19 -5 22 -29q-167 -145 -421 -145z" />
    <glyph glyph-name="cacute" unicode="&#x107;" horiz-adv-x="944" 
d="M481 1096q-13 8 -16 24l334 260q19 -11 22 -34zM473 -18q-175 0 -276 107t-101 298q0 140 40.5 254t110.5 188t161 114t194 40q179 0 283 -100q-7 -23 -27 -33q-61 50 -118.5 72t-145.5 22q-207 0 -331 -156.5t-124 -400.5q0 -165 89 -264.5t251 -99.5q164 0 291 106
q20 -13 23 -33q-140 -114 -320 -114z" />
    <glyph glyph-name="Cdotaccent" unicode="&#x10a;" horiz-adv-x="1185" 
d="M842 1493q-22 0 -38 15t-16 38q0 20 16 36.5t38 16.5q23 0 38 -16t15 -37q0 -23 -15 -38t-38 -15zM623 -20q-235 0 -362.5 146t-127.5 398q0 229 84 414t243 294t365 109q237 0 379 -145q-12 -18 -30 -27q-131 131 -355 131q-147 0 -269.5 -61t-203.5 -166.5t-125.5 -246
t-44.5 -300.5q0 -237 117 -371.5t338 -134.5q247 0 391 134q19 -5 22 -29q-167 -145 -421 -145z" />
    <glyph glyph-name="cdotaccent" unicode="&#x10b;" horiz-adv-x="944" 
d="M645 1198q-21 0 -36 15t-15 36q0 20 15.5 35.5t35.5 15.5q21 0 36 -15t15 -36q0 -22 -14.5 -36.5t-36.5 -14.5zM473 -18q-175 0 -276 107t-101 298q0 140 40.5 254t110.5 188t161 114t194 40q179 0 283 -100q-7 -23 -27 -33q-61 50 -118.5 72t-145.5 22
q-207 0 -331 -156.5t-124 -400.5q0 -165 89 -264.5t251 -99.5q164 0 291 106q20 -13 23 -33q-140 -114 -320 -114z" />
    <glyph glyph-name="Ccaron" unicode="&#x10c;" horiz-adv-x="1185" 
d="M791 1389l-185 233q6 11 25 20l186 -215l264 218q17 -8 19 -23l-269 -233q-20 -6 -40 0zM623 -20q-235 0 -362.5 146t-127.5 398q0 229 84 414t243 294t365 109q237 0 379 -145q-12 -18 -30 -27q-131 131 -355 131q-147 0 -269.5 -61t-203.5 -166.5t-125.5 -246
t-44.5 -300.5q0 -237 117 -371.5t338 -134.5q247 0 391 134q19 -5 22 -29q-167 -145 -421 -145z" />
    <glyph glyph-name="ccaron" unicode="&#x10d;" horiz-adv-x="944" 
d="M602 1100l-190 264q7 11 24 20l187 -247l268 252q15 -8 18 -25l-270 -264q-19 -6 -37 0zM473 -18q-175 0 -276 107t-101 298q0 140 40.5 254t110.5 188t161 114t194 40q179 0 283 -100q-7 -23 -27 -33q-61 50 -118.5 72t-145.5 22q-207 0 -331 -156.5t-124 -400.5
q0 -165 89 -264.5t251 -99.5q164 0 291 106q20 -13 23 -33q-140 -114 -320 -114z" />
    <glyph glyph-name="Dcaron" unicode="&#x10e;" horiz-adv-x="1331" 
d="M729 1389q-21 -6 -41 0l-184 233q7 11 24 20l187 -215l264 218q15 -8 18 -23zM635 1333q289 0 444.5 -147.5t155.5 -415.5q0 -119 -31 -232t-97 -214t-159 -177t-226 -120.5t-290 -44.5q-177 0 -321 18l8 47l221 1260q156 26 295 26zM440 23q142 0 264.5 40t211 110.5
t151.5 164.5t94 202t31 224q0 255 -145.5 391.5t-417.5 136.5q-149 0 -254 -18l-215 -1233q135 -18 280 -18z" />
    <glyph glyph-name="dcaron" unicode="&#x10f;" horiz-adv-x="1071" 
d="M1300 1448q3 -6 3 -39q0 -95 -38.5 -185t-80.5 -134q-6 0 -11.5 4t-5.5 8q39 52 63.5 132t24.5 152q0 36 -4 60q12 6 29 6q12 0 20 -4zM995 1350q8 4 21 4q12 0 20 -4l-229 -1295q-134 -73 -315 -73q-185 0 -293.5 104.5t-108.5 288.5q0 136 43.5 250.5t120 192.5
t182.5 121.5t228 43.5q155 0 258 -53zM770 74l143 813q-98 55 -258 55q-226 0 -373 -155.5t-147 -405.5q0 -167 96.5 -262.5t266.5 -95.5q158 0 272 51z" />
    <glyph glyph-name="Dcroat" unicode="&#x110;" horiz-adv-x="1331" 
d="M635 1333q289 0 444.5 -147.5t155.5 -415.5q0 -119 -31 -232t-97 -214t-159 -177t-226 -120.5t-290 -44.5q-177 0 -321 18l8 47l104 596h-182q-4 19 6 31h182l111 633q156 26 295 26zM440 23q142 0 264.5 40t211 110.5t151.5 164.5t94 202t31 224q0 255 -145.5 391.5
t-417.5 136.5q-149 0 -254 -18l-105 -600h203q6 -19 -6 -31h-203l-104 -602q135 -18 280 -18z" />
    <glyph glyph-name="dcroat" unicode="&#x111;" horiz-adv-x="1071" 
d="M1194 1200q6 -19 -6 -31h-184l-197 -1114q-134 -73 -315 -73q-185 0 -293.5 104.5t-108.5 288.5q0 136 43.5 250.5t120 192.5t182.5 121.5t228 43.5q155 0 258 -53l41 239h-201q-4 19 6 31h201l26 150q8 4 21 4q12 0 20 -4l-26 -150h184zM770 74l143 813q-98 55 -258 55
q-226 0 -373 -155.5t-147 -405.5q0 -167 96.5 -262.5t266.5 -95.5q158 0 272 51z" />
    <glyph glyph-name="Emacron" unicode="&#x112;" horiz-adv-x="1042" 
d="M485 1495q-5 2 -2 14t9 21h485q3 -6 1.5 -17.5t-7.5 -17.5h-486zM1049 1276h-674l-101 -569h615q5 -23 -6 -39h-615l-110 -629h702q4 -20 -8 -39h-741l231 1315h713q7 -20 -6 -39z" />
    <glyph glyph-name="emacron" unicode="&#x113;" horiz-adv-x="970" 
d="M362 1184q-4 0 -4 6q0 12 11 29h483q2 -4 2 -11q0 -16 -8 -24h-484zM403 424q-148 0 -262 41q-4 -54 -4 -82q0 -168 89.5 -265.5t246.5 -97.5q103 0 172.5 32.5t128.5 86.5q18 -8 21 -28q-143 -129 -330 -129q-168 0 -270.5 103t-102.5 290q0 141 43 257.5t115 192
t165 117t195 41.5q128 0 203.5 -66t75.5 -165q0 -145 -120 -236.5t-366 -91.5zM604 944q-164 0 -293.5 -118.5t-163.5 -319.5q119 -41 254 -41q116 0 204 22.5t138 62t74.5 87.5t24.5 104q0 84 -61.5 143.5t-176.5 59.5z" />
    <glyph glyph-name="Edotaccent" unicode="&#x116;" horiz-adv-x="1042" 
d="M733 1493q-22 0 -37.5 15t-15.5 38q0 21 16 37t37 16q23 0 38 -16t15 -37q0 -23 -15 -38t-38 -15zM1049 1276h-674l-101 -569h615q5 -23 -6 -39h-615l-110 -629h702q4 -20 -8 -39h-741l231 1315h713q7 -20 -6 -39z" />
    <glyph glyph-name="edotaccent" unicode="&#x117;" horiz-adv-x="970" 
d="M614 1198q-21 0 -36 15t-15 36q0 20 15.5 35.5t35.5 15.5q22 0 37 -15t15 -36q0 -22 -15 -36.5t-37 -14.5zM403 424q-148 0 -262 41q-4 -54 -4 -82q0 -168 89.5 -265.5t246.5 -97.5q103 0 172.5 32.5t128.5 86.5q18 -8 21 -28q-143 -129 -330 -129q-168 0 -270.5 103
t-102.5 290q0 141 43 257.5t115 192t165 117t195 41.5q128 0 203.5 -66t75.5 -165q0 -145 -120 -236.5t-366 -91.5zM604 944q-164 0 -293.5 -118.5t-163.5 -319.5q119 -41 254 -41q116 0 204 22.5t138 62t74.5 87.5t24.5 104q0 84 -61.5 143.5t-176.5 59.5z" />
    <glyph glyph-name="Eogonek" unicode="&#x118;" horiz-adv-x="1042" 
d="M1049 1276h-674l-101 -569h615q5 -23 -6 -39h-615l-110 -629h702q4 -20 -8 -39q-162 -128 -162 -238q0 -41 25 -61t61 -20q62 0 113 38q15 -11 12 -30q-74 -45 -133 -45q-57 0 -88 28t-31 82q0 117 162 246h-700l231 1315h713q7 -20 -6 -39z" />
    <glyph glyph-name="eogonek" unicode="&#x119;" horiz-adv-x="970" 
d="M403 424q-148 0 -262 41q-4 -54 -4 -82q0 -168 89.5 -265.5t246.5 -97.5q103 0 172.5 32.5t128.5 86.5q18 -8 21 -28q-40 -36 -68 -54q-4 -4 -8 -4l-10 -6q-102 -65 -165 -140.5t-63 -144.5q0 -40 25 -60.5t59 -20.5q62 0 111 36q16 -6 16 -26q-63 -47 -133 -47
q-121 0 -121 118q0 113 156 236q-62 -16 -129 -16q-168 0 -270.5 103t-102.5 290q0 141 43 257.5t115 192t165 117t195 41.5q128 0 203.5 -66t75.5 -165q0 -145 -120 -236.5t-366 -91.5zM604 944q-164 0 -293.5 -118.5t-163.5 -319.5q119 -41 254 -41q116 0 204 22.5t138 62
t74.5 87.5t24.5 104q0 84 -61.5 143.5t-176.5 59.5z" />
    <glyph glyph-name="Ecaron" unicode="&#x11a;" horiz-adv-x="1042" 
d="M723 1389q-21 -6 -41 0l-184 233q7 11 24 20l187 -215l264 218q15 -8 18 -23zM1049 1276h-674l-101 -569h615q5 -23 -6 -39h-615l-110 -629h702q4 -20 -8 -39h-741l231 1315h713q7 -20 -6 -39z" />
    <glyph glyph-name="ecaron" unicode="&#x11b;" horiz-adv-x="970" 
d="M608 1100q-18 -6 -37 0l-190 264q6 11 25 20l186 -247l268 252q16 -8 19 -25zM403 424q-148 0 -262 41q-4 -54 -4 -82q0 -168 89.5 -265.5t246.5 -97.5q103 0 172.5 32.5t128.5 86.5q18 -8 21 -28q-143 -129 -330 -129q-168 0 -270.5 103t-102.5 290q0 141 43 257.5
t115 192t165 117t195 41.5q128 0 203.5 -66t75.5 -165q0 -145 -120 -236.5t-366 -91.5zM604 944q-164 0 -293.5 -118.5t-163.5 -319.5q119 -41 254 -41q116 0 204 22.5t138 62t74.5 87.5t24.5 104q0 84 -61.5 143.5t-176.5 59.5z" />
    <glyph glyph-name="Gbreve" unicode="&#x11e;" horiz-adv-x="1265" 
d="M817 1430q-90 0 -151.5 55.5t-61.5 156.5q17 7 33 7q4 -87 56.5 -134t127.5 -47q80 0 144 46t94 133q17 0 31 -7q-30 -102 -102 -156t-171 -54zM838 1341q127 0 215 -41.5t155 -121.5q-8 -16 -30 -27q-66 76 -146.5 112.5t-200.5 36.5q-151 0 -275 -59.5t-206.5 -164.5
t-127 -248t-44.5 -310q0 -112 26.5 -201.5t80.5 -157t144 -103.5t210 -36q218 0 373 84l80 463h-357q-6 25 8 39h398l-94 -524q-93 -50 -187 -76t-229 -26q-127 0 -223.5 39.5t-155.5 112t-88 169t-29 215.5q0 177 49.5 328.5t139.5 261.5t222.5 172.5t291.5 62.5z" />
    <glyph glyph-name="gbreve" unicode="&#x11f;" horiz-adv-x="1067" 
d="M631 1112q-40 0 -76 14t-65.5 42t-46 74.5t-13.5 105.5q18 4 35 2q-1 -99 50 -149t126 -50q78 0 147 51.5t97 147.5q11 0 28 -7q-28 -115 -103.5 -173t-178.5 -58zM649 983q203 0 303 -80l-157 -899q-33 -183 -146.5 -287t-286.5 -104q-96 0 -170.5 23t-113.5 51.5
t-78 72.5q11 25 33 31q112 -139 336 -139q141 0 248.5 95.5t136.5 256.5l18 100q-159 -100 -301 -100q-175 0 -277 99t-102 274q0 147 48 265t127.5 191t177.5 111.5t204 38.5zM477 45q146 0 303 105l129 729q-91 63 -266 63q-100 0 -190.5 -37.5t-161 -106.5t-112.5 -176.5
t-42 -236.5q0 -159 90.5 -249.5t249.5 -90.5z" />
    <glyph glyph-name="Gdotaccent" unicode="&#x120;" horiz-adv-x="1265" 
d="M825 1493q-22 0 -37.5 15t-15.5 38q0 21 16 37t37 16q23 0 38.5 -16t15.5 -37q0 -23 -15.5 -38t-38.5 -15zM838 1341q127 0 215 -41.5t155 -121.5q-8 -16 -30 -27q-66 76 -146.5 112.5t-200.5 36.5q-151 0 -275 -59.5t-206.5 -164.5t-127 -248t-44.5 -310
q0 -112 26.5 -201.5t80.5 -157t144 -103.5t210 -36q218 0 373 84l80 463h-357q-6 25 8 39h398l-94 -524q-93 -50 -187 -76t-229 -26q-127 0 -223.5 39.5t-155.5 112t-88 169t-29 215.5q0 177 49.5 328.5t139.5 261.5t222.5 172.5t291.5 62.5z" />
    <glyph glyph-name="gdotaccent" unicode="&#x121;" horiz-adv-x="1067" 
d="M674 1198q-21 0 -36 15t-15 36q0 20 15.5 35.5t35.5 15.5q21 0 36 -15t15 -36q0 -22 -14.5 -36.5t-36.5 -14.5zM649 983q203 0 303 -80l-157 -899q-33 -183 -146.5 -287t-286.5 -104q-96 0 -170.5 23t-113.5 51.5t-78 72.5q11 25 33 31q112 -139 336 -139
q141 0 248.5 95.5t136.5 256.5l18 100q-159 -100 -301 -100q-175 0 -277 99t-102 274q0 147 48 265t127.5 191t177.5 111.5t204 38.5zM477 45q146 0 303 105l129 729q-91 63 -266 63q-100 0 -190.5 -37.5t-161 -106.5t-112.5 -176.5t-42 -236.5q0 -159 90.5 -249.5
t249.5 -90.5z" />
    <glyph glyph-name="Gcommaaccent" unicode="&#x122;" horiz-adv-x="1265" 
d="M838 1341q127 0 215 -41.5t155 -121.5q-8 -16 -30 -27q-66 76 -146.5 112.5t-200.5 36.5q-151 0 -275 -59.5t-206.5 -164.5t-127 -248t-44.5 -310q0 -112 26.5 -201.5t80.5 -157t144 -103.5t210 -36q218 0 373 84l80 463h-357q-6 25 8 39h398l-94 -524q-93 -50 -187 -76
t-229 -26q-127 0 -223.5 39.5t-155.5 112t-88 169t-29 215.5q0 177 49.5 328.5t139.5 261.5t222.5 172.5t291.5 62.5zM641 -86q9 0 21 -4q4 -12 4 -47q0 -89 -42 -167t-96 -124q-12 4 -12 16q50 50 77.5 123t27.5 131q0 21 -5 66q9 6 25 6z" />
    <glyph glyph-name="gcommaaccent" unicode="&#x123;" horiz-adv-x="1067" 
d="M618 1044q-5 0 -20 5q-4 12 -4 47q0 89 42 166.5t95 123.5q12 -4 12 -16q-50 -50 -77 -123t-27 -131q0 -29 4 -65q-11 -7 -25 -7zM649 983q203 0 303 -80l-157 -899q-33 -183 -146.5 -287t-286.5 -104q-96 0 -170.5 23t-113.5 51.5t-78 72.5q11 25 33 31
q112 -139 336 -139q141 0 248.5 95.5t136.5 256.5l18 100q-159 -100 -301 -100q-175 0 -277 99t-102 274q0 147 48 265t127.5 191t177.5 111.5t204 38.5zM477 45q146 0 303 105l129 729q-91 63 -266 63q-100 0 -190.5 -37.5t-161 -106.5t-112.5 -176.5t-42 -236.5
q0 -159 90.5 -249.5t249.5 -90.5z" />
    <glyph glyph-name="Hbar" unicode="&#x126;" horiz-adv-x="1341" 
d="M1327 965q0 -17 -8 -25h-119l-168 -940q-8 -4 -20 -4q-13 0 -21 4l117 662h-840l-116 -662q-12 -4 -23 -4q-10 0 -18 4l165 940h-104l-2 14q0 13 8 21h105l59 340q8 4 20 4q13 0 21 -4l-59 -340h841l60 340q8 4 20 4q13 0 21 -4l-60 -340h119q2 -2 2 -10zM1116 698
l43 242h-842l-43 -242h842z" />
    <glyph glyph-name="hbar" unicode="&#x127;" horiz-adv-x="1089" 
d="M618 983q194 0 268 -102.5t42 -278.5l-107 -602q-12 -4 -22 -4q-15 0 -19 4l107 602q8 55 8.5 104.5t-17.5 92.5t-50.5 75t-90 50t-135.5 18q-92 0 -180 -18.5t-141 -40.5h-2l-154 -883q-12 -4 -23 -4q-10 0 -18 4l158 903l47 266h-180q-4 19 6 31h180l24 146q12 4 23 4
q14 0 18 -4l-24 -146h205q6 -19 -6 -31h-205l-43 -245q148 59 331 59z" />
    <glyph glyph-name="Itilde" unicode="&#x128;" horiz-adv-x="458" 
d="M178 1460q-24 0 -33 13q25 57 66.5 88.5t83.5 31.5q39 0 68 -15.5t44 -33.5t39 -33.5t54 -15.5q36 0 69.5 26t53.5 70q23 0 32 -12q-28 -57 -71 -89t-86 -32q-37 0 -66 15.5t-45 33.5t-40 33.5t-52 15.5q-35 0 -66.5 -26t-50.5 -70zM131 -4q-12 0 -20 4l231 1315
q12 4 23 4q10 0 18 -4l-231 -1315q-8 -4 -21 -4z" />
    <glyph glyph-name="itilde" unicode="&#x129;" horiz-adv-x="411" 
d="M137 1174q-21 0 -33 12q23 57 59 88t77 31q23 0 47.5 -14.5t42 -32t40 -32t42.5 -14.5q62 0 96 93q20 0 33 -13q-48 -118 -131 -118q-30 0 -60.5 23t-58.5 46t-53 23q-32 0 -59 -25t-42 -67zM106 -4q-12 0 -20 4l170 958q10 5 20 5q11 0 21 -5l-170 -958q-8 -4 -21 -4z
" />
    <glyph glyph-name="Imacron" unicode="&#x12a;" horiz-adv-x="458" 
d="M203 1495q-3 1 -2.5 7t3 14.5t5.5 13.5h362q3 -6 1.5 -17.5t-5.5 -17.5h-364zM131 -4q-12 0 -20 4l231 1315q12 4 23 4q10 0 18 -4l-231 -1315q-8 -4 -21 -4z" />
    <glyph glyph-name="imacron" unicode="&#x12b;" horiz-adv-x="411" 
d="M111 1184q-2 0 -2 6q0 11 6 29h389v-11q0 -15 -6 -24h-387zM106 -4q-12 0 -20 4l170 958q10 5 20 5q11 0 21 -5l-170 -958q-8 -4 -21 -4z" />
    <glyph glyph-name="Iogonek" unicode="&#x12e;" horiz-adv-x="458" 
d="M190 -281q16 -11 13 -28q-71 -47 -133 -47q-57 0 -89 28t-32 82q0 120 162 246l231 1315q12 4 23 4q10 0 18 -4l-231 -1315q-160 -126 -160 -238q0 -40 25 -60.5t59 -20.5q59 0 114 38z" />
    <glyph glyph-name="iogonek" unicode="&#x12f;" horiz-adv-x="411" 
d="M324 1300q21 0 36 -15t15 -36q0 -22 -14.5 -36.5t-36.5 -14.5q-21 0 -36.5 15t-15.5 36q0 20 16 35.5t36 15.5zM127 0q-162 -128 -162 -238q0 -40 25 -60.5t61 -20.5q62 0 113 38q15 -8 12 -28q-71 -47 -133 -47q-57 0 -88 28t-31 82q0 120 162 246l170 958q10 5 20 5
q11 0 21 -5z" />
    <glyph glyph-name="Idotaccent" unicode="&#x130;" horiz-adv-x="458" 
d="M399 1493q-22 0 -37.5 15t-15.5 38q0 21 16 37t37 16q23 0 38.5 -16t15.5 -37q0 -23 -15.5 -38t-38.5 -15zM131 -4q-12 0 -20 4l231 1315q12 4 23 4q10 0 18 -4l-231 -1315q-8 -4 -21 -4z" />
    <glyph glyph-name="dotlessi" unicode="&#x131;" horiz-adv-x="411" 
d="M106 -4q-12 0 -20 4l170 958q10 5 20 5q11 0 21 -5l-170 -958q-8 -4 -21 -4z" />
    <glyph glyph-name="IJ" unicode="&#x132;" horiz-adv-x="995" 
d="M168 287q-13 0 -21 4l183 1024q12 4 22 4q11 0 19 -4l-183 -1024q-8 -4 -20 -4zM428 -33q-62 0 -114 23t-81 53q10 24 29 33q38 -35 75 -51.5t97 -16.5q228 0 277 279l182 1028q8 4 20 4q11 0 19 -4l-180 -1022q-57 -326 -324 -326z" />
    <glyph glyph-name="ij" unicode="&#x133;" horiz-adv-x="851" 
d="M324 1198q-21 0 -36.5 15t-15.5 36q0 20 16 35.5t36 15.5q21 0 36 -15t15 -36q0 -22 -14.5 -36.5t-36.5 -14.5zM760 1192q-21 0 -36 15t-15 36q0 20 15.5 35.5t35.5 15.5q21 0 36 -15t15 -36q0 -22 -14.5 -36.5t-36.5 -14.5zM106 -4q-12 0 -20 4l170 958q10 5 20 5
q11 0 21 -5l-170 -958q-8 -4 -21 -4zM262 -397q-18 0 -35 2t-31.5 5.5t-27 7t-24.5 9.5t-20.5 10t-18 11t-13.5 9.5t-11 8.5l-7 6q10 26 28 35q76 -63 162 -63q41 0 79.5 14.5t74 45.5t62.5 87t40 131l174 1030q4 4 21 4q10 0 18 -4l-174 -1030q-15 -88 -46.5 -152.5
t-73.5 -99.5t-85.5 -51t-91.5 -16z" />
    <glyph glyph-name="Kcommaaccent" unicode="&#x136;" horiz-adv-x="1085" 
d="M1157 1315q-305 -399 -672 -629q188 -331 467 -686q-24 -4 -41 -4h-8q-153 204 -255.5 354t-192.5 318q-113 -67 -205 -109l-98 -559q-8 -4 -21 -4q-12 0 -20 4l231 1315q8 4 23 4q10 0 18 -4l-125 -713q256 125 451.5 288.5t404.5 424.5q8 2 23 2q14 0 20 -2zM471 -86
q9 0 21 -4q4 -12 4 -47q0 -89 -42 -167t-96 -124q-12 4 -12 16q50 50 77.5 123t27.5 131q0 21 -5 66q9 6 25 6z" />
    <glyph glyph-name="kcommaaccent" unicode="&#x137;" horiz-adv-x="983" 
d="M905 739q0 -260 -360 -346l252 -393q-12 -4 -31 -4q-15 0 -23 2l-239 373q-12 17 -12 49q180 47 275 118.5t95 192.5q0 98 -73 154.5t-209 56.5q-99 0 -164.5 -14t-134.5 -45l-156 -883q-12 -4 -23 -4q-10 0 -18 4l238 1346q8 4 20 4t20 -4l-73 -422q118 59 297 59
q148 0 233.5 -67t85.5 -177zM301 -86q9 0 21 -4q4 -12 4 -47q0 -89 -42 -167t-96 -124q-12 4 -12 16q50 50 77.5 123t27.5 131q0 21 -5 66q9 6 25 6z" />
    <glyph glyph-name="kgreenlandic" unicode="&#x138;" horiz-adv-x="897" 
d="M877 952q-73 -120 -207 -242.5t-281 -209.5l395 -498q-16 -4 -36 -4q-11 0 -17 2l-381 477q-86 -47 -153 -69l-72 -408q-12 -4 -23 -4q-10 0 -18 4l168 952q8 4 20 4q13 0 21 -4l-88 -501q164 65 350 211t279 290l21 2h1q5 0 13 -1z" />
    <glyph glyph-name="Lacute" unicode="&#x139;" horiz-adv-x="921" 
d="M643 1602l-367 -193q-9 9 -12 29l361 198q15 -6 18 -34zM809 35q4 -10 -6 -39h-692l231 1319q16 4 20 4q9 0 21 -4l-225 -1280h651z" />
    <glyph glyph-name="lacute" unicode="&#x13a;" horiz-adv-x="544" 
d="M223 1409q-9 9 -12 29l360 198q16 -7 19 -34zM276 -14q-77 0 -121 40t-44 115q0 34 4 52l202 1157q4 4 19 4q12 0 20 -4l-202 -1162q-4 -28 -4 -43q0 -59 32.5 -89.5t93.5 -30.5q83 0 160 61q21 -14 21 -31q-1 -1 -13 -10t-20.5 -14.5t-26 -15t-34 -15t-40 -10
t-47.5 -4.5z" />
    <glyph glyph-name="Lcommaaccent" unicode="&#x13b;" horiz-adv-x="921" 
d="M809 35q4 -10 -6 -39h-692l231 1319q16 4 20 4q9 0 21 -4l-225 -1280h651zM477 -86q9 0 21 -4q4 -12 4 -47q0 -89 -42 -167t-95 -124q-13 4 -13 16q50 50 77.5 123t27.5 131q0 30 -4 66q9 6 24 6z" />
    <glyph glyph-name="lcommaaccent" unicode="&#x13c;" horiz-adv-x="544" 
d="M276 -14q-77 0 -121 40t-44 115q0 34 4 52l202 1157q4 4 19 4q12 0 20 -4l-202 -1162q-4 -28 -4 -43q0 -59 32.5 -89.5t93.5 -30.5q83 0 160 61q21 -14 21 -31q-1 -1 -13 -10t-20.5 -14.5t-26 -15t-34 -15t-40 -10t-47.5 -4.5zM137 -428q-12 4 -12 16q50 50 77 123
t27 131q0 30 -4 66q9 6 25 6q8 0 20 -4q4 -12 4 -47q0 -89 -42 -167t-95 -124z" />
    <glyph glyph-name="Lcaron" unicode="&#x13d;" horiz-adv-x="921" 
d="M657 1090q-6 0 -11 4t-5 8q39 52 63.5 132t24.5 152q0 36 -4 60q12 6 29 6q12 0 20 -4q2 -4 2 -39q0 -95 -38.5 -185t-80.5 -134zM809 35q4 -10 -6 -39h-692l231 1319q16 4 20 4q9 0 21 -4l-225 -1280h651z" />
    <glyph glyph-name="lcaron" unicode="&#x13e;" horiz-adv-x="544" 
d="M524 1090q-6 0 -11 4t-5 8q39 52 63.5 132t24.5 152q0 36 -4 60q12 6 29 6q12 0 20 -4q2 -4 2 -39q0 -95 -38.5 -185t-80.5 -134zM276 -14q-77 0 -121 40t-44 115q0 34 4 52l202 1157q4 4 19 4q12 0 20 -4l-202 -1162q-4 -28 -4 -43q0 -59 32.5 -89.5t93.5 -30.5
q83 0 160 61q21 -14 21 -31q-1 -1 -13 -10t-20.5 -14.5t-26 -15t-34 -15t-40 -10t-47.5 -4.5z" />
    <glyph glyph-name="Ldot" unicode="&#x13f;" horiz-adv-x="923" 
d="M809 35q4 -10 -6 -39h-692l231 1319q16 4 20 4q9 0 21 -4l-225 -1280h651zM719 621q-22 0 -38.5 15t-16.5 38q0 22 16.5 37.5t38.5 15.5t37.5 -15.5t15.5 -37.5q0 -23 -15.5 -38t-37.5 -15z" />
    <glyph glyph-name="ldot" unicode="&#x140;" horiz-adv-x="503" 
d="M276 -14q-77 0 -121 40t-44 115q0 34 4 52l202 1157q4 4 19 4q12 0 20 -4l-202 -1162q-4 -28 -4 -43q0 -59 32.5 -89.5t93.5 -30.5q83 0 160 61q21 -14 21 -31q-1 -1 -13 -10t-20.5 -14.5t-26 -15t-34 -15t-40 -10t-47.5 -4.5zM465 621q-22 0 -37.5 15t-15.5 38
q0 22 15.5 37.5t37.5 15.5q23 0 38 -15.5t15 -37.5q0 -23 -15 -38t-38 -15z" />
    <glyph glyph-name="Lslash" unicode="&#x141;" horiz-adv-x="921" 
d="M809 35q4 -10 -6 -39h-692l108 620l-164 -79q-15 8 -12 28l182 90l117 660q16 4 20 4q9 0 21 -4l-113 -639l213 104q6 -3 10 -12t3 -16l-232 -113l-106 -604h651z" />
    <glyph glyph-name="lslash" unicode="&#x142;" horiz-adv-x="544" 
d="M436 86q21 -14 21 -31q-1 -1 -13 -10t-20.5 -14.5t-26 -15t-34 -15t-40 -10t-47.5 -4.5q-77 0 -121 40t-44 115q0 34 4 52l84 481l-154 -78q-14 12 -12 29l172 86l112 639q4 4 19 4q12 0 20 -4l-108 -617l149 74q6 -3 10 -12.5t3 -16.5l-168 -84l-88 -506q-4 -28 -4 -43
q0 -59 32.5 -89.5t93.5 -30.5q83 0 160 61z" />
    <glyph glyph-name="Nacute" unicode="&#x143;" horiz-adv-x="1331" 
d="M1026 1602l-367 -193q-9 9 -12 29l361 198q15 -6 18 -34zM1235 1323q12 0 20 -4l-231 -1315q-12 -6 -41 -6l-596 1214l-16 35l-6 -41l-213 -1206q-8 -4 -21 -4q-12 0 -20 4l231 1313q24 9 41 6l602 -1233l8 -20l4 26l217 1227q8 4 21 4z" />
    <glyph glyph-name="nacute" unicode="&#x144;" horiz-adv-x="1081" 
d="M477 1096q-13 8 -16 24l334 260q19 -11 22 -34zM610 983q163 0 241.5 -73t78.5 -203q0 -43 -10 -105l-107 -602q-12 -4 -22 -4q-15 0 -19 4l107 602q8 44 8 96q0 244 -293 244q-93 0 -182 -19t-140 -42l-155 -881q-12 -4 -23 -4q-10 0 -18 4l157 903q164 80 377 80z" />
    <glyph glyph-name="Ncommaaccent" unicode="&#x145;" horiz-adv-x="1331" 
d="M1235 1323q12 0 20 -4l-231 -1315q-12 -6 -41 -6l-596 1214l-16 35l-6 -41l-213 -1206q-8 -4 -21 -4q-12 0 -20 4l231 1313q24 9 41 6l602 -1233l8 -20l4 26l217 1227q8 4 21 4zM571 -86q9 0 21 -4q4 -12 4 -47q0 -89 -42 -167t-95 -124q-13 4 -13 16q50 50 77.5 123
t27.5 131q0 30 -4 66q9 6 24 6z" />
    <glyph glyph-name="ncommaaccent" unicode="&#x146;" horiz-adv-x="1081" 
d="M610 983q163 0 241.5 -73t78.5 -203q0 -43 -10 -105l-107 -602q-12 -4 -22 -4q-15 0 -19 4l107 602q8 44 8 96q0 244 -293 244q-93 0 -182 -19t-140 -42l-155 -881q-12 -4 -23 -4q-10 0 -18 4l157 903q164 80 377 80zM440 -86q9 0 21 -4q4 -12 4 -47q0 -89 -42 -167
t-95 -124q-13 4 -13 16q50 50 77.5 123t27.5 131q0 30 -4 66q9 6 24 6z" />
    <glyph glyph-name="Ncaron" unicode="&#x147;" horiz-adv-x="1331" 
d="M827 1389q-21 -6 -41 0l-184 233q6 11 25 20l186 -215l264 218q17 -8 19 -23zM1235 1323q12 0 20 -4l-231 -1315q-12 -6 -41 -6l-596 1214l-16 35l-6 -41l-213 -1206q-8 -4 -21 -4q-12 0 -20 4l231 1313q24 9 41 6l602 -1233l8 -20l4 26l217 1227q8 4 21 4z" />
    <glyph glyph-name="ncaron" unicode="&#x148;" horiz-adv-x="1081" 
d="M635 1100q-19 -6 -37 0l-190 264q7 11 24 20l186 -247l269 252q15 -8 18 -25zM610 983q163 0 241.5 -73t78.5 -203q0 -43 -10 -105l-107 -602q-12 -4 -22 -4q-15 0 -19 4l107 602q8 44 8 96q0 244 -293 244q-93 0 -182 -19t-140 -42l-155 -881q-12 -4 -23 -4q-10 0 -18 4
l157 903q164 80 377 80z" />
    <glyph glyph-name="napostrophe" unicode="&#x149;" horiz-adv-x="1105" 
d="M182 999q-12 4 -12 17q55 54 83 132t28 142q0 47 -5 72q12 4 25 4q15 0 21 -2q2 -6 2 -49q0 -98 -43.5 -183.5t-98.5 -132.5zM635 983q163 0 241 -73t78 -203q0 -43 -10 -105l-106 -602q-12 -4 -23 -4q-14 0 -18 4l106 602q8 44 8 96q0 244 -293 244q-93 0 -181.5 -18.5
t-139.5 -42.5l-156 -881q-12 -4 -22 -4q-11 0 -19 4l158 903q164 80 377 80z" />
    <glyph glyph-name="Eng" unicode="&#x14a;" horiz-adv-x="1331" 
d="M1255 1319l-231 -1315h-2l-16 -92q-28 -168 -102 -240.5t-224 -72.5q-50 0 -95.5 16.5t-65 31t-30.5 27.5q9 21 33 31q35 -33 72 -49t92 -16q126 0 191 61.5t92 216.5l14 80l-596 1214l-16 35l-6 -41l-213 -1206q-8 -4 -21 -4q-12 0 -20 4l231 1313q24 9 41 6l602 -1233
l8 -20l4 26l217 1227q8 4 21 4q12 0 20 -4z" />
    <glyph glyph-name="eng" unicode="&#x14b;" horiz-adv-x="1079" 
d="M610 983q163 0 241.5 -73t78.5 -203q0 -43 -10 -105l-121 -674q-29 -167 -108.5 -246t-194.5 -79q-127 0 -183 79q-1 2 -2 3q6 15 31 26q31 -36 62 -51.5t100 -15.5q86 0 157 66.5t97 211.5l121 680q8 44 8 96q0 244 -293 244q-93 0 -182 -19t-140 -42l-155 -881
q-12 -4 -23 -4q-10 0 -18 4l157 903q164 80 377 80z" />
    <glyph glyph-name="Omacron" unicode="&#x14c;" horiz-adv-x="1382" 
d="M559 1495q-5 1 -2 13.5t8 21.5h486q3 -6 1 -17.5t-8 -17.5h-485zM635 -20q-242 0 -371 147t-129 395q0 178 48.5 330.5t133 259.5t203.5 168t256 61q240 0 372 -150.5t132 -393.5q0 -375 -176 -596t-469 -221zM643 20q274 0 434 212.5t160 564.5q0 229 -121.5 366
t-347.5 137q-172 0 -307 -101t-209 -277.5t-74 -395.5q0 -235 119 -370.5t346 -135.5z" />
    <glyph glyph-name="omacron" unicode="&#x14d;" horiz-adv-x="1081" 
d="M367 1184q-5 0 -5 6q0 12 11 29h483q2 -4 2 -11q0 -16 -8 -24h-483zM471 -18q-177 0 -277 109t-100 298q0 159 59.5 293t175 217.5t265.5 83.5q176 0 270 -111t94 -299q0 -158 -57 -291t-170 -216.5t-260 -83.5zM477 23q103 0 187.5 46.5t138 123.5t82 173t28.5 199
q0 170 -80.5 273.5t-244.5 103.5q-108 0 -196 -48t-142 -127t-82.5 -174t-28.5 -196q0 -171 87 -272.5t251 -101.5z" />
    <glyph glyph-name="Ohungarumlaut" unicode="&#x150;" horiz-adv-x="1382" 
d="M528 1374q-15 7 -18 23l264 289q20 -8 29 -31zM831 1374q-15 7 -18 23l264 289q20 -8 29 -31zM635 -20q-242 0 -371 147t-129 395q0 178 48.5 330.5t133 259.5t203.5 168t256 61q240 0 372 -150.5t132 -393.5q0 -375 -176 -596t-469 -221zM643 20q274 0 434 212.5
t160 564.5q0 229 -121.5 366t-347.5 137q-172 0 -307 -101t-209 -277.5t-74 -395.5q0 -235 119 -370.5t346 -135.5z" />
    <glyph glyph-name="ohungarumlaut" unicode="&#x151;" horiz-adv-x="1081" 
d="M348 1065q-13 4 -20 18l260 322q21 -5 30 -27zM635 1065q-18 5 -21 18l258 322q20 -4 33 -27zM471 -18q-177 0 -277 109t-100 298q0 159 59.5 293t175 217.5t265.5 83.5q176 0 270 -111t94 -299q0 -158 -57 -291t-170 -216.5t-260 -83.5zM477 23q103 0 187.5 46.5
t138 123.5t82 173t28.5 199q0 170 -80.5 273.5t-244.5 103.5q-108 0 -196 -48t-142 -127t-82.5 -174t-28.5 -196q0 -171 87 -272.5t251 -101.5z" />
    <glyph glyph-name="OE" unicode="&#x152;" horiz-adv-x="1665" 
d="M1671 1276h-633l-100 -569h573q2 -4 2 -13q0 -13 -8 -26h-573l-111 -629h662v-12q0 -16 -8 -27h-699q-82 -14 -170 -14q-224 0 -348.5 144.5t-124.5 377.5q0 167 46.5 316.5t130.5 262t210 178.5t277 66q111 0 209 -16h671q2 -4 2 -12q0 -16 -8 -27zM178 512
q0 -219 113 -352t321 -133q103 0 166 14l217 1233q-94 16 -207 16q-114 0 -213 -42.5t-171 -116.5t-123.5 -172.5t-77 -212.5t-25.5 -234z" />
    <glyph glyph-name="oe" unicode="&#x153;" horiz-adv-x="1748" 
d="M1192 426q-149 0 -262 39q-4 -54 -4 -82q0 -168 86 -265.5t239 -97.5q103 0 172.5 32.5t128.5 86.5q18 -8 21 -28q-143 -129 -330 -129q-144 0 -240 84t-114 239q-51 -151 -156.5 -237t-255.5 -86q-192 0 -285.5 109.5t-93.5 311.5q0 168 57.5 299.5t165 206t246.5 74.5
q155 0 250.5 -95t110.5 -251q57 163 178.5 254.5t265.5 91.5q138 0 215.5 -68t77.5 -172q0 -140 -117 -228.5t-356 -88.5zM1366 944q-152 0 -274.5 -118.5t-155.5 -319.5q119 -41 254 -41q217 0 322.5 76.5t105.5 191.5q0 89 -64.5 150t-187.5 61zM483 23q127 0 219 72
t137.5 195t45.5 281q0 167 -83 269t-241 102q-100 0 -180.5 -42.5t-131.5 -116t-78.5 -168.5t-27.5 -203q0 -389 340 -389z" />
    <glyph glyph-name="Racute" unicode="&#x154;" horiz-adv-x="1093" 
d="M891 1602l-367 -193q-9 9 -12 29l360 198q16 -7 19 -34zM1024 1016q0 -195 -113.5 -312t-310.5 -141q84 -168 164.5 -301t187.5 -260q-16 -4 -32 -4h-13q-105 126 -184.5 258.5t-165.5 302.5q-16 -2 -53 -2q-168 0 -252 12l-100 -569q-12 -4 -23 -4q-10 0 -18 4l227 1294
q148 43 307 43q194 0 286.5 -88.5t92.5 -232.5zM260 612q85 -16 250 -16q228 0 350.5 117.5t122.5 302.5q0 56 -20 104.5t-60 88.5t-108.5 63.5t-157.5 23.5q-137 0 -262 -32z" />
    <glyph glyph-name="racute" unicode="&#x155;" horiz-adv-x="702" 
d="M395 1096q-13 8 -16 24l334 260q19 -11 22 -34zM582 983q105 0 163 -20q-3 -23 -16 -39q-53 18 -164 18q-82 0 -165 -18t-128 -43l-155 -881q-8 -4 -21 -4q-12 0 -20 4l157 903q156 80 349 80z" />
    <glyph glyph-name="Rcommaaccent" unicode="&#x156;" horiz-adv-x="1093" 
d="M1024 1016q0 -195 -113.5 -312t-310.5 -141q84 -168 164.5 -301t187.5 -260q-16 -4 -32 -4h-13q-105 126 -184.5 258.5t-165.5 302.5q-16 -2 -53 -2q-168 0 -252 12l-100 -569q-12 -4 -23 -4q-10 0 -18 4l227 1294q148 43 307 43q194 0 286.5 -88.5t92.5 -232.5zM260 612
q85 -16 250 -16q228 0 350.5 117.5t122.5 302.5q0 56 -20 104.5t-60 88.5t-108.5 63.5t-157.5 23.5q-137 0 -262 -32zM479 -86q9 0 21 -4q4 -12 4 -47q0 -89 -42 -167t-95 -124q-13 4 -13 16q50 50 77.5 123t27.5 131q0 30 -4 66q9 6 24 6z" />
    <glyph glyph-name="rcommaaccent" unicode="&#x157;" horiz-adv-x="702" 
d="M582 983q105 0 163 -20q-3 -23 -16 -39q-53 18 -164 18q-82 0 -165 -18t-128 -43l-155 -881q-8 -4 -21 -4q-12 0 -20 4l157 903q156 80 349 80zM100 -86q9 0 21 -4q4 -12 4 -47q0 -89 -42 -167t-95 -124q-13 4 -13 16q50 50 77.5 123t27.5 131q0 30 -4 66q9 6 24 6z" />
    <glyph glyph-name="Rcaron" unicode="&#x158;" horiz-adv-x="1093" 
d="M692 1389q-20 -6 -41 0l-184 233q6 11 25 20l186 -215l264 218q17 -8 19 -23zM1024 1016q0 -195 -113.5 -312t-310.5 -141q84 -168 164.5 -301t187.5 -260q-16 -4 -32 -4h-13q-105 126 -184.5 258.5t-165.5 302.5q-16 -2 -53 -2q-168 0 -252 12l-100 -569q-12 -4 -23 -4
q-10 0 -18 4l227 1294q148 43 307 43q194 0 286.5 -88.5t92.5 -232.5zM260 612q85 -16 250 -16q228 0 350.5 117.5t122.5 302.5q0 56 -20 104.5t-60 88.5t-108.5 63.5t-157.5 23.5q-137 0 -262 -32z" />
    <glyph glyph-name="rcaron" unicode="&#x159;" horiz-adv-x="702" 
d="M553 1100q-19 -6 -37 0l-190 264q7 11 24 20l187 -247l268 252q15 -8 18 -25zM233 903q156 80 349 80q105 0 163 -20q-3 -23 -16 -39q-53 18 -164 18q-82 0 -165 -18t-128 -43l-155 -881q-8 -4 -21 -4q-12 0 -20 4z" />
    <glyph glyph-name="Sacute" unicode="&#x15a;" horiz-adv-x="1019" 
d="M512 1409q-9 9 -12 29l360 198q16 -7 19 -34zM420 -27q-269 0 -397 156q6 23 30 31q116 -146 375 -146q185 0 294 93t109 239q0 63 -21 112.5t-56.5 81t-82 56t-97.5 44t-102 38.5t-97.5 44.5t-82 58.5t-56.5 84t-21 116q0 166 118 261t312 95q241 0 348 -133
q-12 -22 -32 -30q-115 122 -324 122q-173 0 -276 -85t-103 -230q0 -59 21 -104t56.5 -74t81.5 -52t97 -42t102 -38.5t97 -46.5t81.5 -62t56.5 -89t21 -123q0 -162 -123.5 -269.5t-328.5 -107.5z" />
    <glyph glyph-name="sacute" unicode="&#x15b;" horiz-adv-x="858" 
d="M371 1096q-14 9 -17 24l334 260q20 -12 23 -34zM352 -14q-207 0 -327 112q9 22 28 31q113 -104 305 -104q135 0 217 65.5t82 175.5q0 62 -28 104t-72.5 64t-98 38.5t-107.5 33.5t-98.5 41.5t-72.5 70.5t-28 113q0 109 93 180.5t244 71.5q105 0 182.5 -29.5t114.5 -66.5
q-8 -21 -26 -33q-110 88 -279 88q-124 0 -206 -60t-82 -151q0 -52 22 -89t57.5 -56.5t81 -36.5t93 -28t93 -31t81 -45t57.5 -71t22 -108q0 -129 -97 -204.5t-251 -75.5z" />
    <glyph glyph-name="Scedilla" unicode="&#x15e;" horiz-adv-x="1019" 
d="M645 1337q241 0 348 -133q-12 -22 -32 -30q-115 122 -324 122q-173 0 -276 -85t-103 -230q0 -59 21 -104t56.5 -74t81.5 -52t97 -42t102 -38.5t97 -46.5t81.5 -62t56.5 -89t21 -123q0 -160 -122.5 -268t-323.5 -109l-27 -71q79 -15 116.5 -42.5t37.5 -86.5
q0 -79 -69.5 -119.5t-157.5 -40.5q-79 0 -103 12q3 23 17 37q27 -10 92 -10q74 0 126 29.5t52 87.5q0 49 -32.5 67t-131.5 37l39 100q-241 11 -362 156q6 23 30 31q116 -146 375 -146q185 0 294 93t109 239q0 63 -21 112.5t-56.5 81t-82 56t-97.5 44t-102 38.5t-97.5 44.5
t-82 58.5t-56.5 84t-21 116q0 166 118 261t312 95z" />
    <glyph glyph-name="scedilla" unicode="&#x15f;" horiz-adv-x="858" 
d="M489 983q105 0 182.5 -29.5t114.5 -66.5q-8 -21 -26 -33q-110 88 -279 88q-124 0 -206 -60t-82 -151q0 -52 22 -89t57.5 -56.5t81 -36.5t93 -28t93 -31t81 -45t57.5 -71t22 -108q0 -130 -96 -205t-250 -75l-30 -84q79 -15 116 -42.5t37 -86.5q0 -79 -69.5 -119.5
t-157.5 -40.5q-79 0 -103 12q3 23 17 37q27 -10 92 -10q74 0 126 29.5t52 87.5q0 49 -32.5 67t-131.5 37l43 113q-179 10 -288 112q9 22 28 31q113 -104 305 -104q135 0 217 65.5t82 175.5q0 62 -28 104t-72.5 64t-98 38.5t-107.5 33.5t-98.5 41.5t-72.5 70.5t-28 113
q0 109 93 180.5t244 71.5z" />
    <glyph glyph-name="Scaron" unicode="&#x160;" horiz-adv-x="1019" 
d="M639 1389l-184 233q7 11 24 20l187 -215l264 218q15 -8 18 -23l-268 -233q-21 -6 -41 0zM420 -27q-269 0 -397 156q6 23 30 31q116 -146 375 -146q185 0 294 93t109 239q0 63 -21 112.5t-56.5 81t-82 56t-97.5 44t-102 38.5t-97.5 44.5t-82 58.5t-56.5 84t-21 116
q0 166 118 261t312 95q241 0 348 -133q-12 -22 -32 -30q-115 122 -324 122q-173 0 -276 -85t-103 -230q0 -59 21 -104t56.5 -74t81.5 -52t97 -42t102 -38.5t97 -46.5t81.5 -62t56.5 -89t21 -123q0 -162 -123.5 -269.5t-328.5 -107.5z" />
    <glyph glyph-name="scaron" unicode="&#x161;" horiz-adv-x="858" 
d="M492 1100l-191 264q6 11 25 20l186 -247l268 252q16 -8 19 -25l-271 -264q-18 -6 -36 0zM352 -14q-207 0 -327 112q9 22 28 31q113 -104 305 -104q135 0 217 65.5t82 175.5q0 62 -28 104t-72.5 64t-98 38.5t-107.5 33.5t-98.5 41.5t-72.5 70.5t-28 113q0 109 93 180.5
t244 71.5q105 0 182.5 -29.5t114.5 -66.5q-8 -21 -26 -33q-110 88 -279 88q-124 0 -206 -60t-82 -151q0 -52 22 -89t57.5 -56.5t81 -36.5t93 -28t93 -31t81 -45t57.5 -71t22 -108q0 -129 -97 -204.5t-251 -75.5z" />
    <glyph glyph-name="uni0162" unicode="&#x162;" horiz-adv-x="1034" 
d="M662 1278l-226 -1278l-37 -98q79 -15 116.5 -42.5t37.5 -86.5q0 -79 -69.5 -119.5t-157.5 -40.5q-79 0 -103 12q3 23 17 37q27 -10 92 -10q74 0 126 29.5t52 87.5q0 49 -32.5 67t-131.5 37l49 127l226 1278h-463q-7 18 6 37h971q4 -18 -9 -37h-464z" />
    <glyph glyph-name="uni0163" unicode="&#x163;" horiz-adv-x="724" 
d="M365 922l-111 -627q-12 -55 -12 -119q0 -79 47 -116t123 -37q65 0 106 14.5t96 48.5q19 -13 19 -33q-1 0 -17 -9.5t-26.5 -15.5t-33 -15.5t-43 -15.5t-49.5 -10.5t-58 -4.5h-13l-31 -80q79 -15 116.5 -42.5t37.5 -86.5q0 -79 -69.5 -119.5t-157.5 -40.5q-79 0 -103 12
q3 23 17 37q27 -10 92 -10q74 0 126 29.5t52 87.5q0 49 -32.5 67t-131.5 37l43 113q-69 13 -110 57.5t-41 122.5q0 62 8 106l115 650h-234v10q0 12 6 24h234l47 265q8 4 20 4q13 0 21 -4l-47 -265h370l2 -10q0 -12 -8 -24h-370z" />
    <glyph glyph-name="Tcaron" unicode="&#x164;" horiz-adv-x="1034" 
d="M674 1389q-21 -6 -41 0l-184 233q7 11 24 20l186 -215l265 218q15 -8 18 -23zM1135 1315q4 -18 -9 -37h-464l-226 -1278q-16 -4 -20 -4q-9 0 -21 4l226 1278h-463q-7 18 6 37h971z" />
    <glyph glyph-name="tcaron" unicode="&#x165;" horiz-adv-x="724" 
d="M647 1090q-6 0 -11 4t-5 8q39 52 63.5 132t24.5 152q0 36 -4 60q12 6 28 6q13 0 21 -4q2 -4 2 -39q0 -95 -38.5 -185t-80.5 -134zM371 956h370l2 -10q0 -12 -8 -24h-370l-111 -627q-12 -55 -12 -119q0 -79 47 -116t123 -37q65 0 106 14.5t96 48.5q19 -13 19 -33
q-1 0 -17 -9.5t-26.5 -15.5t-33 -15.5t-43 -15.5t-49.5 -10.5t-58 -4.5q-91 0 -148 46t-57 138q0 62 8 106l115 650h-234v10q0 12 6 24h234l47 265q8 4 20 4q13 0 21 -4z" />
    <glyph glyph-name="Tbar" unicode="&#x166;" horiz-adv-x="1034" 
d="M1126 1278h-464l-107 -604h188q6 -19 -6 -31h-188l-113 -643q-16 -4 -20 -4q-9 0 -21 4l113 643h-197q-4 19 6 31h197l107 604h-463q-7 18 6 37h971q4 -18 -9 -37z" />
    <glyph glyph-name="tbar" unicode="&#x167;" horiz-adv-x="724" 
d="M735 922h-370l-66 -367h211q6 -19 -6 -31h-209l-41 -229q-12 -55 -12 -119q0 -79 47 -116t123 -37q65 0 106 14.5t96 48.5q19 -13 19 -33q-1 0 -17 -9.5t-26.5 -15.5t-33 -15.5t-43 -15.5t-49.5 -10.5t-58 -4.5q-91 0 -148 46t-57 138q0 62 8 106l45 252h-176q-4 19 6 31
h174l66 367h-234v10q0 12 6 24h234l47 265q8 4 20 4q13 0 21 -4l-47 -265h370l2 -10q0 -12 -8 -24z" />
    <glyph glyph-name="Utilde" unicode="&#x168;" horiz-adv-x="1310" 
d="M537 1454q-20 4 -29 19q50 66 88.5 93t105.5 27q48 0 96 -24t93.5 -48t85.5 -24q76 0 117 96q20 0 32 -12q-26 -59 -66.5 -91t-88.5 -32t-96.5 24t-93.5 48t-85 24q-49 0 -84.5 -24.5t-74.5 -75.5zM569 -20q-196 0 -296.5 103.5t-100.5 285.5q0 72 14 141l142 805
q8 4 20 4q13 0 21 -4l-142 -805q-14 -82 -14 -135q0 -167 89 -261t273 -94q116 0 203 35.5t144 103.5t92 153t55 198l141 805q8 4 21 4q12 0 20 -4l-141 -805q-95 -530 -541 -530z" />
    <glyph glyph-name="utilde" unicode="&#x169;" horiz-adv-x="1069" 
d="M375 1169q-21 4 -29 19q48 64 87 90.5t106 26.5q44 0 88.5 -23.5t86.5 -46.5t79 -23q74 0 116 93q23 0 33 -13q-54 -118 -156 -118q-45 0 -89.5 23t-86 46t-78.5 23q-49 0 -84 -24t-73 -73zM944 952q13 0 21 -4l-158 -891q-168 -80 -371 -80q-159 0 -236 72t-77 203
q0 40 10 98l105 598q12 4 22 4q13 0 21 -4l-105 -594q-10 -55 -10 -94q0 -242 278 -242q170 0 326 66l154 864q8 4 20 4z" />
    <glyph glyph-name="Umacron" unicode="&#x16a;" horiz-adv-x="1310" 
d="M571 1495q-5 2 -2 14t9 21h485q3 -6 1.5 -17.5t-7.5 -17.5h-486zM569 -20q-196 0 -296.5 103.5t-100.5 285.5q0 72 14 141l142 805q8 4 20 4q13 0 21 -4l-142 -805q-14 -82 -14 -135q0 -167 89 -261t273 -94q116 0 203 35.5t144 103.5t92 153t55 198l141 805q8 4 21 4
q12 0 20 -4l-141 -805q-95 -530 -541 -530z" />
    <glyph glyph-name="umacron" unicode="&#x16b;" horiz-adv-x="1069" 
d="M391 1184q-4 0 -4 6q0 14 10 29h484q2 -4 2 -11q0 -15 -9 -24h-483zM944 952q13 0 21 -4l-158 -891q-168 -80 -371 -80q-159 0 -236 72t-77 203q0 40 10 98l105 598q12 4 22 4q13 0 21 -4l-105 -594q-10 -55 -10 -94q0 -242 278 -242q170 0 326 66l154 864q8 4 20 4z" />
    <glyph glyph-name="Uring" unicode="&#x16e;" horiz-adv-x="1310" 
d="M803 1337q-71 0 -110.5 42t-39.5 108q0 86 58 144.5t131 58.5q71 0 110 -42t39 -108q0 -93 -54.5 -148t-133.5 -55zM809 1376q64 0 102.5 42.5t38.5 117.5q0 51 -28 83t-86 32q-57 0 -100.5 -45.5t-43.5 -112.5q0 -50 30 -83.5t87 -33.5zM569 -20q-196 0 -296.5 103.5
t-100.5 285.5q0 72 14 141l142 805q8 4 20 4q13 0 21 -4l-142 -805q-14 -82 -14 -135q0 -167 89 -261t273 -94q116 0 203 35.5t144 103.5t92 153t55 198l141 805q8 4 21 4q12 0 20 -4l-141 -805q-95 -530 -541 -530z" />
    <glyph glyph-name="uring" unicode="&#x16f;" horiz-adv-x="1069" 
d="M621 1055q-71 0 -110.5 42t-39.5 107q0 88 58 145.5t133 57.5q71 0 110 -42t39 -108q0 -92 -55 -147t-135 -55zM653 1368q-57 0 -99 -44.5t-42 -113.5q0 -51 29.5 -83.5t87.5 -32.5q64 0 102.5 42.5t38.5 116.5q0 51 -28.5 83t-88.5 32zM944 952q13 0 21 -4l-158 -891
q-168 -80 -371 -80q-159 0 -236 72t-77 203q0 40 10 98l105 598q12 4 22 4q13 0 21 -4l-105 -594q-10 -55 -10 -94q0 -242 278 -242q170 0 326 66l154 864q8 4 20 4z" />
    <glyph glyph-name="Uhungarumlaut" unicode="&#x170;" horiz-adv-x="1310" 
d="M541 1374q-16 8 -19 23l264 289q20 -8 29 -31zM844 1374q-16 8 -19 23l265 289q19 -7 28 -31zM569 -20q-196 0 -296.5 103.5t-100.5 285.5q0 72 14 141l142 805q8 4 20 4q13 0 21 -4l-142 -805q-14 -82 -14 -135q0 -167 89 -261t273 -94q116 0 203 35.5t144 103.5t92 153
t55 198l141 805q8 4 21 4q12 0 20 -4l-141 -805q-95 -530 -541 -530z" />
    <glyph glyph-name="uhungarumlaut" unicode="&#x171;" horiz-adv-x="1069" 
d="M373 1065q-14 5 -21 18l260 322q22 -5 31 -27zM659 1065q-17 5 -20 18l258 322q20 -4 33 -27zM944 952q13 0 21 -4l-158 -891q-168 -80 -371 -80q-159 0 -236 72t-77 203q0 40 10 98l105 598q12 4 22 4q13 0 21 -4l-105 -594q-10 -55 -10 -94q0 -242 278 -242
q170 0 326 66l154 864q8 4 20 4z" />
    <glyph glyph-name="Uogonek" unicode="&#x172;" horiz-adv-x="1310" 
d="M1231 1319q12 0 20 -4l-141 -805q-63 -358 -287 -475q-95 -61 -153 -133.5t-58 -139.5q0 -40 25 -60.5t59 -20.5q62 0 111 36q16 -6 16 -26q-63 -47 -133 -47q-121 0 -121 118q0 113 156 236q-71 -18 -156 -18q-196 0 -296.5 103.5t-100.5 285.5q0 72 14 141l142 805
q8 4 20 4q13 0 21 -4l-142 -805q-14 -82 -14 -135q0 -167 89 -261t273 -94q116 0 203 35.5t144 103.5t92 153t55 198l141 805q8 4 21 4z" />
    <glyph glyph-name="uogonek" unicode="&#x173;" horiz-adv-x="1069" 
d="M807 57q-108 -65 -177 -144t-69 -151q0 -40 25 -60.5t59 -20.5q62 0 111 36q16 -6 16 -26q-63 -47 -133 -47q-121 0 -121 118q0 62 50 128.5t128 123.5q-130 -37 -260 -37q-159 0 -236 72t-77 203q0 40 10 98l105 598q12 4 22 4q13 0 21 -4l-105 -594q-10 -55 -10 -94
q0 -242 278 -242q170 0 326 66l154 864q8 4 20 4q13 0 21 -4z" />
    <glyph glyph-name="Wcircumflex" unicode="&#x174;" horiz-adv-x="1798" 
d="M801 1382q-17 8 -19 23l269 233q21 6 41 0l184 -233q-7 -12 -25 -21l-186 215zM1829 1319q6 0 12 -1l6 -1q-187 -724 -678 -1321q-8 -4 -28 -4q-13 0 -21 4q-113 508 -116 1040q-1 17 -1 37t0.5 45t0.5 39q-1 -5 -15 -50.5t-20 -68.5q-95 -306 -227.5 -552.5
t-327.5 -489.5q-8 -4 -29 -4t-25 4q-132 504 -151 1321q1 0 4.5 0.5t10 1t12.5 0.5l16 -2q11 -757 141 -1299q222 288 370 596t238 666q4 2 21 2l16 -2q-16 -575 109 -1255q476 579 659 1292q1 0 9 1t14 1z" />
    <glyph glyph-name="wcircumflex" unicode="&#x175;" horiz-adv-x="1484" 
d="M516 1096q-15 8 -18 24l276 266q18 6 37 0l184 -266q-7 -11 -24 -20l-180 248zM1376 963q31 -70 31 -185q0 -90 -45.5 -207t-115 -225t-150 -202t-152.5 -148q-12 -4 -24 -4q-17 0 -25 4q-37 102 -76.5 292.5t-62.5 381.5q-39 -188 -160 -381.5t-244 -292.5
q-12 -4 -24 -4q-17 0 -25 4q-56 146 -109.5 442.5t-56.5 509.5q11 2 25 2q6 0 10 -0.5t5.5 -1t2.5 -0.5q1 -206 51.5 -495t92.5 -400q2 -4 5 -14t5 -14q8 6 22 20q148 140 266.5 368.5t118.5 401.5q-6 70 -6 133q11 2 25 2q6 0 10 -0.5t5.5 -1t2.5 -0.5q-1 -217 45.5 -497
t91.5 -398q2 -4 3.5 -8.5t4 -10t3.5 -9.5q8 6 22 20q161 143 289.5 360t128.5 375q0 64 -8.5 102t-28.5 81l24 2h1q12 0 22 -2z" />
    <glyph glyph-name="Ycircumflex" unicode="&#x176;" horiz-adv-x="1071" 
d="M442 1382q-15 8 -18 23l268 233q21 6 41 0l185 -233q-7 -12 -25 -21l-186 215zM1159 1317l-600 -756l-98 -561q-8 -4 -21 -4q-12 0 -20 4l100 569l-352 748q20 4 35 4h6l330 -705l8 -16l8 16l557 705h14q13 0 33 -4z" />
    <glyph glyph-name="ycircumflex" unicode="&#x177;" horiz-adv-x="1073" 
d="M397 1096q-15 8 -18 24l276 266q18 6 37 0l185 -266q-6 -11 -25 -20l-180 248zM942 952q15 0 19 -4l-166 -944q-34 -190 -144 -290.5t-291 -100.5q-227 0 -325 127q11 26 33 29q94 -117 299 -117q161 0 259 91.5t128 260.5l22 125q-152 -94 -342 -94q-183 0 -253.5 99
t-39.5 274l97 540q8 4 20 4q13 0 21 -4l-97 -540q-60 -332 271 -332q166 0 329 96l138 776q12 4 22 4z" />
    <glyph glyph-name="Ydieresis" unicode="&#x178;" horiz-adv-x="1071" 
d="M492 1491q-20 0 -35 14.5t-15 36.5q0 19 15 34t35 15q21 0 36 -15t15 -34q0 -22 -14.5 -36.5t-36.5 -14.5zM893 1491q-21 0 -36 15t-15 36q0 19 15.5 34t35.5 15q21 0 35 -15t14 -34q0 -22 -13.5 -36.5t-35.5 -14.5zM1159 1317l-600 -756l-98 -561q-8 -4 -21 -4
q-12 0 -20 4l100 569l-352 748q20 4 35 4h6l330 -705l8 -16l8 16l557 705h14q13 0 33 -4z" />
    <glyph glyph-name="Zacute" unicode="&#x179;" horiz-adv-x="1060" 
d="M887 1602l-367 -193q-9 9 -12 29l360 198q16 -7 19 -34zM1090 1255l-1031 -1183l-30 -33h880q2 -16 -6 -39h-919q-4 4 -4 23q0 18 12 30l1022 1174l41 49h-852q-6 21 6 39h893q2 -4 2 -19q0 -24 -14 -41z" />
    <glyph glyph-name="zacute" unicode="&#x17a;" horiz-adv-x="944" 
d="M369 1096q-14 9 -17 24l334 260q20 -12 23 -34zM862 940q0 -17 -20 -37l-709 -778q137 -107 338 -107q176 0 332 72q14 -11 14 -33q-151 -75 -348 -75q-216 0 -367 112l-96 -106q-22 0 -22 16q0 17 32 49l764 840l23 20h-664q-4 17 6 37h715q2 -2 2 -10z" />
    <glyph glyph-name="Zdotaccent" unicode="&#x17b;" horiz-adv-x="1060" 
d="M698 1493q-22 0 -37.5 15t-15.5 38q0 21 16 37t37 16q23 0 38.5 -16t15.5 -37q0 -23 -15.5 -38t-38.5 -15zM1090 1255l-1031 -1183l-30 -33h880q2 -16 -6 -39h-919q-4 4 -4 23q0 18 12 30l1022 1174l41 49h-852q-6 21 6 39h893q2 -4 2 -19q0 -24 -14 -41z" />
    <glyph glyph-name="zdotaccent" unicode="&#x17c;" horiz-adv-x="944" 
d="M532 1198q-21 0 -36 15t-15 36q0 20 15.5 35.5t35.5 15.5q22 0 37 -15t15 -36q0 -22 -15 -36.5t-37 -14.5zM862 940q0 -17 -20 -37l-709 -778q137 -107 338 -107q176 0 332 72q14 -11 14 -33q-151 -75 -348 -75q-216 0 -367 112l-96 -106q-22 0 -22 16q0 17 32 49
l764 840l23 20h-664q-4 17 6 37h715q2 -2 2 -10z" />
    <glyph glyph-name="Zcaron" unicode="&#x17d;" horiz-adv-x="1060" 
d="M688 1389q-21 -6 -41 0l-184 233q7 11 24 20l187 -215l264 218q15 -8 18 -23zM1090 1255l-1031 -1183l-30 -33h880q2 -16 -6 -39h-919q-4 4 -4 23q0 18 12 30l1022 1174l41 49h-852q-6 21 6 39h893q2 -4 2 -19q0 -24 -14 -41z" />
    <glyph glyph-name="zcaron" unicode="&#x17e;" horiz-adv-x="944" 
d="M526 1100q-19 -6 -37 0l-190 264q6 11 25 20l186 -247l268 252q16 -8 19 -25zM862 940q0 -17 -20 -37l-709 -778q137 -107 338 -107q176 0 332 72q14 -11 14 -33q-151 -75 -348 -75q-216 0 -367 112l-96 -106q-22 0 -22 16q0 17 32 49l764 840l23 20h-664q-4 17 6 37h715
q2 -2 2 -10z" />
    <glyph glyph-name="uni01EA" unicode="&#x1ea;" horiz-adv-x="1382" 
d="M858 18q-85 -59 -135.5 -126.5t-50.5 -129.5q0 -40 25 -60.5t59 -20.5q61 0 110 36q17 -7 17 -26q-63 -47 -133 -47q-121 0 -121 118q0 113 153 234q-75 -16 -147 -16q-242 0 -371 147t-129 395q0 178 48.5 330.5t133 259.5t203.5 168t256 61q240 0 372 -150.5
t132 -393.5q0 -295 -112.5 -499t-309.5 -280zM178 526q0 -235 119 -370.5t346 -135.5q274 0 434 212.5t160 564.5q0 229 -121.5 366t-347.5 137q-172 0 -307 -101t-209 -277.5t-74 -395.5z" />
    <glyph glyph-name="uni01EB" unicode="&#x1eb;" horiz-adv-x="1081" 
d="M678 31q-92 -61 -148.5 -132.5t-56.5 -136.5q0 -40 25 -60.5t59 -20.5q62 0 111 36q16 -6 16 -26q-63 -47 -133 -47q-121 0 -121 118q0 57 42 118t110 114q-52 -12 -111 -12q-177 0 -277 109t-100 298q0 159 59.5 293t175 217.5t265.5 83.5q176 0 270 -111t94 -299
q0 -178 -74.5 -325.5t-205.5 -216.5zM139 397q0 -171 87 -272.5t251 -101.5q103 0 187.5 46.5t138 123.5t82 173t28.5 199q0 170 -80.5 273.5t-244.5 103.5q-108 0 -196 -48t-142 -127t-82.5 -174t-28.5 -196z" />
    <glyph glyph-name="AEacute" unicode="&#x1fc;" horiz-adv-x="1521" 
d="M1337 1602l-366 -193q-10 10 -13 29l361 198q15 -6 18 -34zM1528 1276h-576l-114 -660h516q2 -22 -8 -38h-517l-94 -539h604q4 -22 -8 -39h-645l102 578h-397l-436 -582h-8q-23 0 -33 4l987 1315h633q5 -23 -6 -39zM795 616l112 633l2 21l-14 -21l-475 -633h375z" />
    <glyph glyph-name="aeacute" unicode="&#x1fd;" horiz-adv-x="1611" 
d="M823 1096q-13 8 -16 24l334 260q19 -11 22 -34zM334 -18q-48 0 -91 17.5t-80 53.5t-59 100.5t-22 149.5q0 180 68 335.5t190.5 250t271.5 94.5q200 0 318 -168q149 168 336 168q121 0 192.5 -62t71.5 -178q0 -159 -125.5 -239t-339.5 -80q-112 0 -250 22l-1 -6l-2.5 -15
t-3 -19.5t-2.5 -23t-1 -22.5q0 -172 80.5 -256t220.5 -84q71 0 135 20.5t94.5 39.5t77.5 55q18 -9 21 -33q-55 -38 -93 -59.5t-104 -41t-139 -19.5q-157 0 -243 90t-87 266q-67 -161 -184.5 -258.5t-249.5 -97.5zM1053 465q201 0 317.5 71.5t116.5 206.5q0 90 -61 145.5
t-166 55.5q-40 0 -82.5 -10t-96.5 -41t-100.5 -79.5t-90 -133.5t-69.5 -195q117 -20 232 -20zM344 23q135 0 266.5 136t167.5 308q40 186 125 311q-102 164 -295 164q-138 0 -249.5 -90t-171.5 -235t-60 -310q0 -139 60 -211.5t157 -72.5z" />
    <glyph glyph-name="Oslashacute" unicode="&#x1fe;" horiz-adv-x="1382" 
d="M963 1602l-367 -193q-9 9 -12 29l360 198q16 -7 19 -34zM1124 1217q156 -150 156 -420q0 -375 -176 -596t-469 -221q-174 0 -295 79l-94 -139q-19 3 -29 23l94 139q-87 70 -131.5 183t-44.5 257q0 178 48.5 330.5t133 259.5t203.5 168t256 61q195 0 322 -102l104 156
q23 -3 29 -21zM178 526q0 -273 158 -407l737 1085q-120 96 -305 96q-172 0 -307 -101t-209 -277.5t-74 -395.5zM643 20q274 0 434 212.5t160 564.5q0 249 -137 383l-735 -1084q112 -76 278 -76z" />
    <glyph glyph-name="oslashacute" unicode="&#x1ff;" horiz-adv-x="1081" 
d="M414 1096q-14 9 -17 24l334 260q20 -12 23 -34zM823 911q135 -108 135 -338q0 -158 -57 -291t-170 -216.5t-260 -83.5q-123 0 -209 53l-117 -180q-28 5 -32 18l118 184q-137 109 -137 332q0 159 59.5 293t175 217.5t265.5 83.5q116 0 201 -51l110 172q8 0 19 -5.5
t14 -11.5zM139 397q0 -201 117 -303l514 801q-71 47 -182 47q-108 0 -196 -48t-142 -127t-82.5 -174t-28.5 -196zM477 23q103 0 187.5 46.5t138 123.5t82 173t28.5 199q0 210 -114 307l-512 -798q76 -51 190 -51z" />
    <glyph glyph-name="Scommaaccent" unicode="&#x218;" horiz-adv-x="1019" 
d="M420 -27q-269 0 -397 156q6 23 30 31q116 -146 375 -146q185 0 294 93t109 239q0 63 -21 112.5t-56.5 81t-82 56t-97.5 44t-102 38.5t-97.5 44.5t-82 58.5t-56.5 84t-21 116q0 166 118 261t312 95q241 0 348 -133q-12 -22 -32 -30q-115 122 -324 122q-173 0 -276 -85
t-103 -230q0 -59 21 -104t56.5 -74t81.5 -52t97 -42t102 -38.5t97 -46.5t81.5 -62t56.5 -89t21 -123q0 -162 -123.5 -269.5t-328.5 -107.5zM313 -428q-12 4 -12 16q50 50 77.5 123t27.5 131q0 21 -5 66q9 6 25 6q8 0 20 -4q5 -15 5 -47q0 -89 -42 -167t-96 -124z" />
    <glyph glyph-name="scommaaccent" unicode="&#x219;" horiz-adv-x="858" 
d="M352 -14q-207 0 -327 112q9 22 28 31q113 -104 305 -104q135 0 217 65.5t82 175.5q0 62 -28 104t-72.5 64t-98 38.5t-107.5 33.5t-98.5 41.5t-72.5 70.5t-28 113q0 109 93 180.5t244 71.5q105 0 182.5 -29.5t114.5 -66.5q-8 -21 -26 -33q-110 88 -279 88q-124 0 -206 -60
t-82 -151q0 -52 22 -89t57.5 -56.5t81 -36.5t93 -28t93 -31t81 -45t57.5 -71t22 -108q0 -129 -97 -204.5t-251 -75.5zM238 -428q-13 4 -13 16q50 50 77.5 123t27.5 131q0 30 -4 66q9 6 24 6q9 0 21 -4q4 -12 4 -47q0 -89 -42 -167t-95 -124z" />
    <glyph glyph-name="uni021A" unicode="&#x21a;" horiz-adv-x="1034" 
d="M1135 1315q4 -18 -9 -37h-464l-226 -1278q-16 -4 -20 -4q-9 0 -21 4l226 1278h-463q-7 18 6 37h971zM426 -86q8 0 20 -4q5 -15 5 -47q0 -89 -42 -167t-96 -124q-12 4 -12 16q50 50 77.5 123t27.5 131q0 21 -5 66q9 6 25 6z" />
    <glyph glyph-name="uni021B" unicode="&#x21b;" horiz-adv-x="724" 
d="M365 922l-111 -627q-12 -55 -12 -119q0 -79 47 -116t123 -37q65 0 106 14.5t96 48.5q19 -13 19 -33q-1 0 -17 -9.5t-26.5 -15.5t-33 -15.5t-43 -15.5t-49.5 -10.5t-58 -4.5q-91 0 -148 46t-57 138q0 62 8 106l115 650h-234v10q0 12 6 24h234l47 265q8 4 20 4q13 0 21 -4
l-47 -265h370l2 -10q0 -12 -8 -24h-370zM389 -86q9 0 21 -4q4 -12 4 -47q0 -89 -42 -167t-96 -124q-12 4 -12 16q50 50 77.5 123t27.5 131q0 30 -4 66q9 6 24 6z" />
    <glyph glyph-name="circumflex" unicode="&#x2c6;" horiz-adv-x="581" 
d="M551 1386l184 -266q-7 -11 -24 -20l-181 248l-274 -252q-15 8 -18 24l276 266q18 6 37 0z" />
    <glyph glyph-name="caron" unicode="&#x2c7;" horiz-adv-x="579" 
d="M471 1100l-190 264q7 11 24 20l187 -247l268 252q15 -8 18 -25l-270 -264q-19 -6 -37 0z" />
    <glyph glyph-name="breve" unicode="&#x2d8;" horiz-adv-x="579" 
d="M485 1112q-40 0 -76 14t-65 42t-45.5 74.5t-13.5 105.5q17 4 34 2q-1 -99 50.5 -149t126.5 -50q78 0 146.5 51.5t96.5 147.5q12 0 29 -7q-28 -115 -104 -173t-179 -58z" />
    <glyph glyph-name="dotaccent" unicode="&#x2d9;" horiz-adv-x="237" 
d="M338 1198q-21 0 -36 15t-15 36q0 20 15.5 35.5t35.5 15.5q21 0 36 -15t15 -36q0 -22 -14.5 -36.5t-36.5 -14.5z" />
    <glyph glyph-name="ring" unicode="&#x2da;" horiz-adv-x="448" 
d="M420 1055q-71 0 -110.5 42t-39.5 107q0 88 58 145.5t133 57.5q71 0 110 -42t39 -108q0 -92 -55 -147t-135 -55zM428 1094q64 0 102.5 42.5t38.5 116.5q0 51 -28.5 83t-87.5 32q-57 0 -99.5 -44.5t-42.5 -113.5q0 -51 29.5 -83.5t87.5 -32.5z" />
    <glyph glyph-name="ogonek" unicode="&#x2db;" horiz-adv-x="389" 
d="M156 -356q-121 0 -121 118q0 76 71 155.5t173 139.5h45q-108 -65 -177 -144t-69 -151q0 -40 25 -60.5t59 -20.5q61 0 110 36q17 -7 17 -26q-63 -47 -133 -47z" />
    <glyph glyph-name="tilde" unicode="&#x2dc;" horiz-adv-x="727" 
d="M305 1169q-21 4 -29 19q48 64 87 90.5t106 26.5q44 0 88.5 -23.5t86.5 -46.5t79 -23q75 0 117 93q22 0 32 -13q-54 -118 -155 -118q-45 0 -89.5 23t-86 46t-78.5 23q-49 0 -85 -24t-73 -73z" />
    <glyph glyph-name="hungarumlaut" unicode="&#x2dd;" horiz-adv-x="610" 
d="M250 1065q-14 5 -21 18l260 322q22 -5 31 -27zM537 1065q-18 5 -21 18l258 322q20 -4 33 -27z" />
    <glyph glyph-name="gravecomb" unicode="&#x300;" 
d="M129 1098l-252 250q11 22 33 32l240 -260q-4 -11 -21 -22z" />
    <glyph glyph-name="acutecomb" unicode="&#x301;" 
d="M-152 1096q-13 8 -16 24l334 260q19 -11 22 -34z" />
    <glyph glyph-name="uni0302" unicode="&#x302;" 
d="M-29 1386l185 -266q-6 -11 -25 -20l-180 248l-275 -252q-15 8 -18 24l276 266q18 6 37 0z" />
    <glyph glyph-name="tildecomb" unicode="&#x303;" 
d="M-403 1169q-21 4 -29 19q48 64 86.5 90.5t105.5 26.5q44 0 88.5 -23.5t86.5 -46.5t79 -23q75 0 117 93q23 0 33 -13q-54 -118 -156 -118q-45 0 -89.5 23t-86 46t-78.5 23q-49 0 -84 -24t-73 -73z" />
    <glyph glyph-name="uni0304" unicode="&#x304;" 
d="M-336 1184q-4 0 -4 6q0 14 10 29h484q2 -4 2 -11q0 -15 -9 -24h-483z" />
    <glyph glyph-name="uni0306" unicode="&#x306;" 
d="M-94 1112q-40 0 -76 14t-65.5 42t-46 74.5t-13.5 105.5q18 4 35 2q-1 -99 50 -149t126 -50q78 0 147 51.5t97 147.5q10 0 28 -7q-28 -115 -103.5 -173t-178.5 -58z" />
    <glyph glyph-name="uni0307" unicode="&#x307;" 
d="M102 1198q-21 0 -36 15t-15 36q0 20 15.5 35.5t35.5 15.5q22 0 37 -15t15 -36q0 -22 -15 -36.5t-37 -14.5z" />
    <glyph glyph-name="uni0308" unicode="&#x308;" 
d="M-299 1186q-21 0 -36 15t-15 36q0 19 15.5 34t35.5 15t34.5 -15t14.5 -34q0 -22 -14.5 -36.5t-34.5 -14.5zM100 1186q-19 0 -34 15t-15 36q0 19 15 34t34 15q21 0 36.5 -15t15.5 -34q0 -22 -15 -36.5t-37 -14.5z" />
    <glyph glyph-name="uni030A" unicode="&#x30a;" 
d="M-27 1055q-71 0 -110 41.5t-39 107.5q0 88 57.5 145.5t132.5 57.5q71 0 110.5 -42t39.5 -108q0 -92 -55.5 -147t-135.5 -55zM-18 1094q64 0 102.5 42.5t38.5 116.5q0 51 -28.5 83t-88.5 32q-57 0 -99 -44.5t-42 -113.5q0 -51 29.5 -83.5t87.5 -32.5z" />
    <glyph glyph-name="uni030B" unicode="&#x30b;" 
d="M-352 1065q-14 5 -21 18l260 322q22 -5 31 -27zM-66 1065q-17 5 -20 18l258 322q20 -4 33 -27z" />
    <glyph glyph-name="uni030C" unicode="&#x30c;" 
d="M-109 1100l-190 264q6 11 25 20l186 -247l268 252q16 -8 19 -25l-271 -264q-18 -6 -37 0z" />
    <glyph glyph-name="uni0326" unicode="&#x326;" 
d="M-205 -428q-12 4 -12 16q50 50 77 123t27 131q0 30 -4 66q9 6 25 6q8 0 20 -4q4 -12 4 -47q0 -89 -42 -167t-95 -124z" />
    <glyph glyph-name="uni0327" unicode="&#x327;" 
d="M-221 0h41l-37 -98q79 -15 116.5 -42.5t37.5 -86.5q0 -54 -37 -92t-86.5 -53t-104.5 -15q-78 0 -102 12q3 25 16 37q27 -10 92 -10q74 0 126.5 29.5t52.5 87.5q0 49 -32.5 67t-131.5 37z" />
    <glyph glyph-name="uni0328" unicode="&#x328;" 
d="M-260 -356q-121 0 -121 118q0 76 71 155.5t173 139.5h45q-108 -65 -177 -144t-69 -151q0 -40 25 -60.5t59 -20.5q62 0 111 36q16 -6 16 -26q-63 -47 -133 -47z" />
    <glyph glyph-name="uni0335" unicode="&#x335;" 
d="M-317 946q-4 19 6 31h426q6 -19 -6 -31h-426z" />
    <glyph glyph-name="uni0336" unicode="&#x336;" 
d="M-1049 942l-2 14q0 12 9 21h1146q2 -2 2 -10q0 -17 -8 -25h-1147z" />
    <glyph glyph-name="uni0337" unicode="&#x337;" 
d="M-295 594q-14 12 -12 29l364 182q6 -3 10 -12.5t3 -16.5z" />
    <glyph glyph-name="uni0338" unicode="&#x338;" 
d="M-905 -152q-28 5 -33 19l793 1231q8 0 18.5 -5.5t13.5 -11.5z" />
    <glyph glyph-name="Wgrave" unicode="&#x1e80;" horiz-adv-x="1798" 
d="M1208 1442q-3 -16 -16 -29l-299 193q6 23 25 34zM1829 1319q6 0 12 -1l6 -1q-187 -724 -678 -1321q-8 -4 -28 -4q-13 0 -21 4q-113 508 -116 1040q-1 17 -1 37t0.5 45t0.5 39q-1 -5 -15 -50.5t-20 -68.5q-95 -306 -227.5 -552.5t-327.5 -489.5q-8 -4 -29 -4t-25 4
q-132 504 -151 1321q1 0 4.5 0.5t10 1t12.5 0.5l16 -2q11 -757 141 -1299q222 288 370 596t238 666q4 2 21 2l16 -2q-16 -575 109 -1255q476 579 659 1292q1 0 9 1t14 1z" />
    <glyph glyph-name="wgrave" unicode="&#x1e81;" horiz-adv-x="1484" 
d="M903 1120q-5 -12 -20 -22l-252 250q11 22 33 32zM1376 963q31 -70 31 -185q0 -90 -45.5 -207t-115 -225t-150 -202t-152.5 -148q-12 -4 -24 -4q-17 0 -25 4q-37 102 -76.5 292.5t-62.5 381.5q-39 -188 -160 -381.5t-244 -292.5q-12 -4 -24 -4q-17 0 -25 4
q-56 146 -109.5 442.5t-56.5 509.5q11 2 25 2q6 0 10 -0.5t5.5 -1t2.5 -0.5q1 -206 51.5 -495t92.5 -400q2 -4 5 -14t5 -14q8 6 22 20q148 140 266.5 368.5t118.5 401.5q-6 70 -6 133q11 2 25 2q6 0 10 -0.5t5.5 -1t2.5 -0.5q-1 -217 45.5 -497t91.5 -398q2 -4 3.5 -8.5
t4 -10t3.5 -9.5q8 6 22 20q161 143 289.5 360t128.5 375q0 64 -8.5 102t-28.5 81l24 2h1q12 0 22 -2z" />
    <glyph glyph-name="Wacute" unicode="&#x1e82;" horiz-adv-x="1798" 
d="M1235 1602l-367 -193q-9 9 -12 29l361 198q15 -6 18 -34zM1829 1319q6 0 12 -1l6 -1q-187 -724 -678 -1321q-8 -4 -28 -4q-13 0 -21 4q-113 508 -116 1040q-1 17 -1 37t0.5 45t0.5 39q-1 -5 -15 -50.5t-20 -68.5q-95 -306 -227.5 -552.5t-327.5 -489.5q-8 -4 -29 -4
t-25 4q-132 504 -151 1321q1 0 4.5 0.5t10 1t12.5 0.5l16 -2q11 -757 141 -1299q222 288 370 596t238 666q4 2 21 2l16 -2q-16 -575 109 -1255q476 579 659 1292q1 0 9 1t14 1z" />
    <glyph glyph-name="wacute" unicode="&#x1e83;" horiz-adv-x="1484" 
d="M602 1096q-13 8 -16 24l334 260q19 -11 22 -34zM1376 963q31 -70 31 -185q0 -90 -45.5 -207t-115 -225t-150 -202t-152.5 -148q-12 -4 -24 -4q-17 0 -25 4q-37 102 -76.5 292.5t-62.5 381.5q-39 -188 -160 -381.5t-244 -292.5q-12 -4 -24 -4q-17 0 -25 4
q-56 146 -109.5 442.5t-56.5 509.5q11 2 25 2q6 0 10 -0.5t5.5 -1t2.5 -0.5q1 -206 51.5 -495t92.5 -400q2 -4 5 -14t5 -14q8 6 22 20q148 140 266.5 368.5t118.5 401.5q-6 70 -6 133q11 2 25 2q6 0 10 -0.5t5.5 -1t2.5 -0.5q-1 -217 45.5 -497t91.5 -398q2 -4 3.5 -8.5
t4 -10t3.5 -9.5q8 6 22 20q161 143 289.5 360t128.5 375q0 64 -8.5 102t-28.5 81l24 2h1q12 0 22 -2z" />
    <glyph glyph-name="Wdieresis" unicode="&#x1e84;" horiz-adv-x="1798" 
d="M850 1491q-20 0 -34.5 14.5t-14.5 36.5q0 19 14.5 34t34.5 15q21 0 36 -15t15 -34q0 -22 -14.5 -36.5t-36.5 -14.5zM1251 1491q-21 0 -36 15t-15 36q0 19 15.5 34t35.5 15q21 0 35 -15t14 -34q0 -22 -13.5 -36.5t-35.5 -14.5zM1829 1319q6 0 12 -1l6 -1
q-187 -724 -678 -1321q-8 -4 -28 -4q-13 0 -21 4q-113 508 -116 1040q-1 17 -1 37t0.5 45t0.5 39q-1 -5 -15 -50.5t-20 -68.5q-95 -306 -227.5 -552.5t-327.5 -489.5q-8 -4 -29 -4t-25 4q-132 504 -151 1321q1 0 4.5 0.5t10 1t12.5 0.5l16 -2q11 -757 141 -1299
q222 288 370 596t238 666q4 2 21 2l16 -2q-16 -575 109 -1255q476 579 659 1292q1 0 9 1t14 1z" />
    <glyph glyph-name="wdieresis" unicode="&#x1e85;" horiz-adv-x="1484" 
d="M565 1186q-21 0 -36 15t-15 36q0 19 15.5 34t35.5 15t34.5 -15t14.5 -34q0 -22 -14.5 -36.5t-34.5 -14.5zM965 1186q-19 0 -34.5 15t-15.5 36q0 19 15.5 34t34.5 15q21 0 36 -15t15 -34q0 -22 -14.5 -36.5t-36.5 -14.5zM1376 963q31 -70 31 -185q0 -90 -45.5 -207
t-115 -225t-150 -202t-152.5 -148q-12 -4 -24 -4q-17 0 -25 4q-37 102 -76.5 292.5t-62.5 381.5q-39 -188 -160 -381.5t-244 -292.5q-12 -4 -24 -4q-17 0 -25 4q-56 146 -109.5 442.5t-56.5 509.5q11 2 25 2q6 0 10 -0.5t5.5 -1t2.5 -0.5q1 -206 51.5 -495t92.5 -400
q2 -4 5 -14t5 -14q8 6 22 20q148 140 266.5 368.5t118.5 401.5q-6 70 -6 133q11 2 25 2q6 0 10 -0.5t5.5 -1t2.5 -0.5q-1 -217 45.5 -497t91.5 -398q2 -4 3.5 -8.5t4 -10t3.5 -9.5q8 6 22 20q161 143 289.5 360t128.5 375q0 64 -8.5 102t-28.5 81l24 2h1q12 0 22 -2z" />
    <glyph glyph-name="uni1E9E" unicode="&#x1e9e;" horiz-adv-x="1239" 
d="M1143 1315q3 -9 0 -19q0 -11 -6 -20q-203 -28 -312.5 -125t-109.5 -225q0 -66 38.5 -122.5t131.5 -119.5q119 -81 173 -154.5t54 -181.5q0 -170 -105.5 -267t-281.5 -97q-181 0 -279 125q11 19 33 30q77 -116 252 -116q163 0 251.5 90.5t88.5 226.5q0 90 -47 158.5
t-164 150.5q-90 62 -138 123.5t-48 151.5q0 128 91.5 226t250.5 134q-168 -8 -266 -8q-116 0 -209.5 -40.5t-160.5 -131t-87 -223.5l-156 -881q-12 -4 -22 -4q-11 0 -19 4l156 885q17 109 65.5 193.5t117.5 135t150 76t171 25.5h387z" />
    <glyph glyph-name="Ygrave" unicode="&#x1ef2;" horiz-adv-x="1071" 
d="M850 1442q-3 -16 -16 -29l-299 193q6 24 24 34zM1159 1317l-600 -756l-98 -561q-8 -4 -21 -4q-12 0 -20 4l100 569l-352 748q20 4 35 4h6l330 -705l8 -16l8 16l557 705h14q13 0 33 -4z" />
    <glyph glyph-name="ygrave" unicode="&#x1ef3;" horiz-adv-x="1073" 
d="M784 1120q-5 -12 -20 -22l-252 250q11 22 33 32zM942 952q15 0 19 -4l-166 -944q-34 -190 -144 -290.5t-291 -100.5q-227 0 -325 127q11 26 33 29q94 -117 299 -117q161 0 259 91.5t128 260.5l22 125q-152 -94 -342 -94q-183 0 -253.5 99t-39.5 274l97 540q8 4 20 4
q13 0 21 -4l-97 -540q-60 -332 271 -332q166 0 329 96l138 776q12 4 22 4z" />
    <glyph glyph-name="uni1EF8" unicode="&#x1ef8;" horiz-adv-x="1071" 
d="M406 1454q-20 4 -29 19q50 66 88.5 93t105.5 27q47 0 95.5 -24t94 -48t85.5 -24q76 0 117 96q20 0 32 -12q-26 -59 -66.5 -91t-88.5 -32t-96.5 24t-93.5 48t-85 24q-49 0 -84.5 -24.5t-74.5 -75.5zM1159 1317l-600 -756l-98 -561q-8 -4 -21 -4q-12 0 -20 4l100 569
l-352 748q20 4 35 4h6l330 -705l8 -16l8 16l557 705h14q13 0 33 -4z" />
    <glyph glyph-name="uni1EF9" unicode="&#x1ef9;" horiz-adv-x="1073" 
d="M379 1169q-21 4 -29 19q48 64 87 90.5t106 26.5q44 0 88.5 -23.5t86.5 -46.5t79 -23q74 0 116 93q23 0 33 -13q-54 -118 -155 -118q-45 0 -89.5 23t-86 46t-78.5 23q-49 0 -85 -24t-73 -73zM942 952q15 0 19 -4l-166 -944q-34 -190 -144 -290.5t-291 -100.5
q-227 0 -325 127q11 26 33 29q94 -117 299 -117q161 0 259 91.5t128 260.5l22 125q-152 -94 -342 -94q-183 0 -253.5 99t-39.5 274l97 540q8 4 20 4q13 0 21 -4l-97 -540q-60 -332 271 -332q166 0 329 96l138 776q12 4 22 4z" />
    <glyph glyph-name="endash" unicode="&#x2013;" horiz-adv-x="1132" 
d="M145 492v14q0 15 9 24h815q2 -2 2 -10q0 -12 -8 -28h-818z" />
    <glyph glyph-name="emdash" unicode="&#x2014;" horiz-adv-x="2093" 
d="M147 494v14q0 10 7 24h1775q2 -2 2 -10q0 -17 -8 -28h-1776z" />
    <glyph glyph-name="quoteleft" unicode="&#x2018;" horiz-adv-x="358" 
d="M252 999q-14 0 -21 5q-4 12 -4 47q0 97 44.5 182t99.5 133q8 -3 12 -14q-55 -55 -83 -134t-28 -143q0 -51 4 -69q-14 -7 -24 -7z" />
    <glyph glyph-name="quoteright" unicode="&#x2019;" horiz-adv-x="362" 
d="M219 999q-12 4 -12 17q55 54 82.5 131.5t27.5 142.5q0 32 -4 72q12 4 25 4q14 0 20 -2q2 -6 2 -49q0 -98 -43.5 -183.5t-97.5 -132.5z" />
    <glyph glyph-name="quotesinglbase" unicode="&#x201a;" horiz-adv-x="362" 
d="M-4 -190q-12 4 -12 14q54 54 82 133t28 143q0 34 -4 70q9 6 23 6q10 0 22 -4q0 -1 1 -19t1 -30q0 -96 -43.5 -180.5t-97.5 -132.5z" />
    <glyph glyph-name="quotedblleft" unicode="&#x201c;" horiz-adv-x="552" 
d="M252 999q-14 0 -21 5q-4 12 -4 47q0 97 44.5 182t99.5 133q12 -4 12 -14q-55 -55 -83 -134t-28 -143q0 -51 4 -69q-14 -7 -24 -7zM446 999q-12 0 -20 5q-4 12 -4 47q0 97 43.5 182t97.5 133q12 -3 12 -14q-54 -55 -81 -133.5t-27 -143.5q0 -51 4 -69q-14 -7 -25 -7z" />
    <glyph glyph-name="quotedblright" unicode="&#x201d;" horiz-adv-x="557" 
d="M219 999q-12 4 -12 17q55 54 82.5 131.5t27.5 142.5q0 52 -4 72q12 4 25 4q14 0 20 -2q4 -12 4 -49q0 -98 -44 -183t-99 -133zM414 999q-13 4 -13 17q55 54 83 132t28 142q0 32 -4 72q12 4 24 4q15 0 21 -2q2 -6 2 -49q0 -98 -43.5 -183.5t-97.5 -132.5z" />
    <glyph glyph-name="quotedblbase" unicode="&#x201e;" horiz-adv-x="555" 
d="M-4 -190q-12 3 -12 14q55 54 82.5 132.5t27.5 143.5q0 34 -4 70q9 6 23 6q10 0 22 -4q0 -1 1 -19t1 -30q0 -96 -43.5 -180.5t-97.5 -132.5zM190 -190q-12 3 -12 14q54 54 82.5 133t28.5 143q0 34 -4 70q9 6 22 6q11 0 23 -4q0 -1 1 -19t1 -30q0 -96 -44 -180t-98 -133z
" />
    <glyph glyph-name="dagger" unicode="&#x2020;" horiz-adv-x="995" 
d="M952 1012q0 -17 -8 -25l-350 4l-229 -1298q-6 -4 -21 -4q-10 0 -18 4l229 1298l-352 -4q-2 4 -2 14q0 13 8 21l350 -4l80 450q7 5 20 5q14 0 19 -5l-80 -450l352 4q2 -4 2 -10z" />
    <glyph glyph-name="daggerdbl" unicode="&#x2021;" horiz-adv-x="995" 
d="M944 987l-350 4l-145 -821l352 4q2 -4 2 -10q0 -17 -8 -25l-351 4l-79 -450q-6 -4 -21 -4q-10 0 -18 4l80 450l-353 -4q-2 4 -2 15q0 12 8 20l351 -4l145 821l-352 -4q-2 4 -2 14q0 13 8 21l350 -4l80 450q7 5 20 5q14 0 19 -5l-80 -450l352 4q2 -4 2 -10q0 -17 -8 -25z
" />
    <glyph glyph-name="bullet" unicode="&#x2022;" horiz-adv-x="702" 
d="M346 371q-66 0 -113 46t-47 111q0 66 47 113t113 47t112 -47t46 -113q0 -65 -46 -111t-112 -46z" />
    <glyph glyph-name="ellipsis" unicode="&#x2026;" horiz-adv-x="1013" 
d="M127 -16q-22 0 -37.5 16t-15.5 39q0 21 16 37t37 16q23 0 38 -16t15 -37q0 -23 -15 -39t-38 -16zM430 -16q-21 0 -37 16t-16 39q0 20 16.5 36.5t36.5 16.5q23 0 39 -16t16 -37q0 -23 -16 -39t-39 -16zM745 -16q-22 0 -38.5 16t-16.5 39q0 20 16.5 36.5t38.5 16.5
q23 0 38.5 -16t15.5 -37q0 -23 -15.5 -39t-38.5 -16z" />
    <glyph glyph-name="perthousand" unicode="&#x2030;" horiz-adv-x="2082" 
d="M387 721q-113 0 -174 67.5t-61 172.5q0 154 84 243.5t213 89.5q112 0 173.5 -67t61.5 -170q0 -156 -82 -246t-215 -90zM141 -96l1076 1356q25 9 47 0l-1074 -1356q-29 -7 -49 0zM395 760q112 0 180 79.5t68 215.5q0 88 -50 144t-153 56q-105 0 -176 -79.5t-71 -212.5
q0 -88 54 -145.5t148 -57.5zM1032 -8q-114 0 -174.5 66.5t-60.5 170.5q0 155 84 245.5t211 90.5q114 0 175.5 -67t61.5 -170q0 -157 -82 -246.5t-215 -89.5zM1667 -8q-114 0 -174.5 66.5t-60.5 170.5q0 155 83.5 245.5t210.5 90.5q114 0 176 -67t62 -170q0 -157 -82 -246.5
t-215 -89.5zM1038 31q114 0 182 78.5t68 216.5q0 88 -50 144t-153 56q-105 0 -176 -80.5t-71 -214.5q0 -86 54 -143t146 -57zM1673 31q114 0 182 78.5t68 216.5q0 88 -50 144t-153 56q-105 0 -176 -80.5t-71 -214.5q0 -86 54 -143t146 -57z" />
    <glyph glyph-name="guilsinglleft" unicode="&#x2039;" horiz-adv-x="509" 
d="M281 246l-185 278l285 287q14 -5 16 -20l-241 -269l151 -254q-7 -14 -26 -22z" />
    <glyph glyph-name="guilsinglright" unicode="&#x203a;" horiz-adv-x="507" 
d="M117 246q-17 10 -19 22l242 254l-147 269q10 15 24 20l182 -287z" />
    <glyph glyph-name="fraction" unicode="&#x2044;" horiz-adv-x="1030" 
d="M-88 -98l1190 1450q25 6 47 0l-1190 -1450q-28 -6 -47 0z" />
    <glyph glyph-name="Euro" unicode="&#x20ac;" horiz-adv-x="1277" 
d="M926 1341q210 0 344 -131q-10 -22 -29 -32q-71 62 -142.5 92t-178.5 30q-204 0 -359.5 -126.5t-224.5 -344.5h465v-10q0 -13 -6 -28h-471q-34 -124 -37 -273h428v-10q0 -14 -6 -29h-422q6 -217 110 -338t314 -121q217 0 379 138q20 -8 20 -31q-179 -147 -408 -147
q-225 0 -339 133.5t-119 365.5h-174v10q0 16 8 29h166q3 138 35 273h-123v10q0 17 8 28h127q73 238 243.5 375t391.5 137z" />
    <glyph glyph-name="trademark" unicode="&#x2122;" horiz-adv-x="1425" 
d="M1352 1341q22 0 32 -4l-122 -706q-12 -4 -23 -4q-10 0 -18 4l102 577l8 41l-22 -39l-316 -526q-4 -2 -18 -2q-13 0 -17 2l-155 526l-8 41l-7 -43l-100 -577q-12 -4 -22 -4q-11 0 -19 4l125 706q9 6 33 6h4l164 -548l12 -52l33 52l330 546h4zM700 1303h-223l-119 -672
q-16 -4 -20 -4q-9 0 -21 4l119 672h-239q-2 4 -2 12q0 11 8 24h504q0 -2 1 -6t1 -6q0 -6 -9 -24z" />
    <glyph glyph-name="minus" unicode="&#x2212;" horiz-adv-x="1044" 
d="M145 463q-2 0 -2 18q6 19 9 19h720q2 0 2 -19q-4 -18 -8 -18h-721z" />
    <glyph glyph-name="approxequal" unicode="&#x2248;" horiz-adv-x="1030" 
d="M201 575q-26 0 -35 13q34 57 89 88t124 31q54 0 110.5 -23.5t107 -46.5t89.5 -23q120 0 174 93q22 0 35 -13q-70 -119 -215 -119q-58 0 -155 46.5t-152 46.5q-120 0 -172 -93zM135 209q-23 0 -35 12q70 119 215 119q53 0 109.5 -23t108 -46t90.5 -23q119 0 172 92
q22 0 34 -12q-70 -119 -215 -119q-58 0 -154.5 46t-152.5 46q-117 0 -172 -92z" />
    <glyph glyph-name="notequal" unicode="&#x2260;" horiz-adv-x="964" 
d="M819 899l-180 -248h180v-8q0 -15 -8 -31h-199l-198 -272h350v-10q0 -17 -6 -29h-373l-170 -235q-21 3 -27 18l158 217h-229v10q0 16 8 29h248l198 272h-399v11q0 17 8 28h418l195 269q6 0 15 -7.5t11 -13.5z" />
    <glyph glyph-name="dotlessj" unicode="&#xf6be;" horiz-adv-x="440" 
d="M-150 -397q-18 0 -35 2t-31.5 5.5t-27 7t-24.5 9.5t-20.5 10t-18 11t-13.5 9.5t-11 8.5l-7 6q9 25 29 35q76 -63 162 -63q41 0 79.5 14.5t74 45.5t62.5 87t40 131l174 1030q4 4 20 4q11 0 19 -4l-175 -1030q-15 -88 -46.5 -152.5t-73.5 -99.5t-85.5 -51t-91.5 -16z" />
    <glyph glyph-name="uniF8FF" unicode="&#xf8ff;" horiz-adv-x="2822" 
d="M1462 1176q-9 59 28 102t93 43q44 0 76.5 -30.5t40.5 -76.5q9 -60 -27.5 -102.5t-93.5 -42.5q-43 0 -76 31t-41 76zM532 553h-231q4 299 29 643h194q0 -9 3 -90.5t4 -143t2.5 -187t-1.5 -222.5zM1456 553q3 186 12 301h-118l2 -133q8 -8 28 -8q27 0 37 10l-4 -152
q-23 -30 -133 -30q-137 0 -156 108q-3 18 0 65.5t7 92t4 47.5h-43l4 162l231 61l2 -35h346q19 -147 11 -489h-230zM743 543q-69 0 -114 43t-58 129q-24 155 41 246.5t224 91.5q238 0 235 -240l-4 -260h-162l-12 125q-14 -67 -48.5 -101t-101.5 -34zM2228 553h-223
q1 57 4 111.5t3.5 66.5t-1.5 41q-3 31 -26 31q-21 0 -28 -14.5t-9 -45.5q0 -4 1.5 -69t0.5 -121h-221q4 352 28 489h156q10 -113 8 -155q2 19 9 41.5t23.5 53.5t49.5 51t78 20q83 0 114 -51.5t31 -165.5zM2736 860q23 -144 -36 -230.5t-206 -86.5q-100 0 -157.5 51.5
t-71.5 144.5q-6 34 -6 67t5 70t22.5 67.5t44.5 55.5t72.5 39.5t105.5 14.5q106 0 159.5 -53.5t67.5 -139.5zM868 782q-5 39 -45 39q-30 0 -39.5 -17.5t-3.5 -53.5q6 -43 41 -43q26 0 39 20.5t8 54.5zM2544 782q-5 39 -43 39q-29 0 -38 -17.5t-3 -53.5q6 -43 39 -43
q25 0 37 20.5t8 54.5zM938 487h203q6 -43 8 -51q15 -95 17.5 -171t-6 -132t-28.5 -97.5t-46.5 -67.5t-64.5 -42t-78 -22t-91 -6q-116 0 -170 34l4 170q40 -32 135 -32q25 0 45.5 5t31.5 11.5t18 15t9.5 15t2.5 10.5q-34 -23 -97 -23q-87 0 -129.5 41.5t-42.5 128.5v27h-106
l4 -133q8 -8 29 -8q25 0 35 10l-3 -150q-38 -30 -133 -30q-72 0 -108.5 26.5t-44.5 81.5q-4 8 -3 46t2 60t4 58t3 39h-35l4 164l228 59l-3 -37h345l-5 -243q0 -33 6 -44.5t23 -11.5q33 0 33 56zM1532 498q58 0 96.5 -43.5t50.5 -124.5q27 -162 -40 -251t-228 -89v-80h-231
q6 349 30 577h152q4 -22 7.5 -76t2.5 -79q3 15 7 29t16.5 41t28.5 46.5t44.5 34.5t63.5 15zM2181 311q9 -56 -6 -123h-242q23 -36 99 -36q66 0 106 24l-2 -153q-47 -33 -154 -33q-235 0 -266 198q-22 139 44 224.5t202 85.5q90 0 147 -48.5t72 -138.5zM2003 223q6 56 -33 56
q-45 0 -45 -56h78zM1403 147q7 0 19 4t26.5 12.5t22.5 27.5t4 45q-5 34 -37 34q-58 0 -43 -90q3 -23 8 -33zM2187 18q3 -38 45 -38q23 0 36.5 15t10.5 40q-6 39 -45 39q-24 0 -37.5 -16t-9.5 -40zM2198 18q-6 45 36 45q30 0 33 -28q6 -45 -35 -45q-28 0 -34 28zM2253 4
l-12 19q6 0 10.5 4t3.5 12q-3 12 -19 12h-22v-47h8l2 19h8l9 -19h12zM2236 31h-12v12h12q9 0 9 -4q0 -8 -9 -8z" />
    <glyph glyph-name="A.ss01" horiz-adv-x="1114" 
d="M717 1315q150 -522 241 -1313q-12 -6 -34 -6h-9q-21 197 -55 442h-643q-88 -168 -217 -440h-10q-21 0 -33 4q368 776 723 1313q6 2 18 2q13 0 19 -2zM238 477h616q-64 425 -149 725l-15 51l-31 -51q-213 -328 -421 -725z" />
    <glyph glyph-name="Aacute.ss01" horiz-adv-x="1114" 
d="M903 1602l-366 -193q-10 10 -13 29l361 198q15 -6 18 -34zM717 1315q150 -522 241 -1313q-12 -6 -34 -6h-9q-21 197 -55 442h-643q-88 -168 -217 -440h-10q-21 0 -33 4q368 776 723 1313q6 2 18 2q13 0 19 -2zM238 477h616q-64 425 -149 725l-15 51l-31 -51
q-213 -328 -421 -725z" />
    <glyph glyph-name="Abreve.ss01" horiz-adv-x="1114" 
d="M707 1430q-90 0 -151.5 55.5t-61.5 156.5q17 7 32 7q4 -87 57 -134t128 -47q80 0 143.5 46t93.5 133q17 0 31 -7q-30 -102 -101.5 -156t-170.5 -54zM698 1317q13 0 19 -2q150 -522 241 -1313q-12 -6 -34 -6h-9q-21 197 -55 442h-643q-88 -168 -217 -440h-10q-21 0 -33 4
q368 776 723 1313q6 2 18 2zM238 477h616q-64 425 -149 725l-15 51l-31 -51q-213 -328 -421 -725z" />
    <glyph glyph-name="Acircumflex.ss01" horiz-adv-x="1114" 
d="M469 1382q-15 8 -18 23l268 233q20 6 41 0l184 -233q-8 -13 -24 -21l-187 215zM717 1315q150 -522 241 -1313q-12 -6 -34 -6h-9q-21 197 -55 442h-643q-88 -168 -217 -440h-10q-21 0 -33 4q368 776 723 1313q6 2 18 2q13 0 19 -2zM238 477h616q-64 425 -149 725l-15 51
l-31 -51q-213 -328 -421 -725z" />
    <glyph glyph-name="Adieresis.ss01" horiz-adv-x="1114" 
d="M518 1491q-20 0 -34.5 14.5t-14.5 36.5q0 19 14.5 34t34.5 15q21 0 36 -15t15 -34q0 -22 -14.5 -36.5t-36.5 -14.5zM920 1491q-21 0 -36.5 15t-15.5 36q0 19 16 34t36 15q21 0 35 -15t14 -34q0 -22 -13.5 -36.5t-35.5 -14.5zM698 1317q13 0 19 -2q150 -522 241 -1313
q-12 -6 -34 -6h-9q-21 197 -55 442h-643q-88 -168 -217 -440h-10q-21 0 -33 4q368 776 723 1313q6 2 18 2zM238 477h616q-64 425 -149 725l-15 51l-31 -51q-213 -328 -421 -725z" />
    <glyph glyph-name="Agrave.ss01" horiz-adv-x="1114" 
d="M877 1442q-2 -14 -17 -29l-299 193q6 23 25 34zM717 1315q150 -522 241 -1313q-12 -6 -34 -6h-9q-21 197 -55 442h-643q-88 -168 -217 -440h-10q-21 0 -33 4q368 776 723 1313q6 2 18 2q13 0 19 -2zM238 477h616q-64 425 -149 725l-15 51l-31 -51q-213 -328 -421 -725z
" />
    <glyph glyph-name="Amacron.ss01" horiz-adv-x="1114" 
d="M467 1495q-5 1 -2 13.5t8 21.5h485q3 -6 1.5 -17.5t-7.5 -17.5h-485zM698 1317q13 0 19 -2q150 -522 241 -1313q-12 -6 -34 -6h-9q-21 197 -55 442h-643q-88 -168 -217 -440h-10q-21 0 -33 4q368 776 723 1313q6 2 18 2zM238 477h616q-64 425 -149 725l-15 51l-31 -51
q-213 -328 -421 -725z" />
    <glyph glyph-name="Aogonek.ss01" horiz-adv-x="1114" 
d="M1001 -281q16 -8 13 -28q-68 -47 -133 -47q-57 0 -88 28t-31 82q0 117 153 242q-21 197 -55 442h-643q-88 -168 -217 -440h-10q-21 0 -33 4q368 776 723 1313q6 2 18 2q13 0 19 -2q150 -522 241 -1313q-71 -57 -112 -120t-41 -120q0 -40 24.5 -60.5t59.5 -20.5
q61 0 112 38zM238 477h616q-64 425 -149 725l-15 51l-31 -51q-213 -328 -421 -725z" />
    <glyph glyph-name="Aring.ss01" horiz-adv-x="1114" 
d="M698 1337q-71 0 -110 42t-39 108q0 86 57.5 144.5t130.5 58.5q71 0 110.5 -42t39.5 -108q0 -93 -55 -148t-134 -55zM731 1651q-57 0 -100 -45.5t-43 -112.5q0 -50 30 -83.5t87 -33.5q64 0 102.5 42.5t38.5 117.5q0 51 -28.5 83t-86.5 32zM717 1315q150 -522 241 -1313
q-12 -6 -34 -6h-9q-21 197 -55 442h-643q-88 -168 -217 -440h-10q-21 0 -33 4q368 776 723 1313q6 2 18 2q13 0 19 -2zM238 477h616q-64 425 -149 725l-15 51l-31 -51q-213 -328 -421 -725z" />
    <glyph glyph-name="Atilde.ss01" horiz-adv-x="1114" 
d="M989 1593q21 0 33 -12q-26 -59 -67 -91t-89 -32t-96 24t-93 48t-85 24q-49 0 -85 -24.5t-75 -75.5q-20 4 -29 19q50 66 89 93t106 27q48 0 95.5 -24t93 -48t85.5 -24q76 0 117 96zM698 1317q13 0 19 -2q150 -522 241 -1313q-12 -6 -34 -6h-9q-21 197 -55 442h-643
q-88 -168 -217 -440h-10q-21 0 -33 4q368 776 723 1313q6 2 18 2zM238 477h616q-64 425 -149 725l-15 51l-31 -51q-213 -328 -421 -725z" />
    <glyph glyph-name="E.ss01" horiz-adv-x="962" 
d="M676 1329q181 0 278 -86q-6 -18 -26 -31q-93 78 -258 78t-274 -90.5t-109 -236.5q0 -42 16.5 -82t50.5 -76.5t96 -59t144 -22.5h151q3 -3 3 -12q0 -18 -9 -27h-151q-108 0 -198 -34t-147 -90t-88.5 -125.5t-31.5 -141.5q0 -131 84 -198.5t242 -67.5q109 0 189 23t167 83
q15 -10 18 -33q-167 -112 -383 -112q-172 0 -265 77.5t-93 223.5q0 88 34 162.5t90 124.5t122.5 81.5t138.5 44.5q-100 22 -160.5 92.5t-60.5 168.5q0 112 59.5 196.5t156 127t214.5 42.5z" />
    <glyph glyph-name="Eacute.ss01" horiz-adv-x="962" 
d="M879 1602l-367 -193q-9 9 -12 29l360 198q16 -7 19 -34zM676 1329q181 0 278 -86q-6 -18 -26 -31q-93 78 -258 78t-274 -90.5t-109 -236.5q0 -42 16.5 -82t50.5 -76.5t96 -59t144 -22.5h151q3 -3 3 -12q0 -18 -9 -27h-151q-108 0 -198 -34t-147 -90t-88.5 -125.5
t-31.5 -141.5q0 -131 84 -198.5t242 -67.5q109 0 189 23t167 83q15 -10 18 -33q-167 -112 -383 -112q-172 0 -265 77.5t-93 223.5q0 88 34 162.5t90 124.5t122.5 81.5t138.5 44.5q-100 22 -160.5 92.5t-60.5 168.5q0 112 59.5 196.5t156 127t214.5 42.5z" />
    <glyph glyph-name="Ecaron.ss01" horiz-adv-x="962" 
d="M680 1389q-21 -6 -41 0l-184 233q7 11 24 20l187 -215l264 218q15 -8 18 -23zM676 1329q181 0 278 -86q-6 -18 -26 -31q-93 78 -258 78t-274 -90.5t-109 -236.5q0 -42 16.5 -82t50.5 -76.5t96 -59t144 -22.5h151q3 -3 3 -12q0 -18 -9 -27h-151q-108 0 -198 -34t-147 -90
t-88.5 -125.5t-31.5 -141.5q0 -131 84 -198.5t242 -67.5q109 0 189 23t167 83q15 -10 18 -33q-167 -112 -383 -112q-172 0 -265 77.5t-93 223.5q0 88 34 162.5t90 124.5t122.5 81.5t138.5 44.5q-100 22 -160.5 92.5t-60.5 168.5q0 112 59.5 196.5t156 127t214.5 42.5z" />
    <glyph glyph-name="Ecircumflex.ss01" horiz-adv-x="962" 
d="M444 1382q-15 8 -18 23l268 233q20 6 41 0l185 -233q-7 -12 -25 -21l-186 215zM676 1329q181 0 278 -86q-6 -18 -26 -31q-93 78 -258 78t-274 -90.5t-109 -236.5q0 -42 16.5 -82t50.5 -76.5t96 -59t144 -22.5h151q3 -3 3 -12q0 -18 -9 -27h-151q-108 0 -198 -34t-147 -90
t-88.5 -125.5t-31.5 -141.5q0 -131 84 -198.5t242 -67.5q109 0 189 23t167 83q15 -10 18 -33q-167 -112 -383 -112q-172 0 -265 77.5t-93 223.5q0 88 34 162.5t90 124.5t122.5 81.5t138.5 44.5q-100 22 -160.5 92.5t-60.5 168.5q0 112 59.5 196.5t156 127t214.5 42.5z" />
    <glyph glyph-name="Edieresis.ss01" horiz-adv-x="962" 
d="M494 1491q-20 0 -35 14.5t-15 36.5q0 19 15 34t35 15q21 0 36 -15t15 -34q0 -22 -14.5 -36.5t-36.5 -14.5zM895 1491q-21 0 -36 15t-15 36q0 19 15.5 34t35.5 15q21 0 35 -15t14 -34q0 -22 -13.5 -36.5t-35.5 -14.5zM676 1329q181 0 278 -86q-6 -18 -26 -31
q-93 78 -258 78t-274 -90.5t-109 -236.5q0 -42 16.5 -82t50.5 -76.5t96 -59t144 -22.5h151q3 -3 3 -12q0 -18 -9 -27h-151q-108 0 -198 -34t-147 -90t-88.5 -125.5t-31.5 -141.5q0 -131 84 -198.5t242 -67.5q109 0 189 23t167 83q15 -10 18 -33q-167 -112 -383 -112
q-172 0 -265 77.5t-93 223.5q0 88 34 162.5t90 124.5t122.5 81.5t138.5 44.5q-100 22 -160.5 92.5t-60.5 168.5q0 112 59.5 196.5t156 127t214.5 42.5z" />
    <glyph glyph-name="Edotaccent.ss01" horiz-adv-x="962" 
d="M690 1493q-22 0 -37.5 15t-15.5 38q0 21 16 37t37 16q23 0 38 -16t15 -37q0 -23 -15 -38t-38 -15zM676 1329q181 0 278 -86q-6 -18 -26 -31q-93 78 -258 78t-274 -90.5t-109 -236.5q0 -42 16.5 -82t50.5 -76.5t96 -59t144 -22.5h151q3 -3 3 -12q0 -18 -9 -27h-151
q-108 0 -198 -34t-147 -90t-88.5 -125.5t-31.5 -141.5q0 -131 84 -198.5t242 -67.5q109 0 189 23t167 83q15 -10 18 -33q-167 -112 -383 -112q-172 0 -265 77.5t-93 223.5q0 88 34 162.5t90 124.5t122.5 81.5t138.5 44.5q-100 22 -160.5 92.5t-60.5 168.5q0 112 59.5 196.5
t156 127t214.5 42.5z" />
    <glyph glyph-name="Egrave.ss01" horiz-adv-x="962" 
d="M852 1442q-3 -16 -16 -29l-299 193q6 24 24 34zM676 1329q181 0 278 -86q-6 -18 -26 -31q-93 78 -258 78t-274 -90.5t-109 -236.5q0 -42 16.5 -82t50.5 -76.5t96 -59t144 -22.5h151q3 -3 3 -12q0 -18 -9 -27h-151q-108 0 -198 -34t-147 -90t-88.5 -125.5t-31.5 -141.5
q0 -131 84 -198.5t242 -67.5q109 0 189 23t167 83q15 -10 18 -33q-167 -112 -383 -112q-172 0 -265 77.5t-93 223.5q0 88 34 162.5t90 124.5t122.5 81.5t138.5 44.5q-100 22 -160.5 92.5t-60.5 168.5q0 112 59.5 196.5t156 127t214.5 42.5z" />
    <glyph glyph-name="Emacron.ss01" horiz-adv-x="962" 
d="M442 1495q-5 2 -2 14t9 21h485q3 -6 1.5 -17.5t-7.5 -17.5h-486zM676 1329q181 0 278 -86q-6 -18 -26 -31q-93 78 -258 78t-274 -90.5t-109 -236.5q0 -42 16.5 -82t50.5 -76.5t96 -59t144 -22.5h151q3 -3 3 -12q0 -18 -9 -27h-151q-108 0 -198 -34t-147 -90t-88.5 -125.5
t-31.5 -141.5q0 -131 84 -198.5t242 -67.5q109 0 189 23t167 83q15 -10 18 -33q-167 -112 -383 -112q-172 0 -265 77.5t-93 223.5q0 88 34 162.5t90 124.5t122.5 81.5t138.5 44.5q-100 22 -160.5 92.5t-60.5 168.5q0 112 59.5 196.5t156 127t214.5 42.5z" />
    <glyph glyph-name="Eogonek.ss01" horiz-adv-x="962" 
d="M676 1329q181 0 278 -86q-6 -18 -26 -31q-93 78 -258 78t-274 -90.5t-109 -236.5q0 -42 16.5 -82t50.5 -76.5t96 -59t144 -22.5h151q3 -3 3 -12q0 -18 -9 -27h-151q-108 0 -198 -34t-147 -90t-88.5 -125.5t-31.5 -141.5q0 -131 84 -198.5t242 -67.5q109 0 189 23t167 83
q15 -10 18 -33q-59 -38 -88 -51q-103 -63 -168 -140.5t-65 -146.5q0 -40 25 -60.5t59 -20.5q61 0 110 36q17 -7 17 -26q-63 -47 -133 -47q-121 0 -121 118q0 62 48.5 127.5t125.5 122.5q-91 -24 -193 -24q-172 0 -265 77.5t-93 223.5q0 88 34 162.5t90 124.5t122.5 81.5
t138.5 44.5q-100 22 -160.5 92.5t-60.5 168.5q0 112 59.5 196.5t156 127t214.5 42.5z" />
    <glyph glyph-name="Q.ss02" horiz-adv-x="1382" 
d="M1280 797q0 -264 -90 -456.5t-252 -285.5l123 -196q-15 -20 -31 -23l-127 203q-121 -59 -268 -59q-242 0 -371 147t-129 395q0 178 48.5 330.5t133 259.5t203.5 168t256 61q240 0 372 -150.5t132 -393.5zM643 20q127 0 240 52l-125 198q15 19 30 23l127 -203
q154 88 238 272t84 435q0 229 -121.5 366t-347.5 137q-172 0 -307 -101t-209 -277.5t-74 -395.5q0 -235 119 -370.5t346 -135.5z" />
    <glyph glyph-name="i.loclTRK" horiz-adv-x="411" 
d="M324 1198q-21 0 -36.5 15t-15.5 36q0 20 16 35.5t36 15.5q21 0 36 -15t15 -36q0 -22 -14.5 -36.5t-36.5 -14.5zM106 -4q-12 0 -20 4l170 958q10 5 20 5q11 0 21 -5l-170 -958q-8 -4 -21 -4z" />
    <glyph glyph-name="a.ss01" horiz-adv-x="1091" 
d="M827 205q-24 -132 80 -178q-2 -20 -14 -35q-57 18 -87.5 65t-23.5 123v13q-72 -105 -174 -158t-213 -53q-61 0 -114.5 21t-98 63t-70.5 113.5t-26 164.5q0 121 33.5 226.5t89.5 180t130 127.5t155.5 79t164.5 26q99 0 162 -18.5t127 -61.5h2zM406 23q110 0 215.5 62
t175.5 185l106 609q-91 63 -250 63q-96 0 -188 -39.5t-167 -111.5t-121 -186.5t-46 -252.5q0 -158 75.5 -243.5t199.5 -85.5z" />
    <glyph glyph-name="aacute.ss01" horiz-adv-x="1091" 
d="M530 1096q-13 8 -16 24l334 260q19 -11 22 -34zM827 205q-24 -132 80 -178q-2 -20 -14 -35q-57 18 -87.5 65t-23.5 123v13q-72 -105 -174 -158t-213 -53q-61 0 -114.5 21t-98 63t-70.5 113.5t-26 164.5q0 121 33.5 226.5t89.5 180t130 127.5t155.5 79t164.5 26
q99 0 162 -18.5t127 -61.5h2zM406 23q110 0 215.5 62t175.5 185l106 609q-91 63 -250 63q-96 0 -188 -39.5t-167 -111.5t-121 -186.5t-46 -252.5q0 -158 75.5 -243.5t199.5 -85.5z" />
    <glyph glyph-name="abreve.ss01" horiz-adv-x="1091" 
d="M651 1112q-40 0 -76 14t-65 42t-45.5 74.5t-13.5 105.5q17 4 34 2q-1 -99 50.5 -149t126.5 -50q78 0 146.5 51.5t96.5 147.5q11 0 29 -7q-28 -115 -104 -173t-179 -58zM827 205q-24 -132 80 -178q-2 -20 -14 -35q-57 18 -87.5 65t-23.5 123v13q-72 -105 -174 -158
t-213 -53q-61 0 -114.5 21t-98 63t-70.5 113.5t-26 164.5q0 121 33.5 226.5t89.5 180t130 127.5t155.5 79t164.5 26q99 0 162 -18.5t127 -61.5h2zM406 23q110 0 215.5 62t175.5 185l106 609q-91 63 -250 63q-96 0 -188 -39.5t-167 -111.5t-121 -186.5t-46 -252.5
q0 -158 75.5 -243.5t199.5 -85.5z" />
    <glyph glyph-name="acircumflex.ss01" horiz-adv-x="1091" 
d="M444 1096q-15 8 -18 24l276 266q18 6 37 0l185 -266q-6 -11 -25 -20l-180 248zM827 205q-24 -132 80 -178q-2 -20 -14 -35q-57 18 -87.5 65t-23.5 123v13q-72 -105 -174 -158t-213 -53q-61 0 -114.5 21t-98 63t-70.5 113.5t-26 164.5q0 121 33.5 226.5t89.5 180
t130 127.5t155.5 79t164.5 26q99 0 162 -18.5t127 -61.5h2zM406 23q110 0 215.5 62t175.5 185l106 609q-91 63 -250 63q-96 0 -188 -39.5t-167 -111.5t-121 -186.5t-46 -252.5q0 -158 75.5 -243.5t199.5 -85.5z" />
    <glyph glyph-name="adieresis.ss01" horiz-adv-x="1091" 
d="M494 1186q-21 0 -36.5 15t-15.5 36q0 19 16 34t36 15t34.5 -15t14.5 -34q0 -22 -14.5 -36.5t-34.5 -14.5zM893 1186q-19 0 -34 15t-15 36q0 19 15 34t34 15q21 0 36 -15t15 -34q0 -22 -14.5 -36.5t-36.5 -14.5zM827 205q-24 -132 80 -178q-2 -20 -14 -35q-57 18 -87.5 65
t-23.5 123v13q-72 -105 -174 -158t-213 -53q-61 0 -114.5 21t-98 63t-70.5 113.5t-26 164.5q0 121 33.5 226.5t89.5 180t130 127.5t155.5 79t164.5 26q99 0 162 -18.5t127 -61.5h2zM406 23q110 0 215.5 62t175.5 185l106 609q-91 63 -250 63q-96 0 -188 -39.5t-167 -111.5
t-121 -186.5t-46 -252.5q0 -158 75.5 -243.5t199.5 -85.5z" />
    <glyph glyph-name="agrave.ss01" horiz-adv-x="1091" 
d="M831 1120q-5 -12 -20 -22l-252 250q11 22 33 32zM827 205q-24 -132 80 -178q-2 -20 -14 -35q-57 18 -87.5 65t-23.5 123v13q-72 -105 -174 -158t-213 -53q-61 0 -114.5 21t-98 63t-70.5 113.5t-26 164.5q0 121 33.5 226.5t89.5 180t130 127.5t155.5 79t164.5 26
q99 0 162 -18.5t127 -61.5h2zM406 23q110 0 215.5 62t175.5 185l106 609q-91 63 -250 63q-96 0 -188 -39.5t-167 -111.5t-121 -186.5t-46 -252.5q0 -158 75.5 -243.5t199.5 -85.5z" />
    <glyph glyph-name="amacron.ss01" horiz-adv-x="1091" 
d="M442 1184q-4 0 -4 6q0 12 11 29h483q2 -4 2 -11q0 -16 -8 -24h-484zM827 205q-24 -132 80 -178q-2 -20 -14 -35q-57 18 -87.5 65t-23.5 123v13q-72 -105 -174 -158t-213 -53q-61 0 -114.5 21t-98 63t-70.5 113.5t-26 164.5q0 121 33.5 226.5t89.5 180t130 127.5t155.5 79
t164.5 26q99 0 162 -18.5t127 -61.5h2zM406 23q110 0 215.5 62t175.5 185l106 609q-91 63 -250 63q-96 0 -188 -39.5t-167 -111.5t-121 -186.5t-46 -252.5q0 -158 75.5 -243.5t199.5 -85.5z" />
    <glyph glyph-name="aogonek.ss01" horiz-adv-x="1087" 
d="M827 205q-12 -68 3 -111t71 -63q-3 -22 -14 -37q-287 -99 -287 -232q0 -40 25 -60.5t59 -20.5q64 0 115 38q15 -8 12 -28q-71 -47 -133 -47q-57 0 -88 28t-31 82q0 73 72 140.5t211 119.5q-73 49 -58 174v7q-72 -106 -174.5 -159.5t-214.5 -53.5q-61 0 -114.5 21t-98 63
t-70.5 113.5t-26 164.5q0 121 33.5 226.5t89.5 180t130 127.5t155.5 79t164.5 26q99 0 162 -18.5t127 -61.5h2zM406 23q110 0 215.5 62t175.5 185l106 609q-91 63 -250 63q-96 0 -188 -39.5t-167 -111.5t-121 -186.5t-46 -252.5q0 -158 75.5 -243.5t199.5 -85.5z" />
    <glyph glyph-name="aring.ss01" horiz-adv-x="1091" 
d="M672 1055q-71 0 -110.5 42t-39.5 107q0 88 58 145.5t133 57.5q71 0 110 -42t39 -108q0 -92 -55 -147t-135 -55zM705 1368q-57 0 -99.5 -44.5t-42.5 -113.5q0 -51 29.5 -83.5t87.5 -32.5q64 0 102.5 42.5t38.5 116.5q0 51 -28.5 83t-87.5 32zM827 205q-24 -132 80 -178
q-2 -20 -14 -35q-57 18 -87.5 65t-23.5 123v13q-72 -105 -174 -158t-213 -53q-61 0 -114.5 21t-98 63t-70.5 113.5t-26 164.5q0 121 33.5 226.5t89.5 180t130 127.5t155.5 79t164.5 26q99 0 162 -18.5t127 -61.5h2zM406 23q110 0 215.5 62t175.5 185l106 609q-91 63 -250 63
q-96 0 -188 -39.5t-167 -111.5t-121 -186.5t-46 -252.5q0 -158 75.5 -243.5t199.5 -85.5z" />
    <glyph glyph-name="atilde.ss01" horiz-adv-x="1091" 
d="M426 1169q-21 4 -29 19q48 64 87 90.5t106 26.5q44 0 88.5 -23.5t86.5 -46.5t79 -23q75 0 117 93q22 0 32 -13q-54 -118 -155 -118q-45 0 -89.5 23t-86 46t-78.5 23q-49 0 -85 -24t-73 -73zM950 903l-123 -698q-24 -132 80 -178q-2 -20 -14 -35q-57 18 -87.5 65
t-23.5 123v13q-72 -105 -174 -158t-213 -53q-61 0 -114.5 21t-98 63t-70.5 113.5t-26 164.5q0 121 33.5 226.5t89.5 180t130 127.5t155.5 79t164.5 26q99 0 162 -18.5t127 -61.5h2zM797 270l106 609q-91 63 -250 63q-96 0 -188 -39.5t-167 -111.5t-121 -186.5t-46 -252.5
q0 -158 75.5 -243.5t199.5 -85.5q110 0 215.5 62t175.5 185z" />
    <glyph glyph-name="b.ss01" horiz-adv-x="1067" 
d="M631 983q143 0 232 -96t89 -271q0 -121 -32.5 -225t-88.5 -178t-131 -127t-160 -78.5t-175 -25.5q-163 0 -279 73l227 1291q12 4 23 4q14 0 18 -4l-96 -551q152 188 373 188zM371 23q81 0 158.5 24t146.5 73t121 117.5t82 164t30 206.5q0 158 -79 246t-207 88
q-217 0 -379 -219l-113 -643q97 -57 240 -57z" />
    <glyph glyph-name="d.ss01" horiz-adv-x="1069" 
d="M1008 1354q12 0 20 -4l-240 -1350q-12 -4 -20 -4q-11 0 -23 4l19 102l14 82q-72 -100 -172.5 -151t-208.5 -51q-62 0 -116.5 21t-99 63t-70 113.5t-25.5 164.5q0 121 33.5 226.5t89.5 180t130 127.5t155.5 79t164.5 26q148 0 252 -55l76 422q8 4 21 4zM406 23
q109 0 213 62t174 183l110 611q-91 63 -252 63q-76 0 -150.5 -24.5t-141.5 -74t-118.5 -118.5t-81.5 -165.5t-30 -207.5q0 -157 76 -243t201 -86z" />
    <glyph glyph-name="dcaron.ss01" horiz-adv-x="1069" 
d="M1284 1448q2 -4 2 -39q0 -95 -38.5 -185t-80.5 -134q-6 0 -11 4t-5 8q39 52 63.5 132t24.5 152q0 36 -4 60q12 6 29 6q12 0 20 -4zM987 1350q8 4 21 4q12 0 20 -4l-240 -1350q-12 -4 -20 -4q-11 0 -23 4l19 102l14 82q-72 -100 -172.5 -151t-208.5 -51q-62 0 -116.5 21
t-99 63t-70 113.5t-25.5 164.5q0 121 33.5 226.5t89.5 180t130 127.5t155.5 79t164.5 26q148 0 252 -55zM406 23q109 0 213 62t174 183l110 611q-91 63 -252 63q-76 0 -150.5 -24.5t-141.5 -74t-118.5 -118.5t-81.5 -165.5t-30 -207.5q0 -157 76 -243t201 -86z" />
    <glyph glyph-name="dcroat.ss01" horiz-adv-x="1069" 
d="M1192 1202q6 -19 -6 -31h-189l-209 -1171q-12 -4 -20 -4q-11 0 -23 4l19 102l14 82q-72 -100 -172.5 -151t-208.5 -51q-62 0 -116.5 21t-99 63t-70 113.5t-25.5 164.5q0 121 33.5 226.5t89.5 180t130 127.5t155.5 79t164.5 26q148 0 252 -55l43 243h-194q-4 19 6 31h195
l26 148q8 4 21 4q12 0 20 -4l-27 -148h191zM406 23q109 0 213 62t174 183l110 611q-91 63 -252 63q-76 0 -150.5 -24.5t-141.5 -74t-118.5 -118.5t-81.5 -165.5t-30 -207.5q0 -157 76 -243t201 -86z" />
    <glyph glyph-name="f.ss01" horiz-adv-x="632" 
d="M651 1348q45 0 87 -10t61 -18.5t30 -16.5q-6 -23 -22 -35q-37 21 -72 30t-92 9q-234 0 -278 -279l-13 -72h314q7 -15 -7 -34h-311l-160 -1000q-26 -165 -116 -245t-215 -80q-64 0 -112 16t-64 29q3 21 22 34q35 -20 69.5 -29t92.5 -9q236 0 280 278l160 1006h-209
q-3 20 6 34h209l11 66q26 166 115.5 246t213.5 80z" />
    <glyph glyph-name="g.ss01" horiz-adv-x="1058" 
d="M647 983q185 0 297 -80l-158 -903q-33 -181 -164 -285t-305 -104q-135 0 -206.5 53.5t-71.5 145.5q0 93 80.5 160t275.5 112q-136 22 -217.5 111t-81.5 231q0 132 45.5 239.5t122 176.5t175 106t208.5 37zM139 432q0 -150 94 -235.5t254 -85.5q142 0 293 94l119 676
q-94 61 -256 61q-98 0 -187 -33t-160.5 -95t-114 -161t-42.5 -221zM317 -350q166 0 282.5 93t145.5 257l29 160q-106 -59 -201 -78q-143 -23 -240.5 -52t-151.5 -63.5t-76.5 -72t-22.5 -84.5q0 -73 61.5 -116.5t173.5 -43.5z" />
    <glyph glyph-name="gbreve.ss01" horiz-adv-x="1058" 
d="M616 1112q-40 0 -76 14t-65 42t-45.5 74.5t-13.5 105.5q18 4 35 2q-1 -99 50 -149t126 -50q78 0 146.5 51.5t96.5 147.5q12 0 29 -7q-28 -115 -104 -173t-179 -58zM647 983q185 0 297 -80l-158 -903q-33 -181 -164 -285t-305 -104q-135 0 -206.5 53.5t-71.5 145.5
q0 93 80.5 160t275.5 112q-136 22 -217.5 111t-81.5 231q0 132 45.5 239.5t122 176.5t175 106t208.5 37zM139 432q0 -150 94 -235.5t254 -85.5q142 0 293 94l119 676q-94 61 -256 61q-98 0 -187 -33t-160.5 -95t-114 -161t-42.5 -221zM317 -350q166 0 282.5 93t145.5 257
l29 160q-106 -59 -201 -78q-143 -23 -240.5 -52t-151.5 -63.5t-76.5 -72t-22.5 -84.5q0 -73 61.5 -116.5t173.5 -43.5z" />
    <glyph glyph-name="gcommaaccent.ss01" horiz-adv-x="1058" 
d="M604 1044q-5 0 -20 5q-4 12 -4 47q0 89 42 166.5t95 123.5q12 -4 12 -16q-50 -50 -77 -123t-27 -131q0 -29 4 -65q-11 -7 -25 -7zM647 983q185 0 297 -80l-158 -903q-33 -181 -164 -285t-305 -104q-135 0 -206.5 53.5t-71.5 145.5q0 93 80.5 160t275.5 112
q-136 22 -217.5 111t-81.5 231q0 132 45.5 239.5t122 176.5t175 106t208.5 37zM139 432q0 -150 94 -235.5t254 -85.5q142 0 293 94l119 676q-94 61 -256 61q-98 0 -187 -33t-160.5 -95t-114 -161t-42.5 -221zM317 -350q166 0 282.5 93t145.5 257l29 160q-106 -59 -201 -78
q-143 -23 -240.5 -52t-151.5 -63.5t-76.5 -72t-22.5 -84.5q0 -73 61.5 -116.5t173.5 -43.5z" />
    <glyph glyph-name="gdotaccent.ss01" horiz-adv-x="1058" 
d="M659 1198q-21 0 -36 15t-15 36q0 20 15.5 35.5t35.5 15.5q21 0 36.5 -15t15.5 -36q0 -22 -15 -36.5t-37 -14.5zM647 983q185 0 297 -80l-158 -903q-33 -181 -164 -285t-305 -104q-135 0 -206.5 53.5t-71.5 145.5q0 93 80.5 160t275.5 112q-136 22 -217.5 111t-81.5 231
q0 132 45.5 239.5t122 176.5t175 106t208.5 37zM139 432q0 -150 94 -235.5t254 -85.5q142 0 293 94l119 676q-94 61 -256 61q-98 0 -187 -33t-160.5 -95t-114 -161t-42.5 -221zM317 -350q166 0 282.5 93t145.5 257l29 160q-106 -59 -201 -78q-143 -23 -240.5 -52
t-151.5 -63.5t-76.5 -72t-22.5 -84.5q0 -73 61.5 -116.5t173.5 -43.5z" />
    <glyph glyph-name="k.ss01" horiz-adv-x="983" 
d="M905 754q0 -68 -21.5 -124t-55 -93.5t-83 -67t-96.5 -46t-104 -30.5l252 -393q-12 -4 -31 -4q-15 0 -23 2l-239 373q-12 17 -12 49q88 22 150 46.5t114.5 61.5t79 91t26.5 126q0 87 -61 142t-164 55q-136 0 -260.5 -108.5t-155.5 -288.5l-2 -15l-94 -530q-12 -4 -23 -4
q-10 0 -18 4l238 1346q8 4 20 4t20 -4l-108 -613q66 123 173 186.5t218 63.5q118 0 189 -64.5t71 -164.5z" />
    <glyph glyph-name="kcommaaccent.ss01" horiz-adv-x="983" 
d="M905 754q0 -68 -21.5 -124t-55 -93.5t-83 -67t-96.5 -46t-104 -30.5l252 -393q-12 -4 -31 -4q-15 0 -23 2l-239 373q-12 17 -12 49q88 22 150 46.5t114.5 61.5t79 91t26.5 126q0 87 -61 142t-164 55q-136 0 -260.5 -108.5t-155.5 -288.5l-2 -15l-94 -530q-12 -4 -23 -4
q-10 0 -18 4l238 1346q8 4 20 4t20 -4l-108 -613q66 123 173 186.5t218 63.5q118 0 189 -64.5t71 -164.5zM377 -86q8 0 20 -4q4 -12 4 -47q0 -89 -42 -167t-95 -124q-12 4 -12 16q50 50 77 123t27 131q0 30 -4 66q9 6 25 6z" />
    <glyph glyph-name="p.ss01" horiz-adv-x="1071" 
d="M647 983q61 0 115 -21t98.5 -64t70 -116t25.5 -168q0 -120 -33 -223.5t-89.5 -177.5t-130.5 -127t-155.5 -78.5t-164.5 -25.5q-156 0 -252 57l-76 -424q-12 -4 -22 -4q-11 0 -19 4l240 1343q15 5 20 5q6 0 21 -5l-31 -176q73 104 172.5 152.5t210.5 48.5zM389 23
q96 0 188 39t167 111t121 185t46 248q0 163 -75 249.5t-199 86.5q-110 0 -210.5 -58.5t-178.5 -183.5l-109 -612q89 -65 250 -65z" />
    <glyph glyph-name="q.ss01" horiz-adv-x="1067" 
d="M676 977q72 0 133.5 -14.5t87 -27t57.5 -32.5l-227 -1290q-12 -4 -22 -4q-11 0 -19 4l96 551q-152 -189 -372 -189q-143 0 -232.5 96.5t-89.5 270.5q0 151 50 274t133 200.5t187.5 119t217.5 41.5zM418 16q215 0 377 215l114 648q-97 57 -239 57q-102 0 -197.5 -39
t-172 -110.5t-123 -185t-46.5 -251.5q0 -157 79.5 -245.5t207.5 -88.5z" />
    <glyph glyph-name="v.ss01" horiz-adv-x="1024" 
d="M246 -23q-61 0 -101.5 39.5t-40.5 110.5q0 25 2 37l134 784q12 4 22 4q13 0 21 -4l-131 -766q-2 -12 -2 -37q0 -59 28 -93t82 -34q45 0 109.5 27t136 75t142 119.5t127 153.5t91.5 185t35 206q0 93 -37 174l22 3h1q9 0 24 -3q31 -69 31 -176q0 -105 -35 -211t-92 -192.5
t-130.5 -162.5t-150.5 -128t-152.5 -81.5t-135.5 -29.5z" />
    <glyph glyph-name="y.ss01" horiz-adv-x="1046" 
d="M913 952q13 0 21 -4l-170 -964q-30 -169 -155.5 -270t-291.5 -101q-110 0 -175.5 51t-65.5 146q0 187 315 260q-172 6 -237.5 101t-36.5 261l90 516q12 4 22 4q13 0 21 -4l-88 -497q-62 -351 266 -351q92 0 181.5 28.5t150.5 68.5l133 751q8 4 20 4zM324 -348
q151 0 262 93t137 239l29 163q-99 -54 -211 -75q-103 -16 -181 -39.5t-123 -49t-72.5 -56.5t-36.5 -58t-9 -57q0 -78 57.5 -119t147.5 -41z" />
    <glyph glyph-name="yacute.ss01" horiz-adv-x="1046" 
d="M438 1096q-13 8 -16 24l334 260q19 -11 22 -34zM913 952q13 0 21 -4l-170 -964q-30 -169 -155.5 -270t-291.5 -101q-110 0 -175.5 51t-65.5 146q0 187 315 260q-172 6 -237.5 101t-36.5 261l90 516q12 4 22 4q13 0 21 -4l-88 -497q-62 -351 266 -351q92 0 181.5 28.5
t150.5 68.5l133 751q8 4 20 4zM324 -348q151 0 262 93t137 239l29 163q-99 -54 -211 -75q-103 -16 -181 -39.5t-123 -49t-72.5 -56.5t-36.5 -58t-9 -57q0 -78 57.5 -119t147.5 -41z" />
    <glyph glyph-name="ycircumflex.ss01" horiz-adv-x="1046" 
d="M352 1096q-15 8 -18 24l276 266q18 6 37 0l184 -266q-7 -11 -24 -20l-180 248zM913 952q13 0 21 -4l-170 -964q-30 -169 -155.5 -270t-291.5 -101q-110 0 -175.5 51t-65.5 146q0 187 315 260q-172 6 -237.5 101t-36.5 261l90 516q12 4 22 4q13 0 21 -4l-88 -497
q-62 -351 266 -351q92 0 181.5 28.5t150.5 68.5l133 751q8 4 20 4zM324 -348q151 0 262 93t137 239l29 163q-99 -54 -211 -75q-103 -16 -181 -39.5t-123 -49t-72.5 -56.5t-36.5 -58t-9 -57q0 -78 57.5 -119t147.5 -41z" />
    <glyph glyph-name="ydieresis.ss01" horiz-adv-x="1046" 
d="M401 1186q-21 0 -36 15t-15 36q0 19 15.5 34t35.5 15t35 -15t15 -34q0 -21 -14.5 -36t-35.5 -15zM801 1186q-19 0 -34 15t-15 36q0 19 15 34t34 15q21 0 36 -15t15 -34q0 -22 -14.5 -36.5t-36.5 -14.5zM913 952q13 0 21 -4l-170 -964q-30 -169 -155.5 -270t-291.5 -101
q-110 0 -175.5 51t-65.5 146q0 187 315 260q-172 6 -237.5 101t-36.5 261l90 516q12 4 22 4q13 0 21 -4l-88 -497q-62 -351 266 -351q92 0 181.5 28.5t150.5 68.5l133 751q8 4 20 4zM324 -348q151 0 262 93t137 239l29 163q-99 -54 -211 -75q-103 -16 -181 -39.5t-123 -49
t-72.5 -56.5t-36.5 -58t-9 -57q0 -78 57.5 -119t147.5 -41z" />
    <glyph glyph-name="ygrave.ss01" horiz-adv-x="1046" 
d="M739 1120q-5 -12 -20 -22l-252 250q11 22 33 32zM913 952q13 0 21 -4l-170 -964q-30 -169 -155.5 -270t-291.5 -101q-110 0 -175.5 51t-65.5 146q0 187 315 260q-172 6 -237.5 101t-36.5 261l90 516q12 4 22 4q13 0 21 -4l-88 -497q-62 -351 266 -351q92 0 181.5 28.5
t150.5 68.5l133 751q8 4 20 4zM324 -348q151 0 262 93t137 239l29 163q-99 -54 -211 -75q-103 -16 -181 -39.5t-123 -49t-72.5 -56.5t-36.5 -58t-9 -57q0 -78 57.5 -119t147.5 -41z" />
    <glyph glyph-name="uni1EF9.ss01" horiz-adv-x="1046" 
d="M334 1169q-21 4 -29 19q48 64 87 90.5t106 26.5q44 0 88.5 -23.5t86.5 -46.5t79 -23q74 0 116 93q23 0 33 -13q-54 -118 -156 -118q-45 0 -89 23t-85.5 46t-78.5 23q-49 0 -85 -24t-73 -73zM913 952q13 0 21 -4l-170 -964q-30 -169 -155.5 -270t-291.5 -101
q-110 0 -175.5 51t-65.5 146q0 187 315 260q-172 6 -237.5 101t-36.5 261l90 516q12 4 22 4q13 0 21 -4l-88 -497q-62 -351 266 -351q92 0 181.5 28.5t150.5 68.5l133 751q8 4 20 4zM324 -348q151 0 262 93t137 239l29 163q-99 -54 -211 -75q-103 -16 -181 -39.5t-123 -49
t-72.5 -56.5t-36.5 -58t-9 -57q0 -78 57.5 -119t147.5 -41z" />
    <glyph glyph-name="a.ss02" horiz-adv-x="978" 
d="M719 137q0 -44 19.5 -67.5t66.5 -38.5q-3 -22 -14 -37q-56 15 -83.5 44t-27.5 89q0 7 4.5 28.5t11 52.5t9.5 52q-41 -97 -107 -161t-138 -90.5t-153 -26.5q-125 0 -198.5 62t-73.5 179q0 141 115.5 224t308.5 83h286l13 74q8 49 8 101q0 237 -246 237q-92 0 -162 -25.5
t-145 -76.5q-16 8 -16 28q155 115 329 115q130 0 206.5 -64t76.5 -202q0 -50 -8 -99l-23 -129h-2l-49 -284q-8 -54 -8 -68zM313 20q54 0 104.5 13.5t101.5 46.5t92 83.5t74 130t50 181.5l2 14h-284q-187 0 -280 -76.5t-93 -189.5q0 -94 60.5 -148.5t172.5 -54.5z" />
    <glyph glyph-name="aacute.ss02" horiz-adv-x="978" 
d="M377 1096q-14 9 -17 24l334 260q20 -12 23 -34zM719 137q0 -44 19.5 -67.5t66.5 -38.5q-3 -22 -14 -37q-56 15 -83.5 44t-27.5 89q0 7 4.5 28.5t11 52.5t9.5 52q-41 -97 -107 -161t-138 -90.5t-153 -26.5q-125 0 -198.5 62t-73.5 179q0 141 115.5 224t308.5 83h286l13 74
q8 49 8 101q0 237 -246 237q-92 0 -162 -25.5t-145 -76.5q-16 8 -16 28q155 115 329 115q130 0 206.5 -64t76.5 -202q0 -50 -8 -99l-23 -129h-2l-49 -284q-8 -54 -8 -68zM313 20q54 0 104.5 13.5t101.5 46.5t92 83.5t74 130t50 181.5l2 14h-284q-187 0 -280 -76.5
t-93 -189.5q0 -94 60.5 -148.5t172.5 -54.5z" />
    <glyph glyph-name="abreve.ss02" horiz-adv-x="978" 
d="M498 1112q-40 0 -76 14t-65.5 42t-46 74.5t-13.5 105.5q18 4 35 2q-1 -99 50 -149t126 -50q78 0 147 51.5t97 147.5q10 0 28 -7q-28 -115 -103.5 -173t-178.5 -58zM719 137q0 -44 19.5 -67.5t66.5 -38.5q-3 -22 -14 -37q-56 15 -83.5 44t-27.5 89q0 7 4.5 28.5t11 52.5
t9.5 52q-41 -97 -107 -161t-138 -90.5t-153 -26.5q-125 0 -198.5 62t-73.5 179q0 141 115.5 224t308.5 83h286l13 74q8 49 8 101q0 237 -246 237q-92 0 -162 -25.5t-145 -76.5q-16 8 -16 28q155 115 329 115q130 0 206.5 -64t76.5 -202q0 -50 -8 -99l-23 -129h-2l-49 -284
q-8 -54 -8 -68zM313 20q54 0 104.5 13.5t101.5 46.5t92 83.5t74 130t50 181.5l2 14h-284q-187 0 -280 -76.5t-93 -189.5q0 -94 60.5 -148.5t172.5 -54.5z" />
    <glyph glyph-name="acircumflex.ss02" horiz-adv-x="978" 
d="M291 1096q-16 8 -19 24l277 266q19 6 37 0l184 -266q-6 -11 -25 -20l-180 248zM719 137q0 -44 19.5 -67.5t66.5 -38.5q-3 -22 -14 -37q-56 15 -83.5 44t-27.5 89q0 7 4.5 28.5t11 52.5t9.5 52q-41 -97 -107 -161t-138 -90.5t-153 -26.5q-125 0 -198.5 62t-73.5 179
q0 141 115.5 224t308.5 83h286l13 74q8 49 8 101q0 237 -246 237q-92 0 -162 -25.5t-145 -76.5q-16 8 -16 28q155 115 329 115q130 0 206.5 -64t76.5 -202q0 -50 -8 -99l-23 -129h-2l-49 -284q-8 -54 -8 -68zM313 20q54 0 104.5 13.5t101.5 46.5t92 83.5t74 130t50 181.5
l2 14h-284q-187 0 -280 -76.5t-93 -189.5q0 -94 60.5 -148.5t172.5 -54.5z" />
    <glyph glyph-name="adieresis.ss02" horiz-adv-x="978" 
d="M340 1186q-21 0 -36 15t-15 36q0 19 15.5 34t35.5 15t34.5 -15t14.5 -34q0 -22 -14.5 -36.5t-34.5 -14.5zM739 1186q-19 0 -34 15t-15 36q0 19 15 34t34 15q21 0 36.5 -15t15.5 -34q0 -22 -15 -36.5t-37 -14.5zM719 137q0 -44 19.5 -67.5t66.5 -38.5q-3 -22 -14 -37
q-56 15 -83.5 44t-27.5 89q0 7 4.5 28.5t11 52.5t9.5 52q-41 -97 -107 -161t-138 -90.5t-153 -26.5q-125 0 -198.5 62t-73.5 179q0 141 115.5 224t308.5 83h286l13 74q8 49 8 101q0 237 -246 237q-92 0 -162 -25.5t-145 -76.5q-16 8 -16 28q155 115 329 115q130 0 206.5 -64
t76.5 -202q0 -50 -8 -99l-23 -129h-2l-49 -284q-8 -54 -8 -68zM313 20q54 0 104.5 13.5t101.5 46.5t92 83.5t74 130t50 181.5l2 14h-284q-187 0 -280 -76.5t-93 -189.5q0 -94 60.5 -148.5t172.5 -54.5z" />
    <glyph glyph-name="agrave.ss02" horiz-adv-x="978" 
d="M678 1120q-4 -11 -21 -22l-251 250q11 23 32 32zM719 137q0 -44 19.5 -67.5t66.5 -38.5q-3 -22 -14 -37q-56 15 -83.5 44t-27.5 89q0 7 4.5 28.5t11 52.5t9.5 52q-41 -97 -107 -161t-138 -90.5t-153 -26.5q-125 0 -198.5 62t-73.5 179q0 141 115.5 224t308.5 83h286
l13 74q8 49 8 101q0 237 -246 237q-92 0 -162 -25.5t-145 -76.5q-16 8 -16 28q155 115 329 115q130 0 206.5 -64t76.5 -202q0 -50 -8 -99l-23 -129h-2l-49 -284q-8 -54 -8 -68zM313 20q54 0 104.5 13.5t101.5 46.5t92 83.5t74 130t50 181.5l2 14h-284q-187 0 -280 -76.5
t-93 -189.5q0 -94 60.5 -148.5t172.5 -54.5z" />
    <glyph glyph-name="amacron.ss02" horiz-adv-x="978" 
d="M289 1184q-4 0 -4 6q0 14 10 29h483q2 -4 2 -11q0 -16 -8 -24h-483zM719 137q0 -44 19.5 -67.5t66.5 -38.5q-3 -22 -14 -37q-56 15 -83.5 44t-27.5 89q0 7 4.5 28.5t11 52.5t9.5 52q-41 -97 -107 -161t-138 -90.5t-153 -26.5q-125 0 -198.5 62t-73.5 179q0 141 115.5 224
t308.5 83h286l13 74q8 49 8 101q0 237 -246 237q-92 0 -162 -25.5t-145 -76.5q-16 8 -16 28q155 115 329 115q130 0 206.5 -64t76.5 -202q0 -50 -8 -99l-23 -129h-2l-49 -284q-8 -54 -8 -68zM313 20q54 0 104.5 13.5t101.5 46.5t92 83.5t74 130t50 181.5l2 14h-284
q-187 0 -280 -76.5t-93 -189.5q0 -94 60.5 -148.5t172.5 -54.5z" />
    <glyph glyph-name="aogonek.ss02" horiz-adv-x="978" 
d="M776 489l-49 -284q-12 -68 3 -111t71 -63q-3 -20 -15 -37q-149 -44 -217.5 -105.5t-68.5 -126.5q0 -40 25 -60.5t59 -20.5q63 0 114 38q16 -8 13 -28q-71 -47 -133 -47q-57 0 -88 28t-31 82q0 73 71.5 140.5t210.5 119.5q-72 49 -57 174l2 19l6 37
q-64 -133 -171.5 -197.5t-213.5 -64.5q-129 0 -200.5 61.5t-71.5 179.5q0 141 115.5 224t308.5 83h286l13 74q29 178 -37.5 258t-200.5 80q-92 0 -162 -25.5t-145 -76.5q-16 8 -16 28q155 115 329 115q151 0 229 -88.5t46 -276.5l-23 -129h-2zM313 20q41 0 85.5 11.5
t96 41.5t94.5 74t80 115t54 160l12 67h-282q-187 0 -280 -76.5t-93 -189.5q0 -94 60.5 -148.5t172.5 -54.5z" />
    <glyph glyph-name="aring.ss02" horiz-adv-x="978" 
d="M518 1055q-71 0 -110 41.5t-39 107.5q0 88 57.5 145.5t132.5 57.5q71 0 110.5 -42t39.5 -108q0 -92 -55.5 -147t-135.5 -55zM551 1368q-57 0 -99 -44.5t-42 -113.5q0 -51 29 -83.5t87 -32.5q64 0 103 42.5t39 116.5q0 51 -28.5 83t-88.5 32zM719 137q0 -44 19.5 -67.5
t66.5 -38.5q-3 -22 -14 -37q-56 15 -83.5 44t-27.5 89q0 7 4.5 28.5t11 52.5t9.5 52q-41 -97 -107 -161t-138 -90.5t-153 -26.5q-125 0 -198.5 62t-73.5 179q0 141 115.5 224t308.5 83h286l13 74q8 49 8 101q0 237 -246 237q-92 0 -162 -25.5t-145 -76.5q-16 8 -16 28
q155 115 329 115q130 0 206.5 -64t76.5 -202q0 -50 -8 -99l-23 -129h-2l-49 -284q-8 -54 -8 -68zM313 20q54 0 104.5 13.5t101.5 46.5t92 83.5t74 130t50 181.5l2 14h-284q-187 0 -280 -76.5t-93 -189.5q0 -94 60.5 -148.5t172.5 -54.5z" />
    <glyph glyph-name="atilde.ss02" horiz-adv-x="978" 
d="M272 1169q-20 3 -28 19q48 64 86.5 90.5t105.5 26.5q44 0 88.5 -23.5t86.5 -46.5t79 -23q75 0 117 93q23 0 33 -13q-54 -118 -156 -118q-45 0 -89.5 23t-86 46t-78.5 23q-49 0 -85 -24t-73 -73zM776 489l-49 -284q-8 -54 -8 -68q0 -44 19.5 -67.5t66.5 -38.5
q-3 -22 -14 -37q-56 15 -83.5 44t-27.5 89q0 7 4.5 28.5t11 52.5t9.5 52q-41 -97 -107 -161t-138 -90.5t-153 -26.5q-125 0 -198.5 62t-73.5 179q0 141 115.5 224t308.5 83h286l13 74q8 49 8 101q0 237 -246 237q-92 0 -162 -25.5t-145 -76.5q-16 8 -16 28q155 115 329 115
q130 0 206.5 -64t76.5 -202q0 -50 -8 -99l-23 -129h-2zM313 20q54 0 104.5 13.5t101.5 46.5t92 83.5t74 130t50 181.5l2 14h-284q-187 0 -280 -76.5t-93 -189.5q0 -94 60.5 -148.5t172.5 -54.5z" />
    <glyph glyph-name="e.ss02" horiz-adv-x="1019" 
d="M915 518h-765q-11 -75 -11 -133q0 -172 90 -268.5t256 -96.5q177 0 306 119q20 -6 26 -28q-139 -129 -338 -129q-176 0 -279.5 106.5t-103.5 296.5q0 118 29 217.5t77.5 168.5t113 118t135 71.5t143.5 22.5q152 0 242 -88.5t90 -261.5q0 -46 -11 -115zM586 944
q-154 0 -270.5 -104.5t-157.5 -284.5h719q6 49 6 80q0 156 -83.5 232.5t-213.5 76.5z" />
    <glyph glyph-name="eacute.ss02" horiz-adv-x="1019" 
d="M446 1096q-13 8 -16 24l334 260q19 -11 22 -34zM915 518h-765q-11 -75 -11 -133q0 -172 90 -268.5t256 -96.5q177 0 306 119q20 -6 26 -28q-139 -129 -338 -129q-176 0 -279.5 106.5t-103.5 296.5q0 118 29 217.5t77.5 168.5t113 118t135 71.5t143.5 22.5
q152 0 242 -88.5t90 -261.5q0 -46 -11 -115zM586 944q-154 0 -270.5 -104.5t-157.5 -284.5h719q6 49 6 80q0 156 -83.5 232.5t-213.5 76.5z" />
    <glyph glyph-name="ecaron.ss02" horiz-adv-x="1019" 
d="M604 1100q-19 -6 -37 0l-190 264q7 11 24 20l187 -247l268 252q15 -8 18 -25zM915 518h-765q-11 -75 -11 -133q0 -172 90 -268.5t256 -96.5q177 0 306 119q20 -6 26 -28q-139 -129 -338 -129q-176 0 -279.5 106.5t-103.5 296.5q0 118 29 217.5t77.5 168.5t113 118
t135 71.5t143.5 22.5q152 0 242 -88.5t90 -261.5q0 -46 -11 -115zM586 944q-154 0 -270.5 -104.5t-157.5 -284.5h719q6 49 6 80q0 156 -83.5 232.5t-213.5 76.5z" />
    <glyph glyph-name="ecircumflex.ss02" horiz-adv-x="1019" 
d="M360 1096q-15 8 -18 24l276 266q18 6 37 0l185 -266q-6 -11 -25 -20l-180 248zM915 518h-765q-11 -75 -11 -133q0 -172 90 -268.5t256 -96.5q177 0 306 119q20 -6 26 -28q-139 -129 -338 -129q-176 0 -279.5 106.5t-103.5 296.5q0 118 29 217.5t77.5 168.5t113 118
t135 71.5t143.5 22.5q152 0 242 -88.5t90 -261.5q0 -46 -11 -115zM586 944q-154 0 -270.5 -104.5t-157.5 -284.5h719q6 49 6 80q0 156 -83.5 232.5t-213.5 76.5z" />
    <glyph glyph-name="edieresis.ss02" horiz-adv-x="1019" 
d="M410 1186q-21 0 -36.5 15t-15.5 36q0 19 16 34t36 15t34.5 -15t14.5 -34q0 -22 -14.5 -36.5t-34.5 -14.5zM809 1186q-19 0 -34 15t-15 36q0 19 15 34t34 15q21 0 36 -15t15 -34q0 -22 -14.5 -36.5t-36.5 -14.5zM915 518h-765q-11 -75 -11 -133q0 -172 90 -268.5
t256 -96.5q177 0 306 119q20 -6 26 -28q-139 -129 -338 -129q-176 0 -279.5 106.5t-103.5 296.5q0 118 29 217.5t77.5 168.5t113 118t135 71.5t143.5 22.5q152 0 242 -88.5t90 -261.5q0 -46 -11 -115zM586 944q-154 0 -270.5 -104.5t-157.5 -284.5h719q6 49 6 80
q0 156 -83.5 232.5t-213.5 76.5z" />
    <glyph glyph-name="edotaccent.ss02" horiz-adv-x="1019" 
d="M610 1198q-21 0 -36 15t-15 36q0 20 15.5 35.5t35.5 15.5q22 0 37 -15t15 -36q0 -22 -15 -36.5t-37 -14.5zM915 518h-765q-11 -75 -11 -133q0 -172 90 -268.5t256 -96.5q177 0 306 119q20 -6 26 -28q-139 -129 -338 -129q-176 0 -279.5 106.5t-103.5 296.5
q0 118 29 217.5t77.5 168.5t113 118t135 71.5t143.5 22.5q152 0 242 -88.5t90 -261.5q0 -46 -11 -115zM586 944q-154 0 -270.5 -104.5t-157.5 -284.5h719q6 49 6 80q0 156 -83.5 232.5t-213.5 76.5z" />
    <glyph glyph-name="egrave.ss02" horiz-adv-x="1019" 
d="M748 1120q-4 -11 -21 -22l-252 250q11 22 33 32zM915 518h-765q-11 -75 -11 -133q0 -172 90 -268.5t256 -96.5q177 0 306 119q20 -6 26 -28q-139 -129 -338 -129q-176 0 -279.5 106.5t-103.5 296.5q0 118 29 217.5t77.5 168.5t113 118t135 71.5t143.5 22.5
q152 0 242 -88.5t90 -261.5q0 -46 -11 -115zM586 944q-154 0 -270.5 -104.5t-157.5 -284.5h719q6 49 6 80q0 156 -83.5 232.5t-213.5 76.5z" />
    <glyph glyph-name="emacron.ss02" horiz-adv-x="1019" 
d="M358 1184q-4 0 -4 6q0 12 11 29h483q2 -4 2 -11q0 -16 -8 -24h-484zM915 518h-765q-11 -75 -11 -133q0 -172 90 -268.5t256 -96.5q177 0 306 119q20 -6 26 -28q-139 -129 -338 -129q-176 0 -279.5 106.5t-103.5 296.5q0 118 29 217.5t77.5 168.5t113 118t135 71.5
t143.5 22.5q152 0 242 -88.5t90 -261.5q0 -46 -11 -115zM586 944q-154 0 -270.5 -104.5t-157.5 -284.5h719q6 49 6 80q0 156 -83.5 232.5t-213.5 76.5z" />
    <glyph glyph-name="eogonek.ss02" horiz-adv-x="1019" 
d="M915 518h-765q-11 -75 -11 -133q0 -172 90 -268.5t256 -96.5q177 0 306 119q20 -6 26 -28q-51 -48 -102 -74q-96 -63 -154.5 -136t-58.5 -139q0 -40 25 -60.5t59 -20.5q61 0 110 36q17 -7 17 -26q-63 -47 -133 -47q-121 0 -121 118q0 113 155 236q-66 -16 -135 -16
q-176 0 -279.5 106.5t-103.5 296.5q0 118 29 217.5t77.5 168.5t113 118t135 71.5t143.5 22.5q152 0 242 -88.5t90 -261.5q0 -46 -11 -115zM586 944q-154 0 -270.5 -104.5t-157.5 -284.5h719q6 49 6 80q0 156 -83.5 232.5t-213.5 76.5z" />
    <glyph glyph-name="g.ss02" horiz-adv-x="886" 
d="M903 1075q-44 -80 -95 -111t-116 -34q103 -90 103 -250q0 -161 -103 -265t-276 -104q-56 0 -115 17q-41 -35 -59.5 -64.5t-18.5 -66.5q0 -32 26.5 -54t69 -34.5t94 -23.5t103 -27t94 -38.5t69 -64t26.5 -98.5q0 -120 -107 -187t-289 -67q-131 0 -225.5 29.5t-144.5 72.5
q9 25 30 37q112 -98 346 -98q158 0 253.5 57t95.5 156q0 49 -26.5 83.5t-69 53t-94 32t-103 26t-94 28.5t-69 45.5t-26.5 71.5q0 76 80 145q-149 73 -149 268q0 161 113.5 260t283.5 99h162q139 0 196 129q27 -7 35 -23zM754 684q0 155 -119 246h-133q-151 0 -249.5 -89.5
t-98.5 -236.5q0 -122 70.5 -187t197.5 -65q148 0 240 91t92 241z" />
    <glyph glyph-name="gbreve.ss02" horiz-adv-x="886" 
d="M498 1112q-40 0 -76 14t-65.5 42t-46 74.5t-13.5 105.5q18 4 35 2q-1 -99 50 -149t126 -50q78 0 147 51.5t97 147.5q10 0 28 -7q-28 -115 -103.5 -173t-178.5 -58zM903 1075q-44 -80 -95 -111t-116 -34q103 -90 103 -250q0 -161 -103 -265t-276 -104q-56 0 -115 17
q-41 -35 -59.5 -64.5t-18.5 -66.5q0 -32 26.5 -54t69 -34.5t94 -23.5t103 -27t94 -38.5t69 -64t26.5 -98.5q0 -120 -107 -187t-289 -67q-131 0 -225.5 29.5t-144.5 72.5q9 25 30 37q112 -98 346 -98q158 0 253.5 57t95.5 156q0 49 -26.5 83.5t-69 53t-94 32t-103 26
t-94 28.5t-69 45.5t-26.5 71.5q0 76 80 145q-149 73 -149 268q0 161 113.5 260t283.5 99h162q139 0 196 129q27 -7 35 -23zM754 684q0 155 -119 246h-133q-151 0 -249.5 -89.5t-98.5 -236.5q0 -122 70.5 -187t197.5 -65q148 0 240 91t92 241z" />
    <glyph glyph-name="gcommaaccent.ss02" horiz-adv-x="886" 
d="M485 1044q-5 0 -20 5q-4 12 -4 47q0 89 42 166.5t95 123.5q12 -4 12 -16q-50 -50 -77 -123t-27 -131q0 -29 4 -65q-10 -7 -25 -7zM903 1075q-44 -80 -95 -111t-116 -34q103 -90 103 -250q0 -161 -103 -265t-276 -104q-56 0 -115 17q-41 -35 -59.5 -64.5t-18.5 -66.5
q0 -32 26.5 -54t69 -34.5t94 -23.5t103 -27t94 -38.5t69 -64t26.5 -98.5q0 -120 -107 -187t-289 -67q-131 0 -225.5 29.5t-144.5 72.5q9 25 30 37q112 -98 346 -98q158 0 253.5 57t95.5 156q0 49 -26.5 83.5t-69 53t-94 32t-103 26t-94 28.5t-69 45.5t-26.5 71.5
q0 76 80 145q-149 73 -149 268q0 161 113.5 260t283.5 99h162q139 0 196 129q27 -7 35 -23zM754 684q0 155 -119 246h-133q-151 0 -249.5 -89.5t-98.5 -236.5q0 -122 70.5 -187t197.5 -65q148 0 240 91t92 241z" />
    <glyph glyph-name="gdotaccent.ss02" horiz-adv-x="886" 
d="M541 1198q-21 0 -36.5 15t-15.5 36q0 20 16 35.5t36 15.5q21 0 36 -15t15 -36q0 -22 -14.5 -36.5t-36.5 -14.5zM903 1075q-44 -80 -95 -111t-116 -34q103 -90 103 -250q0 -161 -103 -265t-276 -104q-56 0 -115 17q-41 -35 -59.5 -64.5t-18.5 -66.5q0 -32 26.5 -54
t69 -34.5t94 -23.5t103 -27t94 -38.5t69 -64t26.5 -98.5q0 -120 -107 -187t-289 -67q-131 0 -225.5 29.5t-144.5 72.5q9 25 30 37q112 -98 346 -98q158 0 253.5 57t95.5 156q0 49 -26.5 83.5t-69 53t-94 32t-103 26t-94 28.5t-69 45.5t-26.5 71.5q0 76 80 145
q-149 73 -149 268q0 161 113.5 260t283.5 99h162q139 0 196 129q27 -7 35 -23zM754 684q0 155 -119 246h-133q-151 0 -249.5 -89.5t-98.5 -236.5q0 -122 70.5 -187t197.5 -65q148 0 240 91t92 241z" />
    <glyph glyph-name="k.ss02" horiz-adv-x="909" 
d="M877 952q-82 -127 -211.5 -247.5t-274.5 -206.5l410 -496q-16 -4 -33 -4q-12 0 -20 2l-394 477q-67 -39 -157 -71l-72 -406q-12 -4 -23 -4q-10 0 -18 4l238 1346q8 4 20 4t20 -4l-157 -897q162 64 346 211t280 292q8 2 25 2q5 0 13 -1z" />
    <glyph glyph-name="kcommaaccent.ss02" horiz-adv-x="909" 
d="M877 952q-82 -127 -211.5 -247.5t-274.5 -206.5l410 -496q-16 -4 -33 -4q-12 0 -20 2l-394 477q-67 -39 -157 -71l-72 -406q-12 -4 -23 -4q-10 0 -18 4l238 1346q8 4 20 4t20 -4l-157 -897q162 64 346 211t280 292q8 2 25 2q5 0 13 -1zM375 -86q8 0 20 -4q4 -12 4 -47
q0 -89 -42 -167t-95 -124q-12 4 -12 16q50 50 77 123t27 131q0 30 -4 66q9 6 25 6z" />
    <glyph glyph-name="l.ss02" horiz-adv-x="411" 
d="M109 -4q-13 0 -21 4l238 1350q12 4 22 4q11 0 19 -4l-238 -1350q-8 -4 -20 -4z" />
    <glyph glyph-name="lacute.ss02" horiz-adv-x="411" 
d="M203 1409q-10 10 -13 29l361 198q15 -6 18 -34zM109 -4q-13 0 -21 4l238 1350q12 4 22 4q11 0 19 -4l-238 -1350q-8 -4 -20 -4z" />
    <glyph glyph-name="lcaron.ss02" horiz-adv-x="411" 
d="M489 1090q-6 0 -11 4t-5 8q39 52 63.5 132t24.5 152q0 36 -4 60q12 6 29 6q12 0 20 -4q2 -4 2 -39q0 -95 -38.5 -185t-80.5 -134zM109 -4q-13 0 -21 4l238 1350q12 4 22 4q11 0 19 -4l-238 -1350q-8 -4 -20 -4z" />
    <glyph glyph-name="lcommaaccent.ss02" horiz-adv-x="411" 
d="M109 -4q-13 0 -21 4l238 1350q12 4 22 4q11 0 19 -4l-238 -1350q-8 -4 -20 -4zM-2 -428q-12 4 -12 16q50 50 77 123t27 131q0 30 -4 66q9 6 25 6q8 0 20 -4q4 -12 4 -47q0 -89 -42 -167t-95 -124z" />
    <glyph glyph-name="ldot.ss02" horiz-adv-x="464" 
d="M109 -4q-13 0 -21 4l238 1350q12 4 22 4q11 0 19 -4l-238 -1350q-8 -4 -20 -4zM459 621q-22 0 -39 15t-17 38q0 21 17 37t39 16t37.5 -15.5t15.5 -37.5q0 -23 -15.5 -38t-37.5 -15z" />
    <glyph glyph-name="lslash.ss02" horiz-adv-x="411" 
d="M401 748q6 -3 10 -12.5t3 -16.5l-174 -86l-111 -633q-8 -4 -20 -4q-13 0 -21 4l107 610l-146 -73q-14 11 -12 28l166 82l123 703q12 4 22 4q11 0 19 -4l-119 -680z" />
    <glyph glyph-name="v.ss02" horiz-adv-x="940" 
d="M909 950l19 -2q-18 -138 -118 -332t-223 -359t-229 -261q-12 -4 -24 -4q-17 0 -25 4q-58 150 -110.5 436.5t-55.5 515.5q11 2 25 2q6 0 10 -0.5t5.5 -1t2.5 -0.5q1 -222 50.5 -501t93.5 -394q2 -4 5 -12t5 -12q2 2 5.5 6t6.5 7t6 5q60 51 143.5 157.5t164.5 234
t144 267.5t77 242l21 2h1z" />
    <glyph glyph-name="w.ss02" horiz-adv-x="1421" 
d="M1374 950q4 0 11 -1t8 -1q-57 -251 -202.5 -539t-279.5 -413q-8 -4 -24 -4q-17 0 -25 4q-40 155 -73 390t-39 445q-59 -218 -181.5 -452.5t-240.5 -382.5q-8 -4 -23 -4q-16 0 -24 4q-50 148 -93.5 435.5t-52.5 516.5q11 2 23 2l16 -2q10 -216 52 -499.5t77 -395.5l6 -26
q11 11 23 26q93 130 225 400t182 483q4 2 25 2q6 0 10.5 -0.5t6.5 -1t3 -0.5q-2 -302 101 -883q6 -30 6 -33q21 21 31 33q93 94 234 377.5t196 517.5l21 2h1z" />
    <glyph glyph-name="wacute.ss02" horiz-adv-x="1421" 
d="M629 1096q-14 9 -17 24l334 260q20 -12 23 -34zM1374 950q4 0 11 -1t8 -1q-57 -251 -202.5 -539t-279.5 -413q-8 -4 -24 -4q-17 0 -25 4q-40 155 -73 390t-39 445q-59 -218 -181.5 -452.5t-240.5 -382.5q-8 -4 -23 -4q-16 0 -24 4q-50 148 -93.5 435.5t-52.5 516.5
q11 2 23 2l16 -2q10 -216 52 -499.5t77 -395.5l6 -26q11 11 23 26q93 130 225 400t182 483q4 2 25 2q6 0 10.5 -0.5t6.5 -1t3 -0.5q-2 -302 101 -883q6 -30 6 -33q21 21 31 33q93 94 234 377.5t196 517.5l21 2h1z" />
    <glyph glyph-name="wcircumflex.ss02" horiz-adv-x="1421" 
d="M543 1096q-16 8 -19 24l277 266q18 6 37 0l184 -266q-6 -11 -25 -20l-180 248zM1374 950q4 0 11 -1t8 -1q-57 -251 -202.5 -539t-279.5 -413q-8 -4 -24 -4q-17 0 -25 4q-40 155 -73 390t-39 445q-59 -218 -181.5 -452.5t-240.5 -382.5q-8 -4 -23 -4q-16 0 -24 4
q-50 148 -93.5 435.5t-52.5 516.5q11 2 23 2l16 -2q10 -216 52 -499.5t77 -395.5l6 -26q11 11 23 26q93 130 225 400t182 483q4 2 25 2q6 0 10.5 -0.5t6.5 -1t3 -0.5q-2 -302 101 -883q6 -30 6 -33q21 21 31 33q93 94 234 377.5t196 517.5l21 2h1z" />
    <glyph glyph-name="wdieresis.ss02" horiz-adv-x="1421" 
d="M592 1186q-21 0 -36 15t-15 36q0 19 15.5 34t35.5 15t34.5 -15t14.5 -34q0 -22 -14.5 -36.5t-34.5 -14.5zM991 1186q-19 0 -34 15t-15 36q0 19 15 34t34 15q21 0 36 -15t15 -34q0 -22 -14.5 -36.5t-36.5 -14.5zM1374 950q4 0 11 -1t8 -1q-57 -251 -202.5 -539
t-279.5 -413q-8 -4 -24 -4q-17 0 -25 4q-40 155 -73 390t-39 445q-59 -218 -181.5 -452.5t-240.5 -382.5q-8 -4 -23 -4q-16 0 -24 4q-50 148 -93.5 435.5t-52.5 516.5q11 2 23 2l16 -2q10 -216 52 -499.5t77 -395.5l6 -26q11 11 23 26q93 130 225 400t182 483q4 2 25 2
q6 0 10.5 -0.5t6.5 -1t3 -0.5q-2 -302 101 -883q6 -30 6 -33q21 21 31 33q93 94 234 377.5t196 517.5l21 2h1z" />
    <glyph glyph-name="wgrave.ss02" horiz-adv-x="1421" 
d="M930 1120q-4 -11 -21 -22l-252 250q11 22 33 32zM1374 950q4 0 11 -1t8 -1q-57 -251 -202.5 -539t-279.5 -413q-8 -4 -24 -4q-17 0 -25 4q-40 155 -73 390t-39 445q-59 -218 -181.5 -452.5t-240.5 -382.5q-8 -4 -23 -4q-16 0 -24 4q-50 148 -93.5 435.5t-52.5 516.5
q11 2 23 2l16 -2q10 -216 52 -499.5t77 -395.5l6 -26q11 11 23 26q93 130 225 400t182 483q4 2 25 2q6 0 10.5 -0.5t6.5 -1t3 -0.5q-2 -302 101 -883q6 -30 6 -33q21 21 31 33q93 94 234 377.5t196 517.5l21 2h1z" />
    <glyph glyph-name="y.ss02" horiz-adv-x="989" 
d="M885 948q12 -61 12 -110q0 -143 -36.5 -282t-114.5 -276t-192.5 -259t-278 -232.5t-363.5 -194.5q-14 10 -16 35q314 133 536 330q-135 159 -215 416t-80 528q0 29 4 47q1 0 3.5 0.5t7.5 1t10 0.5q6 0 11 -0.5t7.5 -1t3.5 -0.5q-4 -25 -4 -69q0 -265 83 -514t202 -377
q196 184 293.5 400.5t97.5 445.5q0 52 -18 110q8 4 28 4q4 0 11 -1t8 -1z" />
    <glyph glyph-name="yacute.ss02" horiz-adv-x="989" 
d="M379 1096q-14 9 -17 24l334 260q20 -12 23 -34zM885 948q12 -61 12 -110q0 -143 -36.5 -282t-114.5 -276t-192.5 -259t-278 -232.5t-363.5 -194.5q-14 10 -16 35q314 133 536 330q-135 159 -215 416t-80 528q0 29 4 47q1 0 3.5 0.5t7.5 1t10 0.5q6 0 11 -0.5t7.5 -1
t3.5 -0.5q-4 -25 -4 -69q0 -265 83 -514t202 -377q196 184 293.5 400.5t97.5 445.5q0 52 -18 110q8 4 28 4q4 0 11 -1t8 -1z" />
    <glyph glyph-name="ycircumflex.ss02" horiz-adv-x="989" 
d="M293 1096q-16 8 -19 24l277 266q19 6 37 0l184 -266q-7 -11 -24 -20l-181 248zM885 948q12 -61 12 -110q0 -143 -36.5 -282t-114.5 -276t-192.5 -259t-278 -232.5t-363.5 -194.5q-14 10 -16 35q314 133 536 330q-135 159 -215 416t-80 528q0 29 4 47q1 0 3.5 0.5t7.5 1
t10 0.5q6 0 11 -0.5t7.5 -1t3.5 -0.5q-4 -25 -4 -69q0 -265 83 -514t202 -377q196 184 293.5 400.5t97.5 445.5q0 52 -18 110q8 4 28 4q4 0 11 -1t8 -1z" />
    <glyph glyph-name="ydieresis.ss02" horiz-adv-x="989" 
d="M342 1186q-21 0 -36 15t-15 36q0 19 15.5 34t35.5 15t34.5 -15t14.5 -34q0 -22 -14.5 -36.5t-34.5 -14.5zM741 1186q-19 0 -34 15t-15 36q0 19 15 34t34 15q21 0 36.5 -15t15.5 -34q0 -22 -15 -36.5t-37 -14.5zM885 948q12 -61 12 -110q0 -143 -36.5 -282t-114.5 -276
t-192.5 -259t-278 -232.5t-363.5 -194.5q-14 10 -16 35q314 133 536 330q-135 159 -215 416t-80 528q0 29 4 47q1 0 3.5 0.5t7.5 1t10 0.5q6 0 11 -0.5t7.5 -1t3.5 -0.5q-4 -25 -4 -69q0 -265 83 -514t202 -377q196 184 293.5 400.5t97.5 445.5q0 52 -18 110q8 4 28 4
q4 0 11 -1t8 -1z" />
    <glyph glyph-name="ygrave.ss02" horiz-adv-x="989" 
d="M680 1120q-4 -11 -21 -22l-251 250q11 23 32 32zM885 948q12 -61 12 -110q0 -143 -36.5 -282t-114.5 -276t-192.5 -259t-278 -232.5t-363.5 -194.5q-14 10 -16 35q314 133 536 330q-135 159 -215 416t-80 528q0 29 4 47q1 0 3.5 0.5t7.5 1t10 0.5q6 0 11 -0.5t7.5 -1
t3.5 -0.5q-4 -25 -4 -69q0 -265 83 -514t202 -377q196 184 293.5 400.5t97.5 445.5q0 52 -18 110q8 4 28 4q4 0 11 -1t8 -1z" />
    <glyph glyph-name="uni1EF9.ss02" horiz-adv-x="989" 
d="M274 1169q-20 3 -28 19q48 64 86.5 90.5t105.5 26.5q44 0 88.5 -23.5t86.5 -46.5t79 -23q75 0 117 93q23 0 33 -13q-54 -118 -156 -118q-45 0 -89.5 23t-86 46t-78.5 23q-49 0 -85 -24t-73 -73zM885 948q12 -61 12 -110q0 -143 -36.5 -282t-114.5 -276t-192.5 -259
t-278 -232.5t-363.5 -194.5q-14 10 -16 35q314 133 536 330q-135 159 -215 416t-80 528q0 29 4 47q1 0 3.5 0.5t7.5 1t10 0.5q6 0 11 -0.5t7.5 -1t3.5 -0.5q-4 -25 -4 -69q0 -265 83 -514t202 -377q196 184 293.5 400.5t97.5 445.5q0 52 -18 110q8 4 28 4q4 0 11 -1t8 -1z
" />
    <glyph glyph-name="a.ss03" horiz-adv-x="962" 
d="M530 983q73 0 131 -19t100 -60t56 -105.5t0 -155.5l-102 -586q-141 -75 -344 -75q-159 0 -244.5 72t-85.5 200q0 150 117.5 237t287.5 87q182 0 308 -60l20 115q28 158 -43 233.5t-207 75.5q-92 0 -162 -25.5t-143 -76.5q-20 9 -20 28q155 115 331 115zM680 86l68 389
q-126 62 -310 62q-163 0 -256.5 -81t-93.5 -202q0 -108 74 -171t217 -63q92 0 171.5 20t129.5 46z" />
    <glyph glyph-name="aacute.ss03" horiz-adv-x="962" 
d="M406 1096q-14 9 -17 24l334 260q19 -11 22 -34zM530 983q73 0 131 -19t100 -60t56 -105.5t0 -155.5l-102 -586q-141 -75 -344 -75q-159 0 -244.5 72t-85.5 200q0 150 117.5 237t287.5 87q182 0 308 -60l20 115q28 158 -43 233.5t-207 75.5q-92 0 -162 -25.5t-143 -76.5
q-20 9 -20 28q155 115 331 115zM680 86l68 389q-126 62 -310 62q-163 0 -256.5 -81t-93.5 -202q0 -108 74 -171t217 -63q92 0 171.5 20t129.5 46z" />
    <glyph glyph-name="abreve.ss03" horiz-adv-x="962" 
d="M526 1112q-40 0 -76 14t-65 42t-45.5 74.5t-13.5 105.5q17 4 34 2q-1 -99 50.5 -149t126.5 -50q78 0 146.5 51.5t96.5 147.5q12 0 29 -7q-28 -115 -104 -173t-179 -58zM530 983q73 0 131 -19t100 -60t56 -105.5t0 -155.5l-102 -586q-141 -75 -344 -75q-159 0 -244.5 72
t-85.5 200q0 150 117.5 237t287.5 87q182 0 308 -60l20 115q28 158 -43 233.5t-207 75.5q-92 0 -162 -25.5t-143 -76.5q-20 9 -20 28q155 115 331 115zM680 86l68 389q-126 62 -310 62q-163 0 -256.5 -81t-93.5 -202q0 -108 74 -171t217 -63q92 0 171.5 20t129.5 46z" />
    <glyph glyph-name="acircumflex.ss03" horiz-adv-x="962" 
d="M319 1096q-15 8 -18 24l277 266q18 6 36 0l185 -266q-6 -11 -25 -20l-180 248zM530 983q73 0 131 -19t100 -60t56 -105.5t0 -155.5l-102 -586q-141 -75 -344 -75q-159 0 -244.5 72t-85.5 200q0 150 117.5 237t287.5 87q182 0 308 -60l20 115q28 158 -43 233.5t-207 75.5
q-92 0 -162 -25.5t-143 -76.5q-20 9 -20 28q155 115 331 115zM680 86l68 389q-126 62 -310 62q-163 0 -256.5 -81t-93.5 -202q0 -108 74 -171t217 -63q92 0 171.5 20t129.5 46z" />
    <glyph glyph-name="adieresis.ss03" horiz-adv-x="962" 
d="M369 1186q-21 0 -36.5 15t-15.5 36q0 19 16 34t36 15t34.5 -15t14.5 -34q0 -22 -14.5 -36.5t-34.5 -14.5zM768 1186q-19 0 -34 15t-15 36q0 19 15 34t34 15q21 0 36 -15t15 -34q0 -22 -14.5 -36.5t-36.5 -14.5zM530 983q73 0 131 -19t100 -60t56 -105.5t0 -155.5
l-102 -586q-141 -75 -344 -75q-159 0 -244.5 72t-85.5 200q0 150 117.5 237t287.5 87q182 0 308 -60l20 115q28 158 -43 233.5t-207 75.5q-92 0 -162 -25.5t-143 -76.5q-20 9 -20 28q155 115 331 115zM680 86l68 389q-126 62 -310 62q-163 0 -256.5 -81t-93.5 -202
q0 -108 74 -171t217 -63q92 0 171.5 20t129.5 46z" />
    <glyph glyph-name="agrave.ss03" horiz-adv-x="962" 
d="M707 1120q-4 -11 -21 -22l-252 250q11 22 33 32zM530 983q73 0 131 -19t100 -60t56 -105.5t0 -155.5l-102 -586q-141 -75 -344 -75q-159 0 -244.5 72t-85.5 200q0 150 117.5 237t287.5 87q182 0 308 -60l20 115q28 158 -43 233.5t-207 75.5q-92 0 -162 -25.5t-143 -76.5
q-20 9 -20 28q155 115 331 115zM680 86l68 389q-126 62 -310 62q-163 0 -256.5 -81t-93.5 -202q0 -108 74 -171t217 -63q92 0 171.5 20t129.5 46z" />
    <glyph glyph-name="amacron.ss03" horiz-adv-x="962" 
d="M317 1184q-4 0 -4 6q0 12 11 29h483q2 -4 2 -11q0 -16 -8 -24h-484zM530 983q73 0 131 -19t100 -60t56 -105.5t0 -155.5l-102 -586q-141 -75 -344 -75q-159 0 -244.5 72t-85.5 200q0 150 117.5 237t287.5 87q182 0 308 -60l20 115q28 158 -43 233.5t-207 75.5
q-92 0 -162 -25.5t-143 -76.5q-20 9 -20 28q155 115 331 115zM680 86l68 389q-126 62 -310 62q-163 0 -256.5 -81t-93.5 -202q0 -108 74 -171t217 -63q92 0 171.5 20t129.5 46z" />
    <glyph glyph-name="aogonek.ss03" horiz-adv-x="962" 
d="M530 983q73 0 131 -19t100 -60t56 -105.5t0 -155.5l-102 -586q-108 -65 -177 -144t-69 -151q0 -40 25 -60.5t59 -20.5q62 0 111 36q16 -6 16 -26q-63 -47 -133 -47q-121 0 -121 118q0 62 48.5 127.5t125.5 122.5q-98 -30 -229 -30q-159 0 -244.5 72t-85.5 200
q0 150 117.5 237t287.5 87q182 0 308 -60l20 115q28 158 -43 233.5t-207 75.5q-92 0 -162 -25.5t-143 -76.5q-20 9 -20 28q155 115 331 115zM680 86l68 389q-126 62 -310 62q-163 0 -256.5 -81t-93.5 -202q0 -108 74 -171t217 -63q92 0 171.5 20t129.5 46z" />
    <glyph glyph-name="aring.ss03" horiz-adv-x="962" 
d="M547 1055q-71 0 -110.5 42t-39.5 107q0 88 58 145.5t133 57.5q71 0 110 -42t39 -108q0 -92 -55 -147t-135 -55zM580 1368q-57 0 -99.5 -44.5t-42.5 -113.5q0 -51 29.5 -83.5t87.5 -32.5q64 0 102.5 42.5t38.5 116.5q0 51 -28.5 83t-87.5 32zM530 983q73 0 131 -19
t100 -60t56 -105.5t0 -155.5l-102 -586q-141 -75 -344 -75q-159 0 -244.5 72t-85.5 200q0 150 117.5 237t287.5 87q182 0 308 -60l20 115q28 158 -43 233.5t-207 75.5q-92 0 -162 -25.5t-143 -76.5q-20 9 -20 28q155 115 331 115zM680 86l68 389q-126 62 -310 62
q-163 0 -256.5 -81t-93.5 -202q0 -108 74 -171t217 -63q92 0 171.5 20t129.5 46z" />
    <glyph glyph-name="atilde.ss03" horiz-adv-x="962" 
d="M301 1169q-21 4 -29 19q48 64 87 90.5t106 26.5q44 0 88.5 -23.5t86.5 -46.5t79 -23q75 0 117 93q22 0 32 -13q-54 -118 -155 -118q-45 0 -89.5 23t-86 46t-78.5 23q-49 0 -85 -24t-73 -73zM530 983q73 0 131 -19t100 -60t56 -105.5t0 -155.5l-102 -586
q-141 -75 -344 -75q-159 0 -244.5 72t-85.5 200q0 150 117.5 237t287.5 87q182 0 308 -60l20 115q28 158 -43 233.5t-207 75.5q-92 0 -162 -25.5t-143 -76.5q-20 9 -20 28q155 115 331 115zM680 86l68 389q-126 62 -310 62q-163 0 -256.5 -81t-93.5 -202q0 -108 74 -171
t217 -63q92 0 171.5 20t129.5 46z" />
    <glyph glyph-name="e.ss03" horiz-adv-x="995" 
d="M592 475h-447q-6 -47 -6 -96q0 -170 96.5 -264.5t253.5 -94.5q160 0 289 117q20 -9 23 -33q-72 -60 -144 -91t-176 -31q-173 0 -280 103t-107 294q0 137 40 251.5t108.5 191t161.5 119t198 42.5q145 0 230.5 -69.5t85.5 -176.5q0 -130 -91.5 -196t-234.5 -66zM594 944
q-163 0 -286 -117t-156 -313h444q118 0 196 55t78 160q0 95 -71 155t-205 60z" />
    <glyph glyph-name="eacute.ss03" horiz-adv-x="995" 
d="M489 1096q-13 8 -16 24l334 260q19 -11 22 -34zM592 475h-447q-6 -47 -6 -96q0 -170 96.5 -264.5t253.5 -94.5q160 0 289 117q20 -9 23 -33q-72 -60 -144 -91t-176 -31q-173 0 -280 103t-107 294q0 137 40 251.5t108.5 191t161.5 119t198 42.5q145 0 230.5 -69.5
t85.5 -176.5q0 -130 -91.5 -196t-234.5 -66zM594 944q-163 0 -286 -117t-156 -313h444q118 0 196 55t78 160q0 95 -71 155t-205 60z" />
    <glyph glyph-name="ecaron.ss03" horiz-adv-x="995" 
d="M647 1100q-19 -6 -37 0l-190 264q7 11 24 20l187 -247l268 252q16 -8 19 -25zM602 983q145 0 230.5 -69.5t85.5 -176.5q0 -130 -91.5 -196t-234.5 -66h-447q-6 -47 -6 -96q0 -170 96.5 -264.5t253.5 -94.5q160 0 289 117q20 -9 23 -33q-72 -60 -144 -91t-176 -31
q-173 0 -280 103t-107 294q0 137 40 251.5t108.5 191t161.5 119t198 42.5zM596 514q118 0 196 55t78 160q0 95 -71 155t-205 60q-163 0 -286 -117t-156 -313h444z" />
    <glyph glyph-name="ecircumflex.ss03" horiz-adv-x="995" 
d="M403 1096q-15 8 -18 24l277 266q18 6 36 0l185 -266q-6 -11 -25 -20l-180 248zM592 475h-447q-6 -47 -6 -96q0 -170 96.5 -264.5t253.5 -94.5q160 0 289 117q20 -9 23 -33q-72 -60 -144 -91t-176 -31q-173 0 -280 103t-107 294q0 137 40 251.5t108.5 191t161.5 119
t198 42.5q145 0 230.5 -69.5t85.5 -176.5q0 -130 -91.5 -196t-234.5 -66zM594 944q-163 0 -286 -117t-156 -313h444q118 0 196 55t78 160q0 95 -71 155t-205 60z" />
    <glyph glyph-name="edieresis.ss03" horiz-adv-x="995" 
d="M453 1186q-21 0 -36.5 15t-15.5 36q0 19 16 34t36 15t34.5 -15t14.5 -34q0 -22 -14.5 -36.5t-34.5 -14.5zM852 1186q-19 0 -34 15t-15 36q0 19 15 34t34 15q21 0 36 -15t15 -34q0 -22 -14.5 -36.5t-36.5 -14.5zM592 475h-447q-6 -47 -6 -96q0 -170 96.5 -264.5
t253.5 -94.5q160 0 289 117q20 -9 23 -33q-72 -60 -144 -91t-176 -31q-173 0 -280 103t-107 294q0 137 40 251.5t108.5 191t161.5 119t198 42.5q145 0 230.5 -69.5t85.5 -176.5q0 -130 -91.5 -196t-234.5 -66zM594 944q-163 0 -286 -117t-156 -313h444q118 0 196 55t78 160
q0 95 -71 155t-205 60z" />
    <glyph glyph-name="edotaccent.ss03" horiz-adv-x="995" 
d="M653 1198q-21 0 -36 15t-15 36q0 20 15.5 35.5t35.5 15.5q21 0 36.5 -15t15.5 -36q0 -22 -15 -36.5t-37 -14.5zM592 475h-447q-6 -47 -6 -96q0 -170 96.5 -264.5t253.5 -94.5q160 0 289 117q20 -9 23 -33q-72 -60 -144 -91t-176 -31q-173 0 -280 103t-107 294
q0 137 40 251.5t108.5 191t161.5 119t198 42.5q145 0 230.5 -69.5t85.5 -176.5q0 -130 -91.5 -196t-234.5 -66zM594 944q-163 0 -286 -117t-156 -313h444q118 0 196 55t78 160q0 95 -71 155t-205 60z" />
    <glyph glyph-name="egrave.ss03" horiz-adv-x="995" 
d="M791 1120q-4 -11 -21 -22l-252 250q11 22 33 32zM592 475h-447q-6 -47 -6 -96q0 -170 96.5 -264.5t253.5 -94.5q160 0 289 117q20 -9 23 -33q-72 -60 -144 -91t-176 -31q-173 0 -280 103t-107 294q0 137 40 251.5t108.5 191t161.5 119t198 42.5q145 0 230.5 -69.5
t85.5 -176.5q0 -130 -91.5 -196t-234.5 -66zM594 944q-163 0 -286 -117t-156 -313h444q118 0 196 55t78 160q0 95 -71 155t-205 60z" />
    <glyph glyph-name="emacron.ss03" horiz-adv-x="995" 
d="M401 1184q-4 0 -4 6q0 12 11 29h483q2 -4 2 -11q0 -16 -8 -24h-484zM592 475h-447q-6 -47 -6 -96q0 -170 96.5 -264.5t253.5 -94.5q160 0 289 117q20 -9 23 -33q-72 -60 -144 -91t-176 -31q-173 0 -280 103t-107 294q0 137 40 251.5t108.5 191t161.5 119t198 42.5
q145 0 230.5 -69.5t85.5 -176.5q0 -130 -91.5 -196t-234.5 -66zM594 944q-163 0 -286 -117t-156 -313h444q118 0 196 55t78 160q0 95 -71 155t-205 60z" />
    <glyph glyph-name="eogonek.ss03" horiz-adv-x="995" 
d="M592 475h-447q-6 -47 -6 -96q0 -170 96.5 -264.5t253.5 -94.5q160 0 289 117q20 -9 23 -33q-82 -68 -154 -96q-80 -58 -127 -122.5t-47 -123.5q0 -40 25 -60.5t59 -20.5q62 0 111 36q16 -6 16 -26q-63 -47 -133 -47q-121 0 -121 118q0 56 40 115.5t105 112.5
q-39 -8 -94 -8q-173 0 -280 103t-107 294q0 137 40 251.5t108.5 191t161.5 119t198 42.5q145 0 230.5 -69.5t85.5 -176.5q0 -130 -91.5 -196t-234.5 -66zM594 944q-163 0 -286 -117t-156 -313h444q118 0 196 55t78 160q0 95 -71 155t-205 60z" />
    <glyph glyph-name="g.ss03" horiz-adv-x="989" 
d="M997 1049q-68 -79 -130 -99t-216 -20q183 -70 183 -307q0 -103 -50.5 -193t-136.5 -143q131 -94 131 -277q0 -170 -125.5 -284.5t-312.5 -114.5q-148 0 -233.5 38.5t-135.5 110.5q13 20 37 29q83 -135 332 -135q167 0 279 105.5t112 250.5q0 172 -127 252
q-74 -33 -151 -33q-169 0 -261 87t-92 239q0 179 120 296.5t292 117.5h205q94 0 150.5 22.5t99.5 81.5q21 -6 30 -24zM793 621q0 58 -15.5 110t-48 98t-90.5 73.5t-135 27.5q-152 0 -257.5 -107.5t-105.5 -267.5q0 -135 81.5 -210t219.5 -75q147 0 249 102t102 249z" />
    <glyph glyph-name="gbreve.ss03" horiz-adv-x="989" 
d="M535 1112q-40 0 -76 14t-65.5 42t-46 74.5t-13.5 105.5q18 4 35 2q-1 -99 50 -149t126 -50q78 0 146.5 51.5t96.5 147.5q12 0 29 -7q-28 -115 -103.5 -173t-178.5 -58zM997 1049q-68 -79 -130 -99t-216 -20q183 -70 183 -307q0 -103 -50.5 -193t-136.5 -143
q131 -94 131 -277q0 -170 -125.5 -284.5t-312.5 -114.5q-148 0 -233.5 38.5t-135.5 110.5q13 20 37 29q83 -135 332 -135q167 0 279 105.5t112 250.5q0 172 -127 252q-74 -33 -151 -33q-169 0 -261 87t-92 239q0 179 120 296.5t292 117.5h205q94 0 150.5 22.5t99.5 81.5
q21 -6 30 -24zM793 621q0 58 -15.5 110t-48 98t-90.5 73.5t-135 27.5q-152 0 -257.5 -107.5t-105.5 -267.5q0 -135 81.5 -210t219.5 -75q147 0 249 102t102 249z" />
    <glyph glyph-name="gcommaaccent.ss03" horiz-adv-x="989" 
d="M522 1044q-5 0 -20 5q-4 12 -4 47q0 89 42 166.5t95 123.5q12 -4 12 -16q-50 -50 -77 -123t-27 -131q0 -29 4 -65q-11 -7 -25 -7zM997 1049q-68 -79 -130 -99t-216 -20q183 -70 183 -307q0 -103 -50.5 -193t-136.5 -143q131 -94 131 -277q0 -170 -125.5 -284.5
t-312.5 -114.5q-148 0 -233.5 38.5t-135.5 110.5q13 20 37 29q83 -135 332 -135q167 0 279 105.5t112 250.5q0 172 -127 252q-74 -33 -151 -33q-169 0 -261 87t-92 239q0 179 120 296.5t292 117.5h205q94 0 150.5 22.5t99.5 81.5q21 -6 30 -24zM793 621q0 58 -15.5 110
t-48 98t-90.5 73.5t-135 27.5q-152 0 -257.5 -107.5t-105.5 -267.5q0 -135 81.5 -210t219.5 -75q147 0 249 102t102 249z" />
    <glyph glyph-name="gdotaccent.ss03" horiz-adv-x="989" 
d="M578 1198q-21 0 -36.5 15t-15.5 36q0 20 16 35.5t36 15.5q21 0 36 -15t15 -36q0 -22 -14.5 -36.5t-36.5 -14.5zM997 1049q-68 -79 -130 -99t-216 -20q183 -70 183 -307q0 -103 -50.5 -193t-136.5 -143q131 -94 131 -277q0 -170 -125.5 -284.5t-312.5 -114.5
q-148 0 -233.5 38.5t-135.5 110.5q13 20 37 29q83 -135 332 -135q167 0 279 105.5t112 250.5q0 172 -127 252q-74 -33 -151 -33q-169 0 -261 87t-92 239q0 179 120 296.5t292 117.5h205q94 0 150.5 22.5t99.5 81.5q21 -6 30 -24zM793 621q0 58 -15.5 110t-48 98t-90.5 73.5
t-135 27.5q-152 0 -257.5 -107.5t-105.5 -267.5q0 -135 81.5 -210t219.5 -75q147 0 249 102t102 249z" />
    <glyph glyph-name="g.ss04" horiz-adv-x="964" 
d="M1001 1049q-62 -71 -119 -95t-149 -24q88 -88 88 -240q0 -173 -100 -281t-279 -108h-100q-99 0 -158 -49.5t-59 -116.5q0 -62 43 -98.5t133 -36.5h432q2 -2 2 -12q0 -9 -6 -27h-434q-105 0 -159 46t-54 128q0 69 49 124.5t158 72.5q-73 34 -111.5 101.5t-38.5 160.5
q0 173 113.5 274t290.5 101h178q94 0 150.5 22.5t99.5 81.5q21 -6 30 -24zM449 342q154 0 242.5 93.5t88.5 252.5q0 152 -98 242h-147q-158 0 -256.5 -91t-98.5 -245q0 -116 71.5 -184t197.5 -68z" />
    <glyph glyph-name="gbreve.ss04" horiz-adv-x="964" 
d="M549 1112q-40 0 -76 14t-65.5 42t-46 74.5t-13.5 105.5q18 4 35 2q-1 -99 50 -149t126 -50q78 0 147 51.5t97 147.5q11 0 28 -7q-28 -115 -103.5 -173t-178.5 -58zM1001 1049q-62 -71 -119 -95t-149 -24q88 -88 88 -240q0 -173 -100 -281t-279 -108h-100
q-99 0 -158 -49.5t-59 -116.5q0 -62 43 -98.5t133 -36.5h432q2 -2 2 -12q0 -9 -6 -27h-434q-105 0 -159 46t-54 128q0 69 49 124.5t158 72.5q-73 34 -111.5 101.5t-38.5 160.5q0 173 113.5 274t290.5 101h178q94 0 150.5 22.5t99.5 81.5q21 -6 30 -24zM449 342
q154 0 242.5 93.5t88.5 252.5q0 152 -98 242h-147q-158 0 -256.5 -91t-98.5 -245q0 -116 71.5 -184t197.5 -68z" />
    <glyph glyph-name="gcommaaccent.ss04" horiz-adv-x="964" 
d="M537 1044q-6 0 -21 5q-4 12 -4 47q0 89 42 166.5t95 123.5q13 -4 13 -16q-50 -50 -77.5 -123t-27.5 -131q0 -29 4 -65q-11 -7 -24 -7zM1001 1049q-62 -71 -119 -95t-149 -24q88 -88 88 -240q0 -173 -100 -281t-279 -108h-100q-99 0 -158 -49.5t-59 -116.5q0 -62 43 -98.5
t133 -36.5h432q2 -2 2 -12q0 -9 -6 -27h-434q-105 0 -159 46t-54 128q0 69 49 124.5t158 72.5q-73 34 -111.5 101.5t-38.5 160.5q0 173 113.5 274t290.5 101h178q94 0 150.5 22.5t99.5 81.5q21 -6 30 -24zM449 342q154 0 242.5 93.5t88.5 252.5q0 152 -98 242h-147
q-158 0 -256.5 -91t-98.5 -245q0 -116 71.5 -184t197.5 -68z" />
    <glyph glyph-name="gdotaccent.ss04" horiz-adv-x="964" 
d="M592 1198q-21 0 -36 15t-15 36q0 20 15.5 35.5t35.5 15.5q21 0 36 -15t15 -36q0 -22 -14.5 -36.5t-36.5 -14.5zM1001 1049q-62 -71 -119 -95t-149 -24q88 -88 88 -240q0 -173 -100 -281t-279 -108h-100q-99 0 -158 -49.5t-59 -116.5q0 -62 43 -98.5t133 -36.5h432
q2 -2 2 -12q0 -9 -6 -27h-434q-105 0 -159 46t-54 128q0 69 49 124.5t158 72.5q-73 34 -111.5 101.5t-38.5 160.5q0 173 113.5 274t290.5 101h178q94 0 150.5 22.5t99.5 81.5q21 -6 30 -24zM449 342q154 0 242.5 93.5t88.5 252.5q0 152 -98 242h-147q-158 0 -256.5 -91
t-98.5 -245q0 -116 71.5 -184t197.5 -68z" />
    <glyph glyph-name="fi.ss01" horiz-adv-x="1026" 
d="M698 1348q166 0 260 -99q-6 -17 -32 -30q-46 45 -97 66.5t-137 21.5q-322 0 -379 -328l-4 -23h602l-168 -956q-8 -4 -20 -4q-13 0 -21 4l162 922h-561l-160 -1000q-26 -165 -116 -245t-215 -80q-64 0 -113 16t-64 29q3 21 23 34q35 -20 69.5 -29t92.5 -9q233 0 280 278
l166 1006h-149v14q0 8 6 20h149q63 392 426 392z" />
    <glyph glyph-name="fl.ss01" horiz-adv-x="1128" 
d="M1020 86q20 -13 20 -31q-1 -1 -13 -10t-20.5 -14.5t-25.5 -15t-33.5 -15t-40 -10t-47.5 -4.5q-90 0 -134.5 54t-27.5 153l181 1071q-91 43 -197 43q-137 0 -239.5 -81.5t-131.5 -258.5l-2 -11h316q2 -2 2 -10q0 -15 -9 -24h-315l-162 -1000q-26 -166 -115.5 -245.5
t-213.5 -79.5q-64 0 -113 16t-64 29q3 21 23 34q35 -20 69.5 -29t92.5 -9q236 0 280 278l164 1006h-147v14q0 8 6 20h147v5q17 105 59 182.5t100.5 120.5t123 63.5t135.5 20.5q150 0 234 -56l-185 -1104q-13 -78 20 -120.5t103 -42.5q49 0 83.5 14.5t76.5 46.5z" />
    <glyph glyph-name="three.001" horiz-adv-x="997" 
d="M207 1315h741q0 -40 -41 -78l-463 -434q191 0 309.5 -94.5t118.5 -272.5q0 -110 -37 -197.5t-101.5 -143t-148 -84.5t-179.5 -29q-253 0 -377 133q8 20 30 32q65 -63 143.5 -93.5t211.5 -30.5q119 0 211.5 45t149 139.5t56.5 226.5q0 161 -111.5 246.5t-307.5 85.5h-31
q0 2 1 5t1 5q3 20 20 37l486 461h-688q-4 22 6 41z" />
    <glyph glyph-name="zero.osf" horiz-adv-x="1181" 
d="M512 -18q-199 0 -297 116.5t-98 317.5q0 196 64 354.5t191.5 254t297.5 95.5q195 0 292 -116t97 -318q0 -149 -33 -274.5t-98 -222.5t-171.5 -152t-244.5 -55zM518 23q129 0 227.5 53.5t156.5 146.5t87 208.5t29 250.5q0 120 -35 207t-116.5 138.5t-204.5 51.5
q-99 0 -182.5 -35.5t-142 -97t-99.5 -145.5t-60.5 -180.5t-19.5 -202.5q0 -183 87.5 -289t272.5 -106z" />
    <glyph glyph-name="one.osf" horiz-adv-x="600" 
d="M475 1106q11 0 19 -4l-195 -1102q-8 -4 -20 -4q-13 0 -21 4l188 1059l-315 -162q-12 12 -12 37q101 51 221 112q86 44 104 52t31 8z" />
    <glyph glyph-name="two.osf" horiz-adv-x="940" 
d="M82 41h692q0 -2 1 -6t1 -6q0 -9 -8 -29h-748q-4 12 -4 23q0 38 43 65q151 104 252 177t188.5 143.5t139 122.5t88 105t50.5 100.5t14 101.5q0 117 -72 181t-207 64q-176 0 -309 -153q-19 6 -23 24q140 168 340 168q144 0 229 -73.5t85 -210.5q0 -160 -159 -325
q-115 -120 -398 -320q-52 -37 -191 -134l-29 -20z" />
    <glyph glyph-name="three.osf" horiz-adv-x="946" 
d="M496 524q57 -7 103.5 -24.5t85.5 -48.5t61 -81t22 -116q0 -189 -125.5 -301.5t-327.5 -112.5q-211 0 -325 127q9 21 30 33q61 -66 129.5 -92.5t174.5 -26.5q180 0 291.5 102t111.5 263q0 119 -88.5 187.5t-265.5 68.5q-3 6 -1 21t7 20q94 0 171 28t123.5 73.5t71.5 100.5
t25 113q0 106 -59.5 163.5t-178.5 57.5q-180 0 -323 -139q-20 7 -23 23q74 76 157.5 116.5t195.5 40.5q127 0 200.5 -65.5t73.5 -188.5q0 -125 -89 -222t-228 -120z" />
    <glyph glyph-name="four.osf" horiz-adv-x="987" 
d="M682 199h152q2 -16 -9 -39h-149l-58 -322q-16 -4 -22 -4t-18 4l57 322h-623q-4 8 -4 24q0 22 19 41l772 871q12 4 20 4q9 0 21 -4zM55 199h586l141 805l4 20z" />
    <glyph glyph-name="five.osf" horiz-adv-x="940" 
d="M332 -162q-131 0 -209.5 32.5t-112.5 74.5q11 22 33 30q30 -42 103 -70t192 -28q104 0 190.5 39t141.5 120.5t55 190.5q0 67 -16 119t-49.5 88.5t-79 61.5t-111 39t-138.5 20t-169 6l92 526h600v-12q0 -15 -8 -28h-557l-80 -445q281 0 420 -82t139 -282q0 -184 -125 -292
t-311 -108z" />
    <glyph glyph-name="six.osf" horiz-adv-x="1005" 
d="M985 1294q-92 -8 -193.5 -45t-204.5 -104.5t-190.5 -155t-153.5 -206t-91 -248.5q87 101 182.5 151.5t212.5 50.5q67 0 124 -18t102.5 -54t72 -97t26.5 -140q0 -138 -58.5 -243.5t-155.5 -160.5t-214 -55q-169 0 -258.5 105.5t-89.5 296.5q0 134 39.5 260t107 226
t155.5 186t187.5 145.5t201 97.5t196.5 49q6 -11 2 -41zM541 698q-116 0 -211 -55t-187 -162q-6 -53 -6 -106q0 -177 80.5 -272t235.5 -95q159 0 267.5 112t108.5 300q0 139 -82.5 208.5t-205.5 69.5z" />
    <glyph glyph-name="seven.osf" horiz-adv-x="907" 
d="M176 1085h754v-12q0 -30 -47 -96l-768 -1122q-27 8 -37 20l805 1169h-713q-2 4 -2 13q0 15 8 28z" />
    <glyph glyph-name="eight.osf" horiz-adv-x="974" 
d="M541 692q38 -24 57.5 -37t53.5 -38t52.5 -43.5t42.5 -47.5t36 -56.5t21 -63.5t9 -76q0 -86 -32.5 -154.5t-88.5 -110.5t-127 -63.5t-151 -21.5q-152 0 -245 69t-93 195q0 285 387 454q-52 35 -88 64t-71 69t-53 87t-18 102q0 136 100.5 234t252.5 98q141 0 222 -72.5
t81 -185.5q0 -75 -28.5 -139t-81 -112.5t-109.5 -83.5t-129 -67zM276 1020q0 -51 19 -96.5t55 -83.5t72 -66t86 -59q180 79 260 165.5t80 206.5q0 99 -71 160.5t-197 61.5q-131 0 -217.5 -84t-86.5 -205zM420 20q91 0 169.5 32t130.5 102.5t52 167.5q0 53 -14 97.5t-34 75.5
t-57.5 63.5t-68 53t-80.5 51.5q-4 2 -6.5 3.5t-5.5 3.5l-6 4q-1 0 -2 1t-2 1q-377 -169 -377 -424q0 -110 84 -171t217 -61z" />
    <glyph glyph-name="nine.osf" horiz-adv-x="991" 
d="M526 1120q175 0 261.5 -112.5t86.5 -319.5q0 -379 -210 -603.5t-578 -244.5q-4 22 4 37q298 19 486.5 174.5t240.5 433.5q-162 -139 -373 -139q-140 0 -229.5 87t-89.5 261q0 184 114.5 305t286.5 121zM453 385q101 0 200 42.5t170 109.5q11 86 11 153q0 189 -78 290
t-236 101q-103 0 -184 -53.5t-124.5 -142t-43.5 -193.5q0 -152 80 -229.5t205 -77.5z" />
    <glyph glyph-name="zero.tf" horiz-adv-x="1085" 
d="M475 -18q-356 0 -356 475q0 184 34 344.5t99 284.5t168 196t233 72q171 0 258.5 -121t87.5 -354q0 -199 -33 -362t-96.5 -283t-164.5 -186t-230 -66zM481 23q123 0 217 68.5t149.5 188.5t83 271.5t27.5 329.5q0 432 -311 432q-99 0 -181.5 -49.5t-138 -132.5t-94 -194.5
t-56 -232.5t-17.5 -249q0 -209 75 -320.5t246 -111.5z" />
    <glyph glyph-name="one.tf" horiz-adv-x="1085" 
d="M836 37q6 -24 -7 -37h-669q-4 17 6 37h338l219 1233l-387 -195q-15 15 -12 37l407 203q8 4 21 4q10 0 18 -4l-225 -1278h291z" />
    </font>
</defs>
</svg>
